<svg width="21" height="21" viewBox="0 0 21 21" fill="none" xmlns="http://www.w3.org/2000/svg">
<g clip-path="url(#clip0_1299_5359)">
<path d="M19.2149 9.22686V5.65686C19.2149 4.93499 18.6571 4.34436 17.9752 4.34436H4.6488" stroke="#333333" stroke-width="1.41676" stroke-linecap="round" stroke-linejoin="round"/>
<path d="M17.4732 4.34437V1.96875C17.4732 1.24687 16.9153 0.65625 16.2335 0.65625H3.09921C1.72938 0.65625 0.619873 1.83094 0.619873 3.28125V17.7188C0.619873 19.1691 1.72938 20.3438 3.09921 20.3438H17.9752C18.6571 20.3438 19.2149 19.7531 19.2149 19.0312V14.1487" stroke="#333333" stroke-width="1.41676" stroke-linecap="round" stroke-linejoin="round"/>
<path d="M20.3801 9.22681V14.1487H16.5061C15.2231 14.1487 14.1818 13.0462 14.1818 11.6877C14.1818 10.3293 15.2231 9.22681 16.5061 9.22681H20.3801Z" stroke="#333333" stroke-width="1.41676" stroke-linecap="round" stroke-linejoin="round"/>
</g>
<defs>
<clipPath id="clip0_1299_5359">
<rect width="21" height="21" fill="white"/>
</clipPath>
</defs>
</svg>
