<svg width="24" height="24" viewBox="0 0 24 24" fill="none" xmlns="http://www.w3.org/2000/svg">
<path d="M4.99301 12.984C4.77578 12.9837 4.56439 13.0543 4.39081 13.1849C4.21722 13.3155 4.09088 13.499 4.03089 13.7078C3.9709 13.9166 3.98053 14.1392 4.05831 14.342C4.13609 14.5449 4.2778 14.7168 4.46201 14.832L7.15001 17.52C7.24292 17.6128 7.35321 17.6864 7.47457 17.7367C7.59594 17.7869 7.72601 17.8127 7.85736 17.8127C7.98871 17.8126 8.11876 17.7867 8.2401 17.7364C8.36143 17.6861 8.47166 17.6124 8.56451 17.5195C8.65735 17.4265 8.73099 17.3163 8.78121 17.1949C8.83143 17.0735 8.85726 16.9435 8.85721 16.8121C8.85717 16.6808 8.83125 16.5507 8.78094 16.4294C8.73063 16.308 8.65692 16.1978 8.56401 16.105L7.44301 14.985H14.993C15.2582 14.985 15.5126 14.8796 15.7001 14.6921C15.8877 14.5045 15.993 14.2502 15.993 13.985C15.993 13.7197 15.8877 13.4654 15.7001 13.2779C15.5126 13.0903 15.2582 12.985 14.993 12.985L4.99301 12.984ZM19.007 11.015C19.2242 11.0152 19.4356 10.9447 19.6092 10.8141C19.7828 10.6835 19.9091 10.4999 19.9691 10.2911C20.0291 10.0823 20.0195 9.85971 19.9417 9.65689C19.8639 9.45407 19.7222 9.28209 19.538 9.16696L16.85 6.47996C16.6624 6.29245 16.4079 6.18716 16.1427 6.18726C15.8774 6.18735 15.623 6.29282 15.4355 6.48046C15.248 6.6681 15.1427 6.92254 15.1428 7.18781C15.1429 7.45308 15.2484 7.70745 15.436 7.89496L16.557 9.01496H9.00701C8.74179 9.01496 8.48744 9.12031 8.2999 9.30785C8.11237 9.49539 8.00701 9.74974 8.00701 10.015C8.00701 10.2802 8.11237 10.5345 8.2999 10.7221C8.48744 10.9096 8.74179 11.015 9.00701 11.015H19.007Z" fill="#999999"/>
</svg>
