<svg width="20" height="20" viewBox="0 0 20 20" fill="none" xmlns="http://www.w3.org/2000/svg">
<mask id="mask0_1299_4756" style="mask-type:alpha" maskUnits="userSpaceOnUse" x="0" y="0" width="20" height="20">
<path d="M20 0H0V20H20V0Z" fill="#222222"/>
</mask>
<g mask="url(#mask0_1299_4756)">
<path d="M10 4.5C9.44943 4.5 9 4.9494 9 5.49995C9 6.05051 9.44943 6.5 10 6.5C10.5506 6.5 11 6.05051 11 5.49995C11 4.9494 10.5506 4.5 10 4.5Z" fill="#222222"/>
<path d="M9 15C9 15.5506 9.44943 16 10 16C10.5506 16 11 15.5506 11 15C11 14.4495 10.5506 14 10 14C9.44943 14 9 14.4495 9 15Z" fill="#222222"/>
<path d="M9 10.5C9 11.0506 9.44943 11.5 10 11.5C10.5506 11.5 11 11.0506 11 10.5C11 9.94942 10.5506 9.5 10 9.5C9.44943 9.5 9 9.94942 9 10.5Z" fill="#222222"/>
</g>
</svg>
