<svg width="21" height="22" viewBox="0 0 21 22" fill="none" xmlns="http://www.w3.org/2000/svg">
<path d="M0 13.125C0 7.91239 4.22563 3.68677 9.4382 3.68677H11.5618C16.7744 3.68677 21 7.91239 21 13.125V18.8272C21 20.1304 19.9436 21.1868 18.6404 21.1868H2.35955C1.05641 21.1868 0 20.1304 0 18.8272V13.125Z" fill="#999999"/>
<path d="M5.33976 2.36794C4.73407 1.42576 5.41057 0.186646 6.53064 0.186646H14.4106C15.5427 0.186646 16.2169 1.44947 15.587 2.3901L14.1328 4.56165H6.75L5.33976 2.36794Z" fill="#999999"/>
<mask id="path-3-inside-1_1334_672" fill="white">
<path d="M13.0494 9.97921C13.2121 9.56407 13.7154 9.34812 14.1725 9.49581C14.6296 9.64352 14.8664 10.1012 14.7037 10.5163L14.2721 11.614H14.9938C15.4792 11.6141 15.8726 11.9709 15.8727 12.4118C15.8727 12.8528 15.4793 13.2105 14.9938 13.2107H13.6432L12.6344 15.7751C12.5091 16.0944 12.1767 16.3044 11.8053 16.3044H11.7662C11.3794 16.2884 11.0514 16.0441 10.9547 15.7048L10.3531 13.5798L9.75061 15.7048C9.65395 16.044 9.32448 16.2883 8.94006 16.3044C8.54892 16.3224 8.2016 16.1044 8.0719 15.7751L7.03674 13.1462H5.77893C5.2935 13.1461 4.90027 12.7892 4.90002 12.3484C4.90002 11.9073 5.29334 11.5496 5.77893 11.5495H6.40881L6.00159 10.5163C5.83898 10.1012 6.07583 9.64357 6.53284 9.49581C6.98996 9.34812 7.49325 9.56407 7.65588 9.97921L8.76135 12.7868L9.50256 10.1784C9.60378 9.82534 9.95329 9.5798 10.3531 9.5798C10.7528 9.57997 11.1038 9.82747 11.2028 10.1784L11.944 12.7868L13.0494 9.97921Z"/>
</mask>
<path d="M13.0494 9.97921C13.2121 9.56407 13.7154 9.34812 14.1725 9.49581C14.6296 9.64352 14.8664 10.1012 14.7037 10.5163L14.2721 11.614H14.9938C15.4792 11.6141 15.8726 11.9709 15.8727 12.4118C15.8727 12.8528 15.4793 13.2105 14.9938 13.2107H13.6432L12.6344 15.7751C12.5091 16.0944 12.1767 16.3044 11.8053 16.3044H11.7662C11.3794 16.2884 11.0514 16.0441 10.9547 15.7048L10.3531 13.5798L9.75061 15.7048C9.65395 16.044 9.32448 16.2883 8.94006 16.3044C8.54892 16.3224 8.2016 16.1044 8.0719 15.7751L7.03674 13.1462H5.77893C5.2935 13.1461 4.90027 12.7892 4.90002 12.3484C4.90002 11.9073 5.29334 11.5496 5.77893 11.5495H6.40881L6.00159 10.5163C5.83898 10.1012 6.07583 9.64357 6.53284 9.49581C6.98996 9.34812 7.49325 9.56407 7.65588 9.97921L8.76135 12.7868L9.50256 10.1784C9.60378 9.82534 9.95329 9.5798 10.3531 9.5798C10.7528 9.57997 11.1038 9.82747 11.2028 10.1784L11.944 12.7868L13.0494 9.97921Z" fill="white"/>
<path d="M13.0494 9.97921L13.2448 10.0561L13.245 10.0558L13.0494 9.97921ZM14.1725 9.49581L14.2371 9.29599L14.237 9.29598L14.1725 9.49581ZM14.7037 10.5163L14.8992 10.5932L14.8993 10.5929L14.7037 10.5163ZM14.2721 11.614L14.0767 11.5371L13.9639 11.824H14.2721V11.614ZM14.9938 11.614L14.9938 11.404H14.9938V11.614ZM15.8727 12.4118H16.0827V12.4118L15.8727 12.4118ZM14.9938 13.2107V13.4207H14.9938L14.9938 13.2107ZM13.6432 13.2107V13.0007H13.5001L13.4478 13.1338L13.6432 13.2107ZM12.6344 15.7751L12.439 15.6982L12.4389 15.6984L12.6344 15.7751ZM11.7662 16.3044L11.7576 16.5144H11.7662V16.3044ZM10.9547 15.7048L10.7527 15.762L10.7528 15.7624L10.9547 15.7048ZM10.3531 13.5798L10.5552 13.5226L10.3533 12.8094L10.1511 13.5225L10.3531 13.5798ZM9.75061 15.7048L9.95257 15.7624L9.95265 15.7621L9.75061 15.7048ZM8.94006 16.3044L8.93126 16.0946L8.93043 16.0946L8.94006 16.3044ZM8.0719 15.7751L7.8765 15.852L7.87651 15.8521L8.0719 15.7751ZM7.03674 13.1462L7.23214 13.0693L7.17975 12.9362H7.03674V13.1462ZM5.77893 13.1462L5.77888 13.3562H5.77893V13.1462ZM4.90002 12.3484H4.69002L4.69002 12.3485L4.90002 12.3484ZM5.77893 11.5495V11.3395H5.77888L5.77893 11.5495ZM6.40881 11.5495V11.7595H6.71731L6.60419 11.4725L6.40881 11.5495ZM6.00159 10.5163L5.80605 10.5929L5.80621 10.5933L6.00159 10.5163ZM6.53284 9.49581L6.46827 9.29598L6.46823 9.296L6.53284 9.49581ZM7.65588 9.97921L7.46035 10.0558L7.46048 10.0561L7.65588 9.97921ZM8.76135 12.7868L8.56595 12.8638L8.79355 13.4418L8.96336 12.8442L8.76135 12.7868ZM9.50256 10.1784L9.30069 10.1206L9.30056 10.121L9.50256 10.1784ZM10.3531 9.5798L10.3532 9.3698H10.3531V9.5798ZM11.2028 10.1784L11.0006 10.2354L11.0008 10.2358L11.2028 10.1784ZM11.944 12.7868L11.742 12.8442L11.9118 13.4418L12.1394 12.8638L11.944 12.7868ZM13.0494 9.97921L13.245 10.0558C13.3621 9.7568 13.7429 9.5777 14.1079 9.69564L14.1725 9.49581L14.237 9.29598C13.6878 9.11853 13.062 9.37134 12.8539 9.90261L13.0494 9.97921ZM14.1725 9.49581L14.1079 9.69564C14.4644 9.81084 14.6213 10.151 14.5082 10.4397L14.7037 10.5163L14.8993 10.5929C15.1114 10.0514 14.7948 9.47621 14.2371 9.29599L14.1725 9.49581ZM14.7037 10.5163L14.5083 10.4395L14.0767 11.5371L14.2721 11.614L14.4675 11.6908L14.8992 10.5932L14.7037 10.5163ZM14.2721 11.614V11.824H14.9938V11.614V11.404H14.2721V11.614ZM14.9938 11.614L14.9937 11.824C15.3829 11.8241 15.6626 12.1056 15.6627 12.4119L15.8727 12.4118L16.0827 12.4118C16.0825 11.8362 15.5756 11.4042 14.9938 11.404L14.9938 11.614ZM15.8727 12.4118H15.6627C15.6627 12.7184 15.3827 13.0005 14.9937 13.0007L14.9938 13.2107L14.9938 13.4207C15.576 13.4205 16.0827 12.9872 16.0827 12.4118H15.8727ZM14.9938 13.2107V13.0007H13.6432V13.2107V13.4207H14.9938V13.2107ZM13.6432 13.2107L13.4478 13.1338L12.439 15.6982L12.6344 15.7751L12.8298 15.852L13.8386 13.2875L13.6432 13.2107ZM12.6344 15.7751L12.4389 15.6984C12.349 15.9276 12.1013 16.0944 11.8053 16.0944V16.3044V16.5144C12.2521 16.5144 12.6693 16.2613 12.8299 15.8518L12.6344 15.7751ZM11.8053 16.3044V16.0944H11.7662V16.3044V16.5144H11.8053V16.3044ZM11.7662 16.3044L11.7749 16.0946C11.4682 16.0819 11.2258 15.8897 11.1567 15.6472L10.9547 15.7048L10.7528 15.7624C10.877 16.1985 11.2907 16.495 11.7576 16.5142L11.7662 16.3044ZM10.9547 15.7048L11.1568 15.6476L10.5552 13.5226L10.3531 13.5798L10.1511 13.637L10.7527 15.762L10.9547 15.7048ZM10.3531 13.5798L10.1511 13.5225L9.54857 15.6475L9.75061 15.7048L9.95265 15.7621L10.5552 13.6371L10.3531 13.5798ZM9.75061 15.7048L9.54865 15.6472C9.47962 15.8895 9.23587 16.0818 8.93126 16.0946L8.94006 16.3044L8.94886 16.5142C9.41309 16.4947 9.82828 16.1985 9.95257 15.7624L9.75061 15.7048ZM8.94006 16.3044L8.93043 16.0946C8.62075 16.1088 8.36115 15.9364 8.26729 15.6981L8.0719 15.7751L7.87651 15.8521C8.04205 16.2723 8.47709 16.5359 8.9497 16.5142L8.94006 16.3044ZM8.0719 15.7751L8.2673 15.6982L7.23214 13.0693L7.03674 13.1462L6.84135 13.2231L7.8765 15.852L8.0719 15.7751ZM7.03674 13.1462V12.9362H5.77893V13.1462V13.3562H7.03674V13.1462ZM5.77893 13.1462L5.77898 12.9362C5.38995 12.9361 5.1102 12.6545 5.11002 12.3482L4.90002 12.3484L4.69002 12.3485C4.69035 12.9238 5.19705 13.3561 5.77888 13.3562L5.77893 13.1462ZM4.90002 12.3484H5.11002C5.11002 12.0417 5.39002 11.7596 5.77898 11.7595L5.77893 11.5495L5.77888 11.3395C5.19667 11.3397 4.69002 11.7729 4.69002 12.3484H4.90002ZM5.77893 11.5495V11.7595H6.40881V11.5495V11.3395H5.77893V11.5495ZM6.40881 11.5495L6.60419 11.4725L6.19696 10.4393L6.00159 10.5163L5.80621 10.5933L6.21344 11.6265L6.40881 11.5495ZM6.00159 10.5163L6.19712 10.4397C6.08404 10.1511 6.24098 9.81088 6.59744 9.69563L6.53284 9.49581L6.46823 9.296C5.91069 9.47626 5.59392 10.0514 5.80606 10.5929L6.00159 10.5163ZM6.53284 9.49581L6.5974 9.69564C6.96243 9.5777 7.34321 9.7568 7.46035 10.0558L7.65588 9.97921L7.85141 9.90261C7.64329 9.37135 7.01748 9.11854 6.46827 9.29598L6.53284 9.49581ZM7.65588 9.97921L7.46048 10.0561L8.56595 12.8638L8.76135 12.7868L8.95675 12.7099L7.85128 9.90227L7.65588 9.97921ZM8.76135 12.7868L8.96336 12.8442L9.70457 10.2358L9.50256 10.1784L9.30056 10.121L8.55935 12.7294L8.76135 12.7868ZM9.50256 10.1784L9.70443 10.2363C9.77673 9.98408 10.0352 9.7898 10.3531 9.7898V9.5798V9.3698C9.87135 9.3698 9.43083 9.66659 9.30069 10.1206L9.50256 10.1784ZM10.3531 9.5798L10.3531 9.7898C10.671 9.78993 10.9303 9.98624 11.0006 10.2354L11.2028 10.1784L11.4049 10.1214C11.2772 9.66871 10.8346 9.37 10.3532 9.3698L10.3531 9.5798ZM11.2028 10.1784L11.0008 10.2358L11.742 12.8442L11.944 12.7868L12.146 12.7294L11.4048 10.121L11.2028 10.1784ZM11.944 12.7868L12.1394 12.8638L13.2448 10.0561L13.0494 9.97921L12.854 9.90227L11.7486 12.7099L11.944 12.7868Z" fill="#999999" mask="url(#path-3-inside-1_1334_672)"/>
</svg>
