<svg width="25" height="25" viewBox="0 0 25 25" fill="none" xmlns="http://www.w3.org/2000/svg">
<path d="M4.66309 5.07784H20.2881C20.4706 5.07779 20.6529 5.08937 20.834 5.11251C20.7726 4.68173 20.6246 4.26785 20.399 3.8958C20.1734 3.52376 19.8747 3.20127 19.521 2.94777C19.1674 2.69426 18.7661 2.515 18.3413 2.4208C17.9165 2.32659 17.477 2.31939 17.0493 2.39962L4.19922 4.59347H4.18457C3.37797 4.74771 2.66068 5.20408 2.1792 5.86934C2.90459 5.35339 3.77292 5.07669 4.66309 5.07784ZM20.2881 6.24972H4.66309C3.83456 6.25062 3.04023 6.58015 2.45438 7.16601C1.86852 7.75186 1.53899 8.54619 1.53809 9.37472V18.7497C1.53899 19.5782 1.86852 20.3726 2.45438 20.9584C3.04023 21.5443 3.83456 21.8738 4.66309 21.8747H20.2881C21.1166 21.8738 21.9109 21.5443 22.4968 20.9584C23.0827 20.3726 23.4122 19.5782 23.4131 18.7497V9.37472C23.4122 8.54619 23.0827 7.75186 22.4968 7.16601C21.9109 6.58015 21.1166 6.25062 20.2881 6.24972ZM17.9688 15.6247C17.6597 15.6247 17.3576 15.5331 17.1007 15.3614C16.8437 15.1897 16.6434 14.9457 16.5252 14.6602C16.4069 14.3747 16.376 14.0605 16.4363 13.7574C16.4966 13.4543 16.6454 13.1759 16.8639 12.9574C17.0824 12.7388 17.3608 12.59 17.6639 12.5297C17.967 12.4695 18.2812 12.5004 18.5667 12.6187C18.8522 12.7369 19.0962 12.9372 19.2679 13.1941C19.4396 13.4511 19.5312 13.7532 19.5312 14.0622C19.5312 14.4766 19.3666 14.874 19.0736 15.1671C18.7806 15.4601 18.3832 15.6247 17.9688 15.6247Z" fill="#999999"/>
<path d="M1.5625 12.671V7.81262C1.5625 6.75452 2.14844 4.98059 4.18213 4.59631C5.9082 4.27258 7.61719 4.27258 7.61719 4.27258C7.61719 4.27258 8.74023 5.05383 7.8125 5.05383C6.88477 5.05383 6.90918 6.25012 7.8125 6.25012C8.71582 6.25012 7.8125 7.39758 7.8125 7.39758L4.1748 11.5236L1.5625 12.671Z" fill="#999999"/>
</svg>
