<svg width="21" height="22" viewBox="0 0 21 22" fill="none" xmlns="http://www.w3.org/2000/svg">
<path d="M0 13.125C0 7.91239 4.22563 3.68677 9.4382 3.68677H11.5618C16.7744 3.68677 21 7.91239 21 13.125V18.8272C21 20.1304 19.9436 21.1868 18.6404 21.1868H2.35955C1.05641 21.1868 0 20.1304 0 18.8272V13.125Z" fill="#FF5460"/>
<path d="M5.33976 2.36794C4.73407 1.42576 5.41057 0.186646 6.53064 0.186646H14.4106C15.5427 0.186646 16.2169 1.44947 15.587 2.3901L14.1328 4.56165H6.75L5.33976 2.36794Z" fill="#FF5460"/>
<mask id="path-3-inside-1_1334_1478" fill="white">
<path d="M6.53284 9.49651C6.98986 9.34885 7.49314 9.56398 7.65588 9.97893L8.76135 12.7875L9.50256 10.1791C9.60366 9.82586 9.95317 9.57952 10.3531 9.57952C10.753 9.57969 11.1039 9.82798 11.2028 10.1791L11.944 12.7875L13.0494 9.97893C13.2122 9.56394 13.7154 9.34884 14.1725 9.49651C14.6295 9.64429 14.8663 10.101 14.7037 10.516L14.2721 11.6137H14.9938C15.4793 11.6139 15.8727 11.9715 15.8727 12.4125C15.8724 12.8533 15.4791 13.2102 14.9938 13.2104H13.6432L12.6344 15.7748C12.5091 16.0942 12.1767 16.3041 11.8053 16.3041H11.7662C11.3795 16.2882 11.0515 16.0447 10.9547 15.7055L10.3531 13.5795L9.75061 15.7055C9.65389 16.0446 9.32441 16.288 8.94006 16.3041C8.54887 16.3221 8.20156 16.1042 8.0719 15.7748L7.03674 13.1459H5.77893C5.29338 13.1458 4.90009 12.789 4.90002 12.3481C4.90002 11.9071 5.29334 11.5494 5.77893 11.5492H6.40881L6.00159 10.516C5.839 10.101 6.07596 9.64433 6.53284 9.49651Z"/>
</mask>
<path d="M6.53284 9.49651C6.98986 9.34885 7.49314 9.56398 7.65588 9.97893L8.76135 12.7875L9.50256 10.1791C9.60366 9.82586 9.95317 9.57952 10.3531 9.57952C10.753 9.57969 11.1039 9.82798 11.2028 10.1791L11.944 12.7875L13.0494 9.97893C13.2122 9.56394 13.7154 9.34884 14.1725 9.49651C14.6295 9.64429 14.8663 10.101 14.7037 10.516L14.2721 11.6137H14.9938C15.4793 11.6139 15.8727 11.9715 15.8727 12.4125C15.8724 12.8533 15.4791 13.2102 14.9938 13.2104H13.6432L12.6344 15.7748C12.5091 16.0942 12.1767 16.3041 11.8053 16.3041H11.7662C11.3795 16.2882 11.0515 16.0447 10.9547 15.7055L10.3531 13.5795L9.75061 15.7055C9.65389 16.0446 9.32441 16.288 8.94006 16.3041C8.54887 16.3221 8.20156 16.1042 8.0719 15.7748L7.03674 13.1459H5.77893C5.29338 13.1458 4.90009 12.789 4.90002 12.3481C4.90002 11.9071 5.29334 11.5494 5.77893 11.5492H6.40881L6.00159 10.516C5.839 10.101 6.07596 9.64433 6.53284 9.49651Z" fill="white"/>
<path d="M6.53284 9.49651L6.46827 9.29668L6.46819 9.29671L6.53284 9.49651ZM7.65588 9.97893L7.46038 10.0556L7.46048 10.0558L7.65588 9.97893ZM8.76135 12.7875L8.56594 12.8644L8.79351 13.4426L8.96336 12.8449L8.76135 12.7875ZM9.50256 10.1791L9.30067 10.1214L9.30056 10.1217L9.50256 10.1791ZM10.3531 9.57952L10.3532 9.36952H10.3531V9.57952ZM11.2028 10.1791L11.0006 10.236L11.0008 10.2365L11.2028 10.1791ZM11.944 12.7875L11.742 12.8449L11.9118 13.4426L12.1394 12.8644L11.944 12.7875ZM13.0494 9.97893L13.2448 10.0558L13.2449 10.0556L13.0494 9.97893ZM14.1725 9.49651L14.2371 9.2967L14.237 9.29668L14.1725 9.49651ZM14.7037 10.516L14.8992 10.5929L14.8993 10.5926L14.7037 10.516ZM14.2721 11.6137L14.0767 11.5368L13.9639 11.8237H14.2721V11.6137ZM14.9938 11.6137L14.9938 11.4037H14.9938V11.6137ZM15.8727 12.4125L16.0827 12.4127V12.4125H15.8727ZM14.9938 13.2104V13.4204H14.9938L14.9938 13.2104ZM13.6432 13.2104V13.0004H13.5001L13.4478 13.1335L13.6432 13.2104ZM12.6344 15.7748L12.439 15.698L12.4389 15.6981L12.6344 15.7748ZM11.7662 16.3041L11.7576 16.5141H11.7662V16.3041ZM10.9547 15.7055L10.7526 15.7627L10.7528 15.7631L10.9547 15.7055ZM10.3531 13.5795L10.5552 13.5223L10.3533 12.8088L10.1511 13.5223L10.3531 13.5795ZM9.75061 15.7055L9.95256 15.7631L9.95265 15.7628L9.75061 15.7055ZM8.94006 16.3041L8.93126 16.0943L8.93043 16.0943L8.94006 16.3041ZM8.0719 15.7748L8.2673 15.6979L8.2673 15.6979L8.0719 15.7748ZM7.03674 13.1459L7.23214 13.069L7.17975 12.9359H7.03674V13.1459ZM5.77893 13.1459L5.77888 13.3559H5.77893V13.1459ZM4.90002 12.3481H4.69002V12.3481L4.90002 12.3481ZM5.77893 11.5492V11.3392L5.77888 11.3392L5.77893 11.5492ZM6.40881 11.5492V11.7592H6.71731L6.60419 11.4722L6.40881 11.5492ZM6.00159 10.516L5.80605 10.5926L5.80621 10.593L6.00159 10.516ZM6.53284 9.49651L6.5974 9.69634C6.96264 9.57833 7.34326 9.75698 7.46038 10.0556L7.65588 9.97893L7.85139 9.90226C7.64301 9.37097 7.01708 9.11937 6.46827 9.29668L6.53284 9.49651ZM7.65588 9.97893L7.46048 10.0558L8.56594 12.8644L8.76135 12.7875L8.95676 12.7106L7.85129 9.90202L7.65588 9.97893ZM8.76135 12.7875L8.96336 12.8449L9.70457 10.2365L9.50256 10.1791L9.30056 10.1217L8.55935 12.7301L8.76135 12.7875ZM9.50256 10.1791L9.70446 10.2369C9.77674 9.98431 10.0354 9.78952 10.3531 9.78952V9.57952V9.36952C9.87091 9.36952 9.43057 9.6674 9.30067 10.1214L9.50256 10.1791ZM10.3531 9.57952L10.3531 9.78952C10.6709 9.78965 10.9304 9.98646 11.0006 10.236L11.2028 10.1791L11.4049 10.1222C11.2774 9.66949 10.8351 9.36972 10.3532 9.36952L10.3531 9.57952ZM11.2028 10.1791L11.0008 10.2365L11.742 12.8449L11.944 12.7875L12.146 12.7301L11.4048 10.1217L11.2028 10.1791ZM11.944 12.7875L12.1394 12.8644L13.2448 10.0558L13.0494 9.97893L12.854 9.90202L11.7486 12.7106L11.944 12.7875ZM13.0494 9.97893L13.2449 10.0556C13.362 9.75696 13.7426 9.57832 14.1079 9.69634L14.1725 9.49651L14.237 9.29668C13.6882 9.11936 13.0623 9.37091 12.8539 9.90227L13.0494 9.97893ZM14.1725 9.49651L14.1079 9.69632C14.4645 9.81166 14.6212 10.151 14.5082 10.4394L14.7037 10.516L14.8993 10.5926C15.1115 10.0509 14.7944 9.47691 14.2371 9.2967L14.1725 9.49651ZM14.7037 10.516L14.5083 10.4392L14.0767 11.5368L14.2721 11.6137L14.4675 11.6906L14.8992 10.5929L14.7037 10.516ZM14.2721 11.6137V11.8237H14.9938V11.6137V11.4037H14.2721V11.6137ZM14.9938 11.6137L14.9937 11.8237C15.3827 11.8238 15.6627 12.106 15.6627 12.4125H15.8727H16.0827C16.0827 11.8371 15.576 11.4039 14.9938 11.4037L14.9938 11.6137ZM15.8727 12.4125L15.6627 12.4124C15.6625 12.7187 15.3827 13.0003 14.9937 13.0004L14.9938 13.2104L14.9938 13.4204C15.5756 13.4202 16.0823 12.9879 16.0827 12.4127L15.8727 12.4125ZM14.9938 13.2104V13.0004H13.6432V13.2104V13.4204H14.9938V13.2104ZM13.6432 13.2104L13.4478 13.1335L12.439 15.698L12.6344 15.7748L12.8298 15.8517L13.8386 13.2873L13.6432 13.2104ZM12.6344 15.7748L12.4389 15.6981C12.349 15.9273 12.1013 16.0941 11.8053 16.0941V16.3041V16.5141C12.2521 16.5141 12.6693 16.261 12.8299 15.8515L12.6344 15.7748ZM11.8053 16.3041V16.0941H11.7662V16.3041V16.5141H11.8053V16.3041ZM11.7662 16.3041L11.7749 16.0943C11.4678 16.0816 11.2257 15.89 11.1567 15.6479L10.9547 15.7055L10.7528 15.7631C10.8772 16.1994 11.2911 16.4947 11.7576 16.5139L11.7662 16.3041ZM10.9547 15.7055L11.1568 15.6483L10.5552 13.5223L10.3531 13.5795L10.1511 13.6367L10.7526 15.7627L10.9547 15.7055ZM10.3531 13.5795L10.1511 13.5223L9.54857 15.6482L9.75061 15.7055L9.95265 15.7628L10.5552 13.6368L10.3531 13.5795ZM9.75061 15.7055L9.54867 15.6479C9.47967 15.8898 9.23616 16.0815 8.93126 16.0943L8.94006 16.3041L8.94887 16.5139C9.41266 16.4945 9.8281 16.1994 9.95256 15.7631L9.75061 15.7055ZM8.94006 16.3041L8.93043 16.0943C8.62068 16.1086 8.36112 15.9362 8.2673 15.6979L8.0719 15.7748L7.8765 15.8518C8.04201 16.2721 8.47707 16.5356 8.9497 16.5139L8.94006 16.3041ZM8.0719 15.7748L8.2673 15.6979L7.23214 13.069L7.03674 13.1459L6.84135 13.2229L7.8765 15.8518L8.0719 15.7748ZM7.03674 13.1459V12.9359H5.77893V13.1459V13.3559H7.03674V13.1459ZM5.77893 13.1459L5.77898 12.9359C5.38974 12.9358 5.11007 12.6544 5.11002 12.348L4.90002 12.3481L4.69002 12.3481C4.69011 12.9237 5.19703 13.3558 5.77888 13.3559L5.77893 13.1459ZM4.90002 12.3481H5.11002C5.11002 12.0415 5.39002 11.7593 5.77898 11.7592L5.77893 11.5492L5.77888 11.3392C5.19667 11.3394 4.69002 11.7727 4.69002 12.3481H4.90002ZM5.77893 11.5492V11.7592H6.40881V11.5492V11.3392H5.77893V11.5492ZM6.40881 11.5492L6.60419 11.4722L6.19696 10.439L6.00159 10.516L5.80621 10.593L6.21344 11.6262L6.40881 11.5492ZM6.00159 10.516L6.19712 10.4394C6.08416 10.1511 6.24084 9.81171 6.59748 9.69631L6.53284 9.49651L6.46819 9.29671C5.91108 9.47696 5.59385 10.0509 5.80606 10.5926L6.00159 10.516Z" fill="#FF5460" mask="url(#path-3-inside-1_1334_1478)"/>
</svg>
