<svg width="24" height="24" viewBox="0 0 24 24" fill="none" xmlns="http://www.w3.org/2000/svg">
<g clip-path="url(#clip0_1334_1666)">
<path d="M5.49206 23.0868C4.5664 23.0847 3.67928 22.7159 3.02483 22.0613C2.37038 21.4067 2.00191 20.5194 2.00006 19.5938V10.0438C1.9998 9.77598 2.06096 9.51169 2.17885 9.27124C2.29673 9.03078 2.4682 8.82057 2.68006 8.65678L10.4891 2.57878C10.7981 2.33908 11.178 2.20898 11.5691 2.20898C11.9601 2.20898 12.3401 2.33908 12.6491 2.57878L20.4641 8.65678C20.6749 8.82149 20.8457 9.03189 20.9635 9.27213C21.0812 9.51238 21.143 9.77621 21.1441 10.0438V19.5938C21.1422 20.5208 20.7726 21.4093 20.1165 22.0641C19.4603 22.719 18.5711 23.0868 17.6441 23.0868H5.49206Z" fill="#FF5460"/>
<path d="M9.84726 13.957H13.2903C13.601 13.9573 13.899 14.0809 14.1187 14.3006C14.3384 14.5203 14.462 14.8183 14.4623 15.129V19.151C14.462 19.4618 14.3384 19.7597 14.1187 19.9795C13.899 20.1992 13.601 20.3228 13.2903 20.323H9.84726C9.5372 20.3217 9.24028 20.1977 9.02141 19.9781C8.80254 19.7584 8.67952 19.4611 8.67926 19.151V15.129C8.67953 14.8183 8.80309 14.5203 9.02282 14.3006C9.24256 14.0809 9.54051 13.9573 9.85126 13.957" fill="white"/>
</g>
<defs>
<clipPath id="clip0_1334_1666">
<rect width="24" height="24" fill="white"/>
</clipPath>
</defs>
</svg>
