<svg width="24" height="24" viewBox="0 0 24 24" fill="none" xmlns="http://www.w3.org/2000/svg">
<g clip-path="url(#clip0_1334_1464)">
<path d="M5.49212 23.0868C4.56646 23.0847 3.67934 22.7159 3.02489 22.0613C2.37044 21.4067 2.00197 20.5194 2.00012 19.5938V10.0438C1.99986 9.77598 2.06102 9.51169 2.17891 9.27124C2.29679 9.03078 2.46826 8.82057 2.68012 8.65678L10.4891 2.57878C10.7981 2.33908 11.1781 2.20898 11.5691 2.20898C11.9602 2.20898 12.3401 2.33908 12.6491 2.57878L20.4641 8.65678C20.675 8.82149 20.8457 9.03189 20.9635 9.27213C21.0813 9.51238 21.143 9.77621 21.1441 10.0438V19.5938C21.1423 20.5208 20.7727 21.4093 20.1165 22.0641C19.4603 22.719 18.5712 23.0868 17.6441 23.0868H5.49212Z" fill="#999999" stroke="#999999" stroke-width="1.5" stroke-miterlimit="10"/>
<path d="M9.84732 13.957H13.2903C13.6011 13.9573 13.899 14.0809 14.1188 14.3006C14.3385 14.5203 14.4621 14.8183 14.4623 15.129V19.151C14.4621 19.4618 14.3385 19.7597 14.1188 19.9795C13.899 20.1992 13.6011 20.3228 13.2903 20.323H9.84732C9.53726 20.3217 9.24034 20.1977 9.02147 19.9781C8.8026 19.7584 8.67958 19.4611 8.67932 19.151V15.129C8.67959 14.8183 8.80315 14.5203 9.02288 14.3006C9.24262 14.0809 9.54057 13.9573 9.85132 13.957" fill="white"/>
</g>
<defs>
<clipPath id="clip0_1334_1464">
<rect width="24" height="24" fill="white"/>
</clipPath>
</defs>
</svg>
