<svg width="24" height="24" viewBox="0 0 24 24" fill="none" xmlns="http://www.w3.org/2000/svg">
<g clip-path="url(#clip0_1334_1831)">
<path fill-rule="evenodd" clip-rule="evenodd" d="M9.47133 4.26061C9.30561 4.40934 9.13211 4.54919 8.95158 4.67956C8.63868 4.88956 8.28693 5.03446 7.91733 5.10796C7.75668 5.13946 7.58868 5.15311 7.25373 5.17936C6.41268 5.24656 5.99163 5.28016 5.64093 5.40406C5.23983 5.54543 4.87551 5.77493 4.57479 6.07565C4.27406 6.37638 4.04456 6.7407 3.90319 7.1418C3.77929 7.4925 3.74569 7.91355 3.67849 8.7546C3.66643 8.97691 3.64259 9.19842 3.60709 9.4182C3.53359 9.7878 3.38869 10.1396 3.17869 10.4525C3.08734 10.589 2.97814 10.7171 2.75974 10.9722C2.21269 11.6148 1.93864 11.9361 1.77799 12.2721C1.40734 13.0491 1.40734 13.9521 1.77799 14.7291C1.93864 15.0651 2.21269 15.3864 2.75974 16.029C2.97814 16.2841 3.08734 16.4122 3.17869 16.5487C3.38869 16.8616 3.53359 17.2134 3.60709 17.583C3.63859 17.7436 3.65224 17.9116 3.67849 18.2466C3.74569 19.0876 3.77929 19.5087 3.90319 19.8594C4.04456 20.2605 4.27406 20.6248 4.57479 20.9255C4.87551 21.2263 5.23983 21.4558 5.64093 21.5971C5.99163 21.721 6.41268 21.7546 7.25373 21.8218C7.58868 21.8481 7.75668 21.8617 7.91733 21.8932C8.28693 21.9667 8.63868 22.1127 8.95158 22.3216C9.08808 22.413 9.21618 22.5222 9.47133 22.7406C10.1139 23.2876 10.4352 23.5617 10.7712 23.7223C11.5482 24.093 12.4512 24.093 13.2282 23.7223C13.5642 23.5617 13.8855 23.2876 14.5281 22.7406C14.7833 22.5222 14.9114 22.413 15.0479 22.3216C15.3608 22.1116 15.7125 21.9667 16.0821 21.8932C16.2428 21.8617 16.4108 21.8481 16.7457 21.8218C17.5868 21.7546 18.0078 21.721 18.3585 21.5971C18.7596 21.4558 19.1239 21.2263 19.4247 20.9255C19.7254 20.6248 19.9549 20.2605 20.0963 19.8594C20.2202 19.5087 20.2538 19.0876 20.321 18.2466C20.3472 17.9116 20.3609 17.7436 20.3924 17.583C20.4659 17.2134 20.6118 16.8616 20.8208 16.5487C20.9121 16.4122 21.0213 16.2841 21.2397 16.029C21.7868 15.3864 22.0608 15.0651 22.2215 14.7291C22.5921 13.9521 22.5921 13.0491 22.2215 12.2721C22.0608 11.9361 21.7868 11.6148 21.2397 10.9722C21.091 10.8065 20.9511 10.633 20.8208 10.4525C20.6106 10.1396 20.465 9.788 20.3924 9.4182C20.3569 9.19842 20.333 8.97691 20.321 8.7546C20.2538 7.91355 20.2202 7.4925 20.0963 7.1418C19.9549 6.7407 19.7254 6.37638 19.4247 6.07565C19.1239 5.77493 18.7596 5.54543 18.3585 5.40406C18.0078 5.28016 17.5868 5.24656 16.7457 5.17936C16.5234 5.1673 16.3019 5.14346 16.0821 5.10796C15.7123 5.03532 15.3607 4.88968 15.0479 4.67956C14.8673 4.54919 14.6939 4.40934 14.5281 4.26061C13.8855 3.71356 13.5642 3.43951 13.2282 3.27886C12.8447 3.09529 12.4249 3 11.9997 3C11.5745 3 11.1548 3.09529 10.7712 3.27886C10.4352 3.43951 10.1139 3.71356 9.47133 4.26061ZM16.0223 9.4791C16.1822 9.63934 16.272 9.85647 16.272 10.0829C16.272 10.3092 16.1822 10.5264 16.0223 10.6866L9.18573 17.5242C9.10783 17.6095 9.01347 17.678 8.90833 17.7258C8.80319 17.7736 8.68946 17.7996 8.57401 17.8022C8.45855 17.8048 8.34377 17.7839 8.23658 17.741C8.1294 17.698 8.03204 17.6337 7.95038 17.552C7.86872 17.4704 7.80445 17.373 7.76147 17.2658C7.71848 17.1587 7.69766 17.0439 7.70026 16.9284C7.70286 16.813 7.72884 16.6992 7.77661 16.5941C7.82439 16.489 7.89297 16.3946 7.97823 16.3167L14.8137 9.48015C14.974 9.32024 15.1911 9.23043 15.4175 9.23043C15.6439 9.23043 15.861 9.32024 16.0212 9.48015M15.9866 16.3503C15.9866 16.6524 15.8665 16.9422 15.6529 17.1559C15.4392 17.3695 15.1495 17.4895 14.8473 17.4895C14.5452 17.4895 14.2554 17.3695 14.0418 17.1559C13.8281 16.9422 13.7081 16.6524 13.7081 16.3503C13.7081 16.0481 13.8281 15.7584 14.0418 15.5447C14.2554 15.3311 14.5452 15.211 14.8473 15.211C15.1495 15.211 15.4392 15.3311 15.6529 15.5447C15.8665 15.7584 15.9866 16.0481 15.9866 16.3503ZM9.15108 11.7933C9.45323 11.7933 9.743 11.6733 9.95665 11.4596C10.1703 11.246 10.2903 10.9562 10.2903 10.6541C10.2903 10.3519 10.1703 10.0621 9.95665 9.84848C9.743 9.63483 9.45323 9.5148 9.15108 9.5148C8.84893 9.5148 8.55916 9.63483 8.34551 9.84848C8.13186 10.0621 8.01183 10.3519 8.01183 10.6541C8.01183 10.9562 8.13186 11.246 8.34551 11.4596C8.55916 11.6733 8.84893 11.7933 9.15108 11.7933Z" fill="#FF5460"/>
</g>
<defs>
<clipPath id="clip0_1334_1831">
<rect width="24" height="24" fill="white"/>
</clipPath>
</defs>
</svg>
