<svg width="24" height="24" viewBox="0 0 24 24" fill="none" xmlns="http://www.w3.org/2000/svg">
<mask id="mask0_1299_5042" style="mask-type:alpha" maskUnits="userSpaceOnUse" x="0" y="0" width="24" height="24">
<path d="M24 0H0V24H24V0Z" fill="#222222"/>
</mask>
<g mask="url(#mask0_1299_5042)">
<path fill-rule="evenodd" clip-rule="evenodd" d="M11.1664 6.52899C9.71088 5.0236 7.35545 5.0236 5.89992 6.52899C4.43345 8.04568 4.43342 10.5145 5.8998 12.0312C5.89977 12.0312 5.89984 12.0313 5.8998 12.0312L12.0001 18.337L18.1002 12.0313C18.1001 12.0314 18.1002 12.0313 18.1002 12.0313C19.5666 10.5146 19.5666 8.04568 18.1002 6.52899C16.6446 5.0236 14.2893 5.0236 12.8337 6.52899L12.0001 7.38913L11.1664 6.52899ZM12.0001 5.66508C13.9296 3.7017 17.0453 3.71162 18.9629 5.69487C20.8791 7.67675 20.8791 10.8836 18.9629 12.8655L12.0001 20.0629L5.03734 12.8656C3.12109 10.8837 3.12098 7.67675 5.03722 5.69487C6.95478 3.71162 10.0705 3.7017 12.0001 5.66508Z" fill="#333333"/>
</g>
</svg>
