<svg width="24" height="24" viewBox="0 0 24 24" fill="none" xmlns="http://www.w3.org/2000/svg">
<g clip-path="url(#clip0_1299_4743)">
<path d="M9.14286 2H3.42857C3.04969 2 2.68633 2.15051 2.41842 2.41842C2.15051 2.68633 2 3.04969 2 3.42857V9.14286C2 9.52174 2.15051 9.8851 2.41842 10.153C2.68633 10.4209 3.04969 10.5714 3.42857 10.5714H9.14286C9.52174 10.5714 9.8851 10.4209 10.153 10.153C10.4209 9.8851 10.5714 9.52174 10.5714 9.14286V3.42857C10.5714 3.04969 10.4209 2.68633 10.153 2.41842C9.8851 2.15051 9.52174 2 9.14286 2ZM8.76692 8.76692H3.80451V3.80451H5.7594H8.76692V8.76692ZM14.8571 17.7143C15.236 17.7143 15.5994 17.5638 15.8673 17.2959C16.1352 17.028 16.2857 16.6646 16.2857 16.2857C16.6646 16.2857 17.028 16.1352 17.2959 15.8673C17.5638 15.5994 17.7143 15.236 17.7143 14.8571C17.7143 14.4783 17.5638 14.1149 17.2959 13.847C17.028 13.5791 16.6646 13.4286 16.2857 13.4286H14.8571C14.4783 13.4286 14.1149 13.5791 13.847 13.847C13.5791 14.1149 13.4286 14.4783 13.4286 14.8571V16.2857C13.4286 16.6646 13.5791 17.028 13.847 17.2959C14.1149 17.5638 14.4783 17.7143 14.8571 17.7143ZM20.5714 13.4286C20.1926 13.4286 19.8292 13.5791 19.5613 13.847C19.2934 14.1149 19.1429 14.4783 19.1429 14.8571V19.1429C18.764 19.1429 18.4006 19.2934 18.1327 19.5613C17.8648 19.8292 17.7143 20.1925 17.7143 20.5714C17.7143 20.9503 17.8648 21.3137 18.1327 21.5816C18.4006 21.8495 18.764 22 19.1429 22H20.5714C20.9503 22 21.3137 21.8495 21.5816 21.5816C21.8495 21.3137 22 20.9503 22 20.5714V14.8571C22 14.4783 21.8495 14.1149 21.5816 13.847C21.3137 13.5791 20.9503 13.4286 20.5714 13.4286ZM14.8571 19.1429C14.5746 19.1429 14.2984 19.2266 14.0635 19.3836C13.8285 19.5406 13.6454 19.7637 13.5373 20.0247C13.4292 20.2858 13.4009 20.573 13.456 20.8501C13.5111 21.1272 13.6472 21.3818 13.847 21.5816C14.0468 21.7814 14.3013 21.9174 14.5784 21.9726C14.8556 22.0277 15.1428 21.9994 15.4038 21.8913C15.6649 21.7831 15.888 21.6 16.045 21.3651C16.2019 21.1302 16.2857 20.854 16.2857 20.5714C16.2857 20.1925 16.1352 19.8292 15.8673 19.5613C15.5994 19.2934 15.236 19.1429 14.8571 19.1429Z" fill="#E3E3E3"/>
<path fill-rule="evenodd" clip-rule="evenodd" d="M20.7218 2H15.0075C14.6286 2 14.2653 2.15051 13.9974 2.41842C13.7295 2.68633 13.5789 3.04969 13.5789 3.42857V9.14286C13.5789 9.52174 13.7295 9.8851 13.9974 10.153C14.2653 10.4209 14.6286 10.5714 15.0075 10.5714H20.7218C21.1007 10.5714 21.4641 10.4209 21.732 10.153C21.9999 9.8851 22.1504 9.52174 22.1504 9.14286V3.42857C22.1504 3.04969 21.9999 2.68633 21.732 2.41842C21.4641 2.15051 21.1007 2 20.7218 2ZM15.3835 8.76692H20.3459V3.80451H17.3383H15.3835V8.76692Z" fill="#E3E3E3"/>
<path fill-rule="evenodd" clip-rule="evenodd" d="M9.14286 13.4011H3.42858C3.0497 13.4011 2.68634 13.5516 2.41843 13.8195C2.15052 14.0875 2.00001 14.4508 2.00001 14.8297V20.544C2.00001 20.9229 2.15052 21.2862 2.41843 21.5541C2.68634 21.822 3.0497 21.9726 3.42858 21.9726H9.14286C9.52174 21.9726 9.88511 21.822 10.153 21.5541C10.4209 21.2862 10.5714 20.9229 10.5714 20.544V14.8297C10.5714 14.4508 10.4209 14.0875 10.153 13.8195C9.88511 13.5516 9.52174 13.4011 9.14286 13.4011ZM3.80452 20.168H8.76692V15.2056H5.75941H3.80452V20.168Z" fill="#E3E3E3"/>
<path d="M5.33816 5.24593V7.24593H7.33816V5.24593H5.33816Z" fill="#E3E3E3"/>
<path d="M16.868 5.38872V7.38872H18.868V5.38872H16.868Z" fill="#E3E3E3"/>
<rect x="-1" y="15" width="27" height="4" fill="#FF5460" stroke="#212733" stroke-width="2"/>
<rect x="2" y="20" width="21" height="3" fill="#212733" fill-opacity="0.5"/>
</g>
<defs>
<clipPath id="clip0_1299_4743">
<rect width="24" height="24" fill="white"/>
</clipPath>
</defs>
</svg>
