<svg width="24" height="24" viewBox="0 0 24 24" fill="none" xmlns="http://www.w3.org/2000/svg">
<g clip-path="url(#clip0_1299_4735)">
<path d="M2.06376 14.725L14.9349 2.11135M17.8129 9.20999L15.6057 11.3729M13.7216 13.1967L12.7394 14.1592" stroke="#333333" stroke-width="1.5" stroke-linecap="round"/>
<path d="M2.2925 16.5551C1.88274 16.1455 1.55769 15.6591 1.33592 15.1239C1.11415 14.5886 1 14.0149 1 13.4355C1 12.8561 1.11415 12.2824 1.33592 11.7471C1.55769 11.2119 1.88274 10.7255 2.2925 10.3159L10.3159 2.2925C10.7255 1.88274 11.2119 1.55769 11.7471 1.33592C12.2824 1.11415 12.8561 1 13.4355 1C14.0149 1 14.5886 1.11415 15.1239 1.33592C15.6591 1.55769 16.1455 1.88274 16.5551 2.2925L21.7075 7.4449C22.1173 7.85452 22.4423 8.34085 22.6641 8.87612C22.8859 9.41139 23 9.98511 23 10.5645C23 11.1439 22.8859 11.7176 22.6641 12.2529C22.4423 12.7881 22.1173 13.2745 21.7075 13.6841L13.6841 21.7075C13.2745 22.1173 12.7881 22.4423 12.2529 22.6641C11.7176 22.8859 11.1439 23 10.5645 23C9.98511 23 9.41139 22.8859 8.87612 22.6641C8.34085 22.4423 7.85452 22.1173 7.4449 21.7075L2.2925 16.5551Z" stroke="#333333" stroke-width="1.5"/>
<path d="M3 23H20" stroke="#333333" stroke-width="1.5" stroke-linecap="round"/>
</g>
<defs>
<clipPath id="clip0_1299_4735">
<rect width="24" height="24" fill="white"/>
</clipPath>
</defs>
</svg>
