<svg width="36" height="36" viewBox="0 0 36 36" fill="none" xmlns="http://www.w3.org/2000/svg">
<g clip-path="url(#clip0_1959_1636)">
<path d="M18 36C27.9411 36 36 27.9411 36 18C36 8.05888 27.9411 0 18 0C8.05888 0 0 8.05888 0 18C0 27.9411 8.05888 36 18 36Z" fill="#FFE300"/>
<path d="M23.0934 18C23.9747 17.4203 24.6456 16.5719 25.0065 15.5806C25.3673 14.5894 25.3989 13.5082 25.0965 12.4976C24.794 11.487 24.1737 10.6008 23.3277 9.97075C22.4816 9.34067 21.455 9.00024 20.4001 9H12.1804C12.1432 8.99991 12.1064 9.00715 12.072 9.02129C12.0377 9.03543 12.0064 9.0562 11.9801 9.08242C11.9537 9.10863 11.9328 9.13978 11.9185 9.17409C11.9042 9.20839 11.8968 9.24517 11.8967 9.28233V26.7157C11.8967 26.7913 11.9265 26.8639 11.9795 26.9178C12.0326 26.9717 12.1048 27.0025 12.1804 27.0037H20.4001C21.455 27.0036 22.4819 26.6634 23.3281 26.0334C24.1743 25.4034 24.7947 24.5172 25.0973 23.5066C25.3999 22.4959 25.3684 21.4146 25.0076 20.4233C24.6468 19.4319 23.9758 18.5834 23.0944 18.0037L23.0934 18ZM19.0601 22.096H17.5154V13.904H19.0591L19.0601 22.096Z" fill="#1E1E1E"/>
</g>
<defs>
<clipPath id="clip0_1959_1636">
<rect width="36" height="36" fill="white"/>
</clipPath>
</defs>
</svg>
