<svg width="36" height="36" viewBox="0 0 36 36" fill="none" xmlns="http://www.w3.org/2000/svg">
<path d="M17.1844 0.0189781C7.25401 0.466647 -0.433354 8.88001 0.0189811 18.8124C0.471316 28.7448 8.88268 36.4281 18.8144 35.9815C28.7461 35.5348 36.4321 27.1148 35.9811 17.185C35.5301 7.25534 27.1181 -0.433357 17.1844 0.0189781Z" fill="#140064"/>
<path d="M10.5256 14.8854H9.00792L6.61157 17.6754V14.8854H5.3999V20.9724H6.61157V18.1751L9.08725 20.9724H10.6049L7.91125 17.9291L10.5256 14.8854Z" fill="white"/>
<path d="M30.5998 20.9724L28.7795 18.8671L30.5451 16.7617H29.2388L27.6995 18.5834V14.8854H26.4878V20.9724H27.6995V19.1457L29.2678 20.9724H30.5998Z" fill="white"/>
<path d="M13.5078 16.6134C12.9988 16.6134 12.5638 16.8294 12.2061 17.1341V14.8854H10.9951V18.8944C10.9951 20.1011 11.7935 21.1114 13.2951 21.1114C14.6458 21.1114 15.5991 20.1781 15.5991 18.8714C15.5958 17.6334 14.7785 16.6134 13.5078 16.6134ZM13.2918 20.0134C12.9918 20.0135 12.7036 19.8966 12.4884 19.6875C12.2733 19.4784 12.1482 19.1936 12.1398 18.8937V18.8604C12.1398 18.6325 12.2074 18.4098 12.3339 18.2204C12.4605 18.0309 12.6404 17.8833 12.8509 17.7961C13.0614 17.7089 13.2931 17.6861 13.5165 17.7305C13.74 17.775 13.9453 17.8847 14.1064 18.0458C14.2675 18.2069 14.3772 18.4122 14.4217 18.6356C14.4661 18.8591 14.4433 19.0907 14.3561 19.3012C14.2689 19.5117 14.1213 19.6917 13.9318 19.8182C13.7424 19.9448 13.5196 20.0124 13.2918 20.0124V20.0134Z" fill="white"/>
<path d="M24.1602 16.6134C23.6435 16.6071 23.1437 16.7978 22.7625 17.1468V16.7468H21.5515V20.9744H22.7625V18.6038C22.7703 18.3721 22.8678 18.1524 23.0344 17.9913C23.2011 17.8301 23.4238 17.74 23.6557 17.74C23.8875 17.74 24.1103 17.8301 24.277 17.9913C24.4436 18.1524 24.5411 18.3721 24.5489 18.6038V20.9744H25.7685V18.2164C25.7655 17.7913 25.595 17.3845 25.2938 17.0844C24.9927 16.7842 24.5853 16.615 24.1602 16.6134Z" fill="white"/>
<path d="M18.4951 16.6171C17.1284 16.6171 16.1694 17.5531 16.1694 18.8571C16.1694 20.0941 16.9961 21.1151 18.2804 21.1151C18.5608 21.1107 18.8365 21.0432 19.0871 20.9175C19.3377 20.7918 19.5567 20.6112 19.7278 20.3891V20.9744H20.8235V18.8577H20.8135L20.8235 18.8341C20.8215 17.6274 20.0158 16.6171 18.4951 16.6171ZM18.5211 20.0084C18.2933 20.0084 18.0705 19.9408 17.8811 19.8143C17.6916 19.6877 17.544 19.5078 17.4568 19.2973C17.3696 19.0868 17.3468 18.8551 17.3912 18.6317C17.4357 18.4082 17.5454 18.2029 17.7065 18.0418C17.8676 17.8807 18.0729 17.771 18.2964 17.7265C18.5198 17.6821 18.7515 17.7049 18.962 17.7921C19.1725 17.8793 19.3524 18.0269 19.479 18.2164C19.6056 18.4058 19.6731 18.6286 19.6731 18.8564C19.6731 19.1619 19.5517 19.455 19.3357 19.671C19.1197 19.887 18.8266 20.0084 18.5211 20.0084Z" fill="white"/>
</svg>
