<svg width="36" height="36" viewBox="0 0 36 36" fill="none" xmlns="http://www.w3.org/2000/svg">
<g clip-path="url(#clip0_1959_1659)">
<path d="M18 36C27.9411 36 36 27.9411 36 18C36 8.05888 27.9411 0 18 0C8.05888 0 0 8.05888 0 18C0 27.9411 8.05888 36 18 36Z" fill="#005BAC"/>
<path d="M21.5484 9L17.9994 10.7813L14.4504 9L17.9994 15.747L21.5484 9Z" fill="#FABE00"/>
<path d="M22.7901 14.215L22.7371 14.1667L25.2668 13.104V9.54004L20.8668 11.4164C20.8668 11.4164 18.4861 15.9307 18.4308 16.0367C19.3681 16.1469 20.228 16.6112 20.8343 17.3345C21.4406 18.0578 21.7476 18.9855 21.6924 19.9278C21.6372 20.87 21.224 21.7555 20.5374 22.4031C19.8508 23.0507 18.9426 23.4114 17.9988 23.4114C17.0549 23.4114 16.1467 23.0507 15.4601 22.4031C14.7735 21.7555 14.3603 20.87 14.3051 19.9278C14.2499 18.9855 14.5569 18.0578 15.1632 17.3345C15.7695 16.6112 16.6294 16.1469 17.5668 16.0367C17.5134 15.933 15.1334 11.4164 15.1334 11.4164L10.7411 9.54004V13.104L13.2724 14.169L13.2178 14.2157C10.1844 16.86 9.86809 21.463 12.5124 24.497C15.1568 27.531 19.7601 27.8467 22.7938 25.2024C25.8274 22.558 26.1434 17.955 23.5001 14.921C23.2814 14.67 23.0458 14.4344 22.7948 14.2157L22.7901 14.215Z" fill="#FABE00"/>
</g>
<defs>
<clipPath id="clip0_1959_1659">
<rect width="36" height="36" fill="white"/>
</clipPath>
</defs>
</svg>
