<svg width="12" height="12" viewBox="0 0 12 12" fill="none" xmlns="http://www.w3.org/2000/svg">
<path d="M11.375 0H3.375C3.27554 0 3.18016 0.0395088 3.10984 0.109835C3.03951 0.180161 3 0.275544 3 0.375V3H0.375C0.275544 3 0.180161 3.03951 0.109835 3.10984C0.0395088 3.18016 0 3.27554 0 3.375V11.375C0 11.4745 0.0395088 11.5698 0.109835 11.6402C0.180161 11.7105 0.275544 11.75 0.375 11.75H8.375C8.47446 11.75 8.56984 11.7105 8.64017 11.6402C8.71049 11.5698 8.75 11.4745 8.75 11.375V8.75H11.375C11.4745 8.75 11.5698 8.71049 11.6402 8.64017C11.7105 8.56984 11.75 8.47446 11.75 8.375V0.375C11.75 0.275544 11.7105 0.180161 11.6402 0.109835C11.5698 0.0395088 11.4745 0 11.375 0ZM8 11H0.75V3.75H8V11ZM11 8H8.75V3.375C8.75 3.27554 8.71049 3.18016 8.64017 3.10984C8.56984 3.03951 8.47446 3 8.375 3H3.75V0.75H11V8Z" fill="white"/>
</svg>
