<svg width="34" height="34" viewBox="0 0 34 34" fill="none" xmlns="http://www.w3.org/2000/svg">
<g clip-path="url(#clip0_1492_4183)">
<path d="M25.2105 12.8678C25.2105 15.0172 23.5263 16.7241 21.4812 16.7241C19.4361 16.7241 17.7519 14.954 17.7519 12.8678C17.7519 10.7816 19.4361 8.94824 21.4812 8.94824C23.5263 8.94824 25.2105 10.7184 25.2105 12.8678Z" stroke="#FF5460" stroke-width="1.5" stroke-linecap="round" stroke-linejoin="round"/>
<path d="M19.0752 29.0518H28.0978V22.5403C28.0978 20.7069 26.6541 19.1897 24.9098 19.1897H18.1128C17.7519 19.1897 17.3308 19.2529 17.0301 19.3794" stroke="#2B2B2B" stroke-width="1.5" stroke-linecap="round" stroke-linejoin="round"/>
<path d="M16.9699 19.3794C16.609 19.2529 16.2481 19.1897 15.8872 19.1897H9.09022C7.34586 19.1897 5.90225 20.7069 5.90225 22.5403V29.0518H19.0752V22.5403C19.0752 21.0862 18.1729 19.8851 16.9699 19.3794Z" stroke="#2B2B2B" stroke-width="1.5" stroke-linecap="round" stroke-linejoin="round"/>
<path d="M16.188 12.8678C16.188 15.0172 14.5037 16.7241 12.4586 16.7241C10.4135 16.7241 8.72931 14.954 8.72931 12.8678C8.72931 10.7816 10.4737 8.94824 12.5188 8.94824C14.5639 8.94824 16.2481 10.7184 16.2481 12.8678H16.188Z" stroke="#2B2B2B" stroke-width="1.5" stroke-linecap="round" stroke-linejoin="round"/>
</g>
<defs>
<clipPath id="clip0_1492_4183">
<rect width="24" height="22" fill="white" transform="translate(5 8)"/>
</clipPath>
</defs>
</svg>
