<svg width="24" height="22" viewBox="0 0 24 22" fill="none" xmlns="http://www.w3.org/2000/svg">
<g clip-path="url(#clip0_1299_4799)">
<path d="M20.2105 4.86778C20.2105 7.01721 18.5263 8.72411 16.4812 8.72411C14.4361 8.72411 12.7519 6.95399 12.7519 4.86778C12.7519 2.78158 14.4361 0.948242 16.4812 0.948242C18.5263 0.948242 20.2105 2.71836 20.2105 4.86778Z" stroke="#FF5460" stroke-width="1.5" stroke-linecap="round" stroke-linejoin="round"/>
<path d="M14.0752 21.0518H23.0978V14.5403C23.0978 12.7069 21.6541 11.1897 19.9098 11.1897H13.1128C12.7519 11.1897 12.3308 11.2529 12.0301 11.3794" stroke="#2B2B2B" stroke-width="1.5" stroke-linecap="round" stroke-linejoin="round"/>
<path d="M11.97 11.3794C11.609 11.2529 11.2481 11.1897 10.8872 11.1897H4.09025C2.34589 11.1897 0.902283 12.7069 0.902283 14.5403V21.0518H14.0752V14.5403C14.0752 13.0862 13.173 11.8851 11.97 11.3794Z" stroke="#2B2B2B" stroke-width="1.5" stroke-linecap="round" stroke-linejoin="round"/>
<path d="M11.188 4.86778C11.188 7.01721 9.50374 8.72411 7.45863 8.72411C5.41352 8.72411 3.72931 6.95399 3.72931 4.86778C3.72931 2.78158 5.47367 0.948242 7.51878 0.948242C9.5639 0.948242 11.2481 2.71836 11.2481 4.86778H11.188Z" stroke="#2B2B2B" stroke-width="1.5" stroke-linecap="round" stroke-linejoin="round"/>
</g>
<defs>
<clipPath id="clip0_1299_4799">
<rect width="24" height="22" fill="white"/>
</clipPath>
</defs>
</svg>
