<svg width="86" height="86" viewBox="0 0 86 86" fill="none" xmlns="http://www.w3.org/2000/svg">
<g clip-path="url(#clip0_1317_4473)">
<mask id="mask0_1317_4473" style="mask-type:luminance" maskUnits="userSpaceOnUse" x="0" y="0" width="86" height="86">
<path d="M86 0H0V86H86V0Z" fill="white"/>
</mask>
<g mask="url(#mask0_1317_4473)">
<mask id="mask1_1317_4473" style="mask-type:luminance" maskUnits="userSpaceOnUse" x="0" y="0" width="86" height="86">
<path d="M86 0H0V86H86V0Z" fill="white"/>
</mask>
<g mask="url(#mask1_1317_4473)">
<path d="M43 12C49.1312 12 55.1248 13.8181 60.2227 17.2244C65.3206 20.6308 69.2939 25.4723 71.6403 31.1368C73.9866 36.8013 74.6005 43.0344 73.4043 49.0478C72.2082 55.0612 69.2557 60.5849 64.9203 64.9203C60.5849 69.2557 55.0612 72.2082 49.0478 73.4043C43.0344 74.6005 36.8013 73.9866 31.1368 71.6403C25.4723 69.2939 20.6308 65.3206 17.2244 60.2227C13.8181 55.1248 12 49.1312 12 43C12 34.7783 15.2661 26.8933 21.0797 21.0797C26.8933 15.2661 34.7783 12 43 12Z" fill="#D0D0D0"/>
<path d="M43 46C44.6569 46 46 44.6569 46 43C46 41.3431 44.6569 40 43 40C41.3431 40 40 41.3431 40 43C40 44.6569 41.3431 46 43 46Z" fill="white"/>
<path d="M28 46C29.6569 46 31 44.6569 31 43C31 41.3431 29.6569 40 28 40C26.3431 40 25 41.3431 25 43C25 44.6569 26.3431 46 28 46Z" fill="white"/>
<path d="M58 46C59.6569 46 61 44.6569 61 43C61 41.3431 59.6569 40 58 40C56.3431 40 55 41.3431 55 43C55 44.6569 56.3431 46 58 46Z" fill="white"/>
</g>
</g>
</g>
<defs>
<clipPath id="clip0_1317_4473">
<rect width="86" height="86" fill="white"/>
</clipPath>
</defs>
</svg>
