<svg width="38" height="38" viewBox="0 0 38 38" fill="none" xmlns="http://www.w3.org/2000/svg">
<g clip-path="url(#clip0_1509_6239)">
<mask id="mask0_1509_6239" style="mask-type:luminance" maskUnits="userSpaceOnUse" x="0" y="0" width="38" height="38">
<path d="M38 0H0V38H38V0Z" fill="white"/>
</mask>
<g mask="url(#mask0_1509_6239)">
<mask id="mask1_1509_6239" style="mask-type:luminance" maskUnits="userSpaceOnUse" x="0" y="0" width="38" height="38">
<path d="M38 0H0V38H38V0Z" fill="white"/>
</mask>
<g mask="url(#mask1_1509_6239)">
<path d="M19 5.30237C21.7092 5.30237 24.3575 6.10572 26.6101 7.61084C28.8626 9.11596 30.6183 11.2552 31.655 13.7582C32.6918 16.2611 32.963 19.0152 32.4345 21.6723C31.906 24.3294 30.6014 26.7701 28.6858 28.6858C26.7701 30.6014 24.3294 31.906 21.6723 32.4345C19.0152 32.963 16.2611 32.6918 13.7582 31.655C11.2552 30.6183 9.11596 28.8626 7.61084 26.6101C6.10572 24.3575 5.30237 21.7092 5.30237 19C5.30237 15.3672 6.74551 11.8831 9.31432 9.31432C11.8831 6.74551 15.3672 5.30237 19 5.30237Z" fill="#D0D0D0"/>
<path d="M19 20.3256C19.7321 20.3256 20.3256 19.7321 20.3256 19C20.3256 18.2679 19.7321 17.6744 19 17.6744C18.2679 17.6744 17.6744 18.2679 17.6744 19C17.6744 19.7321 18.2679 20.3256 19 20.3256Z" fill="white"/>
<path d="M12.3721 20.3256C13.1042 20.3256 13.6977 19.7321 13.6977 19C13.6977 18.2679 13.1042 17.6744 12.3721 17.6744C11.64 17.6744 11.0465 18.2679 11.0465 19C11.0465 19.7321 11.64 20.3256 12.3721 20.3256Z" fill="white"/>
<path d="M25.6279 20.3256C26.36 20.3256 26.9535 19.7321 26.9535 19C26.9535 18.2679 26.36 17.6744 25.6279 17.6744C24.8959 17.6744 24.3024 18.2679 24.3024 19C24.3024 19.7321 24.8959 20.3256 25.6279 20.3256Z" fill="white"/>
</g>
</g>
</g>
<defs>
<clipPath id="clip0_1509_6239">
<rect width="38" height="38" fill="white"/>
</clipPath>
</defs>
</svg>
