<svg width="28" height="28" viewBox="0 0 28 28" fill="none" xmlns="http://www.w3.org/2000/svg">
<path d="M12.3303 24.6605C19.1401 24.6605 24.6605 19.1401 24.6605 12.3303C24.6605 5.52045 19.1401 0 12.3303 0C5.52045 0 0 5.52045 0 12.3303C0 19.1401 5.52045 24.6605 12.3303 24.6605Z" fill="#ADB8E0"/>
<path d="M14.0309 17.2906C14.0155 17.2906 14 17.2906 13.9846 17.2906C13.5325 17.27 13.1497 16.9566 13.0367 16.5199L12.3329 13.7842L11.629 16.5199C11.516 16.9566 11.1307 17.27 10.6811 17.2906C10.2239 17.3137 9.818 17.0337 9.66644 16.6099L7.24664 9.84104C7.05655 9.30673 7.33396 8.71847 7.86827 8.52838C8.40258 8.33829 8.99087 8.61572 9.18096 9.15003L10.473 12.7643L11.3387 9.40691C11.4569 8.95223 11.8653 8.63627 12.3329 8.63627C12.8004 8.63627 13.2114 8.9548 13.327 9.40691L14.1927 12.7643L15.4848 9.15003C15.6749 8.61572 16.2631 8.33829 16.7975 8.52838C17.3318 8.71847 17.6092 9.30673 17.4191 9.84104L14.9993 16.6099C14.8529 17.0209 14.465 17.2906 14.0309 17.2906Z" fill="white"/>
<path d="M9.15263 13.1497H7.02826C6.46055 13.1497 6.00073 12.6898 6.00073 12.1221C6.00073 11.5544 6.46055 11.0946 7.02826 11.0946H9.15263C9.72034 11.0946 10.1802 11.5544 10.1802 12.1221C10.1802 12.6898 9.72034 13.1497 9.15263 13.1497Z" fill="white"/>
<path d="M17.6348 13.1497H15.5104C14.9427 13.1497 14.4829 12.6898 14.4829 12.1221C14.4829 11.5544 14.9427 11.0946 15.5104 11.0946H17.6348C18.2025 11.0946 18.6624 11.5544 18.6624 12.1221C18.6624 12.6898 18.2025 13.1497 17.6348 13.1497Z" fill="white"/>
<path d="M20.8073 28C24.3541 28 27.2294 25.1248 27.2294 21.578C27.2294 18.0312 24.3541 15.156 20.8073 15.156C17.2606 15.156 14.3853 18.0312 14.3853 21.578C14.3853 25.1248 17.2606 28 20.8073 28Z" fill="#FF0000"/>
<path d="M23.3919 22.734H18.2543C17.6866 22.734 17.2267 22.2742 17.2267 21.7065C17.2267 21.1388 17.6866 20.679 18.2543 20.679H23.3919C23.9596 20.679 24.4194 21.1388 24.4194 21.7065C24.4194 22.2742 23.9596 22.734 23.3919 22.734Z" fill="white"/>
</svg>
