<svg width="108" height="18" viewBox="0 0 108 18" fill="none" xmlns="http://www.w3.org/2000/svg">
<rect width="108" height="18" fill="white"/>
<path d="M104.647 1.52899L99.4052 11.6951V16.4294H95.2416V11.6951L90 1.52899H94.7343L97.3551 7.27781L99.9759 1.52899H104.647Z" fill="#FF5460"/>
<path d="M87.4409 13.9989H82.157L81.3539 16.4294H77L82.4318 1.52899H87.2084L92.619 16.4294H88.244L87.4409 13.9989ZM86.4052 10.8286L84.799 6.00969L83.2138 10.8286H86.4052Z" fill="#FF5460"/>
<path d="M78.2568 6.49581C78.2568 7.39758 78.0454 8.22186 77.6227 8.96865C77.2141 9.70134 76.5871 10.2931 75.7417 10.744C74.9103 11.1808 73.8888 11.3992 72.677 11.3992H70.6269V16.4294H66.4844V1.52899H72.677C73.8747 1.52899 74.8892 1.74035 75.7205 2.16305C76.566 2.58576 77.2 3.17051 77.6227 3.91729C78.0454 4.66407 78.2568 5.52358 78.2568 6.49581ZM72.2755 8.10209C73.445 8.10209 74.0297 7.56667 74.0297 6.49581C74.0297 5.41086 73.445 4.86838 72.2755 4.86838H70.6269V8.10209H72.2755Z" fill="#FF5460"/>
<path d="M59.2587 4.84725V7.27782H64.0142V10.427H59.2587V13.1112H64.6483V16.4294H55.1162V1.52899H64.6483V4.84725H59.2587Z" fill="#FF5460"/>
<path d="M52.9684 16.4294H48.8259L43.3095 8.10209V16.4294H39.167V1.52899H43.3095L48.8259 9.96201V1.52899H52.9684V16.4294Z" fill="#FF5460"/>
<path d="M29.8854 16.5774C28.4904 16.5774 27.2082 16.2533 26.0387 15.6052C24.8693 14.9429 23.9393 14.0341 23.2489 12.8787C22.5725 11.7092 22.2344 10.3918 22.2344 8.92638C22.2344 7.46099 22.5725 6.1506 23.2489 4.9952C23.9393 3.82571 24.8693 2.91689 26.0387 2.26874C27.2082 1.62058 28.4904 1.29651 29.8854 1.29651C31.2944 1.29651 32.5766 1.62058 33.732 2.26874C34.9015 2.91689 35.8244 3.82571 36.5008 4.9952C37.1771 6.1506 37.5153 7.46099 37.5153 8.92638C37.5153 10.3918 37.1771 11.7092 36.5008 12.8787C35.8244 14.0341 34.9015 14.9429 33.732 15.6052C32.5625 16.2533 31.2803 16.5774 29.8854 16.5774ZM29.8854 12.7307C30.9422 12.7307 31.7735 12.3855 32.3794 11.6951C32.9993 11.0047 33.3093 10.0818 33.3093 8.92638C33.3093 7.7428 32.9993 6.81284 32.3794 6.13651C31.7735 5.44609 30.9422 5.10088 29.8854 5.10088C28.8145 5.10088 27.9762 5.44609 27.3703 6.13651C26.7644 6.81284 26.4615 7.7428 26.4615 8.92638C26.4615 10.0959 26.7644 11.0258 27.3703 11.7163C27.9762 12.3926 28.8145 12.7307 29.8854 12.7307Z" fill="#FF5460"/>
<path d="M0 7.93561C-2.55922e-07 3.55289 3.60438 2.92106e-07 8.05061 0L8.05061 7.93561L11.1814 7.9356C13.8985 7.9356 16.1012 10.1068 16.1012 12.7851C16.1012 15.4635 13.8985 17.6347 11.1814 17.6347H8.05061C3.60438 17.6347 -2.55922e-07 14.0818 0 9.69907V7.93561Z" fill="#FF5460"/>
</svg>
