<svg width="24" height="24" viewBox="0 0 24 24" fill="none" xmlns="http://www.w3.org/2000/svg">
<g clip-path="url(#clip0_775_6674)">
<path d="M1.23355 5.92013C1.60591 3.05633 4.09234 1.00006 6.98024 1.00006C8.65933 1.00006 10.489 1.00006 12 1.00006C13.511 1.00006 15.3407 1.00006 17.0197 1.00006C19.9076 1.00006 22.394 3.0563 22.7664 5.92008C23.0253 7.91094 23.25 10.167 23.25 12C23.25 13.8331 23.0253 16.0892 22.7664 18.08C22.394 20.9438 19.9076 23.0001 17.0197 23.0001C15.3376 23.0001 13.506 23.0001 12 23.0001C10.494 23.0001 8.66237 23.0001 6.98023 23.0001C4.09233 23.0001 1.60591 20.9438 1.23355 18.08C0.974692 16.0891 0.749999 13.8331 0.75 12C0.750001 10.167 0.974693 7.91097 1.23355 5.92013Z" fill="#DAE9FF"/>
<path d="M6.85714 6.83671V8.55099M17.1429 6.83671V8.55099M12 9.40814V11.551C12 12.0057 11.8194 12.4417 11.4979 12.7632C11.1764 13.0847 10.7404 13.2653 10.2857 13.2653H9.42857M9.06171 17.6607C9.85485 18.4134 10.9066 18.833 12 18.833C13.0934 18.833 14.1451 18.4134 14.9383 17.6607M17.1669 1.59442C17.8011 1.66414 18.4309 1.73556 19.056 1.80871C19.8577 1.90264 20.6043 2.26457 21.1746 2.83584C21.745 3.4071 22.1057 4.15423 22.1983 4.95614L22.404 6.83328M17.1669 22.3613C17.8011 22.2927 18.4309 22.2213 19.056 22.147C19.8577 22.0531 20.6043 21.6911 21.1746 21.1199C21.745 20.5486 22.1057 19.8015 22.1983 18.9996L22.404 17.1224M6.85714 1.59442C6.22285 1.66414 5.59314 1.73556 4.96799 1.80871C4.1665 1.90256 3.42016 2.26424 2.84986 2.83517C2.27956 3.40609 1.91869 4.15283 1.82571 4.95442C1.75485 5.57499 1.68628 6.20071 1.62 6.83156M6.85714 22.3613C6.22285 22.2927 5.59314 22.2213 4.96799 22.147C4.16624 22.0531 3.41971 21.6911 2.84937 21.1199C2.27904 20.5486 1.91833 19.8015 1.82571 18.9996C1.75485 18.3801 1.68628 17.7544 1.62 17.1224" stroke="#089FFD" stroke-width="1.71429" stroke-linecap="round" stroke-linejoin="round"/>
</g>
<defs>
<clipPath id="clip0_775_6674">
<rect width="24" height="24" fill="white"/>
</clipPath>
</defs>
</svg>
