<svg width="24" height="24" viewBox="0 0 24 24" fill="none" xmlns="http://www.w3.org/2000/svg">
<g clip-path="url(#clip0_601_6534)">
<path d="M6.8572 6.83662V8.5509M17.1429 6.83662V8.5509M12.0001 9.40804V11.5509C12.0001 12.0056 11.8194 12.4416 11.498 12.7631C11.1765 13.0846 10.7404 13.2652 10.2858 13.2652H9.42863M9.06177 17.6606C9.85491 18.4133 10.9066 18.8329 12.0001 18.8329C13.0935 18.8329 14.1452 18.4133 14.9383 17.6606M17.1669 1.59433C17.8012 1.66404 18.4309 1.73547 19.0561 1.80862C19.8578 1.90255 20.6043 2.26448 21.1747 2.83574C21.745 3.40701 22.1057 4.15414 22.1983 4.95604L22.4041 6.83319M17.1669 22.3612C17.8012 22.2926 18.4309 22.2212 19.0561 22.1469C19.8578 22.053 20.6043 21.691 21.1747 21.1198C21.745 20.5485 22.1057 19.8014 22.1983 18.9995L22.4041 17.1223M6.8572 1.59433C6.22291 1.66404 5.5932 1.73547 4.96806 1.80862C4.16656 1.90247 3.42022 2.26415 2.84992 2.83508C2.27962 3.406 1.91875 4.15273 1.82577 4.95433C1.75491 5.5749 1.68634 6.20062 1.62006 6.83147M6.8572 22.3612C6.22291 22.2926 5.5932 22.2212 4.96806 22.1469C4.1663 22.053 3.41977 21.691 2.84943 21.1198C2.2791 20.5485 1.91839 19.8014 1.82577 18.9995C1.75491 18.38 1.68634 17.7543 1.62006 17.1223" stroke="#333333" stroke-width="1.5" stroke-linecap="round" stroke-linejoin="round"/>
</g>
<defs>
<clipPath id="clip0_601_6534">
<rect width="24" height="24" fill="white"/>
</clipPath>
</defs>
</svg>
