<svg width="24" height="24" viewBox="0 0 24 24" fill="none" xmlns="http://www.w3.org/2000/svg">
<circle cx="11.4" cy="10.2" r="9" fill="#FFF2D0"/>
<path d="M4.50303 21C3.50786 18.8008 2.99536 16.4139 3.00003 14V11C3.00003 8.61305 3.94824 6.32387 5.63607 4.63604C7.3239 2.94821 9.61308 2 12 2C14.387 2 16.6762 2.94821 18.364 4.63604C20.0518 6.32387 21 8.61305 21 11V13M9.64203 21C8.24212 18.9343 7.4958 16.4954 7.50003 14V11C7.50003 9.80653 7.97414 8.66193 8.81805 7.81802C9.66197 6.97411 10.8066 6.5 12 6.5C13.1935 6.5 14.3381 6.97411 15.182 7.81802C16.0259 8.66193 16.5 9.80653 16.5 11V14C16.5 14.9283 16.8688 15.8185 17.5252 16.4749C18.1815 17.1313 19.0718 17.5 20 17.5H21M12 11V14C11.9997 15.4287 12.3821 16.8315 13.1073 18.0625C13.8325 19.2935 14.8742 20.3078 16.124 21" stroke="#FFB930" stroke-width="1.6" stroke-linecap="square"/>
</svg>
