<svg width="24" height="24" viewBox="0 0 24 24" fill="none" xmlns="http://www.w3.org/2000/svg">
<path d="M4.50297 21C3.5078 18.8008 2.9953 16.4139 2.99997 14V11C2.99997 8.61305 3.94818 6.32387 5.63601 4.63604C7.32384 2.94821 9.61302 2 12 2C14.3869 2 16.6761 2.94821 18.3639 4.63604C20.0518 6.32387 21 8.61305 21 11V13M9.64197 21C8.24206 18.9343 7.49574 16.4954 7.49997 14V11C7.49997 9.80653 7.97408 8.66193 8.81799 7.81802C9.6619 6.97411 10.8065 6.5 12 6.5C13.1934 6.5 14.338 6.97411 15.182 7.81802C16.0259 8.66193 16.5 9.80653 16.5 11V14C16.5 14.9283 16.8687 15.8185 17.5251 16.4749C18.1815 17.1313 19.0717 17.5 20 17.5H21M12 11V14C11.9997 15.4287 12.382 16.8315 13.1072 18.0625C13.8325 19.2935 14.8741 20.3078 16.124 21" stroke="#333333" stroke-width="1.4" stroke-linecap="square"/>
</svg>
