<svg width="24" height="24" viewBox="0 0 24 24" fill="none" xmlns="http://www.w3.org/2000/svg">
<mask id="mask0_1703_2207" style="mask-type:alpha" maskUnits="userSpaceOnUse" x="0" y="0" width="24" height="24">
<path d="M24 0H0V24H24V0Z" fill="#222222"/>
</mask>
<g mask="url(#mask0_1703_2207)">
<path d="M12 19.8C16.3078 19.8 19.8 16.3078 19.8 12C19.8 7.69213 16.3078 4.19995 12 4.19995C7.69213 4.19995 4.19995 7.69213 4.19995 12C4.19995 16.3078 7.69213 19.8 12 19.8Z" fill="#454545"/>
<path d="M12 9.075C12.5385 9.075 12.975 8.63848 12.975 8.1C12.975 7.56152 12.5385 7.125 12 7.125C11.4615 7.125 11.025 7.56152 11.025 8.1C11.025 8.63848 11.4615 9.075 12 9.075Z" fill="white"/>
<path d="M12.78 10.635H11.22V16.875H12.78V10.635Z" fill="white"/>
</g>
</svg>
