<svg width="28" height="28" viewBox="0 0 28 28" fill="none" xmlns="http://www.w3.org/2000/svg">
<path d="M13.3656 0.0147607C5.64201 0.362947 -0.337053 6.90668 0.0147631 14.6319C0.366579 22.357 6.90875 28.333 14.6334 27.9856C22.3581 27.6382 28.3361 21.0893 27.9853 13.3661C27.6345 5.64304 21.0918 -0.337055 13.3656 0.0147607Z" fill="#7CB8EE"/>
<path d="M22.4002 14.0006C22.4002 18.6414 18.6393 22.4007 14.0001 22.4007C9.36093 22.4007 5.6001 18.6414 5.6001 14.0006C5.6001 9.35986 9.36093 5.60059 14.0001 5.60059C18.6393 5.60059 22.4002 9.36142 22.4002 14.0006Z" fill="white"/>
<path d="M14.0002 21.9784C18.4229 21.9784 22.0083 18.3931 22.0083 13.9704C22.0083 9.54768 18.4229 5.96289 14.0002 5.96289C9.5775 5.96289 5.99219 9.54768 5.99219 13.9704C5.99219 18.3931 9.5775 21.9784 14.0002 21.9784Z" fill="#007BC6"/>
<mask id="mask0_1612_2434" style="mask-type:luminance" maskUnits="userSpaceOnUse" x="5" y="5" width="18" height="17">
<path d="M14.0002 21.979C18.4229 21.979 22.0083 18.3936 22.0083 13.9709C22.0083 9.54821 18.4229 5.96289 14.0002 5.96289C9.57751 5.96289 5.99219 9.54821 5.99219 13.9709C5.99219 18.3936 9.57751 21.979 14.0002 21.979Z" fill="white"/>
</mask>
<g mask="url(#mask0_1612_2434)">
<path d="M14.0332 17.8346C17.5506 17.8346 20.565 18.8156 21.8585 20.2089C22.3032 19.1864 22.5319 18.0831 22.5305 16.9681C22.5305 12.3727 18.7225 8.6521 14.0332 8.6521C9.344 8.6521 5.53443 12.3722 5.53443 16.9684C5.53342 18.0833 5.76217 19.1865 6.20643 20.2091C7.49729 18.8164 10.514 17.8346 14.0332 17.8346Z" fill="#007BC6"/>
<path d="M14.0327 17.8427C17.5402 17.8427 20.5518 18.8162 21.8398 20.198C22.2835 19.1844 22.5124 18.0897 22.5118 16.9832C22.5118 12.4241 18.715 8.72266 14.0369 8.72266C9.35877 8.72266 5.55542 12.4246 5.55542 16.9842C5.55425 18.0908 5.78309 19.1856 6.22743 20.1991C7.51154 18.8162 10.5229 17.8427 14.0327 17.8427Z" fill="#007DC7"/>
<path d="M14.0307 17.8505C17.5307 17.8505 20.5306 18.8181 21.8148 20.188C22.2565 19.183 22.4841 18.0969 22.4829 16.9991C22.4829 12.4763 18.6956 8.79272 14.0268 8.79272C9.35808 8.79272 5.57081 12.4771 5.57081 17.0004C5.56909 18.0987 5.79803 19.1851 6.24281 20.1893C7.52745 18.816 10.5302 17.8505 14.0307 17.8505Z" fill="#007FC9"/>
<path d="M14.0289 17.8599C17.5201 17.8599 20.5133 18.8191 21.794 20.1771C22.236 19.1813 22.4632 18.1036 22.4609 17.0142C22.4609 12.529 18.6837 8.86328 14.0289 8.86328C9.37417 8.86328 5.59986 12.5305 5.59986 17.0165C5.5983 18.105 5.82511 19.1818 6.26564 20.1771C7.54431 18.8165 10.539 17.8599 14.0289 17.8599Z" fill="#0080CA"/>
<path d="M14.0289 17.8689C17.511 17.8689 20.4959 18.8209 21.7732 20.1677C22.2139 19.1807 22.4406 18.1116 22.4385 17.0307C22.4385 12.5831 18.6714 8.93579 14.0289 8.93579C9.38629 8.93579 5.61768 12.5841 5.61768 17.0335C5.61647 18.1144 5.84334 19.1834 6.28346 20.1706C7.5598 18.8165 10.5467 17.8689 14.0289 17.8689Z" fill="#0081CB"/>
<path d="M14.0286 17.8776C17.5006 17.8776 20.4777 18.819 21.7523 20.1591C22.1908 19.1806 22.417 18.1203 22.416 17.048C22.416 12.6369 18.6582 9.00806 14.0286 9.00806C9.39902 9.00806 5.63819 12.6377 5.63819 17.0503C5.63719 18.1226 5.86358 19.183 6.30241 20.1614C7.5746 18.819 10.5551 17.8776 14.0286 17.8776Z" fill="#0083CC"/>
<path d="M14.0273 17.8868C17.4897 17.8868 20.46 18.8219 21.7307 20.1481C22.1689 19.1787 22.3946 18.1267 22.3926 17.0629C22.3926 12.6886 18.6463 9.07764 14.0273 9.07764C9.40829 9.07764 5.66016 12.6886 5.66016 17.0629C5.65863 18.1266 5.88429 19.1785 6.32206 20.1481C7.59062 18.8225 10.563 17.8868 14.0273 17.8868Z" fill="#0085CE"/>
<path d="M14.0257 17.8965C17.4803 17.8965 20.4434 18.8215 21.7101 20.1365C22.147 19.1769 22.3722 18.1344 22.3705 17.08C22.3702 12.7426 18.6327 9.15161 14.0257 9.15161C9.4186 9.15161 5.68214 12.7426 5.68214 17.08C5.68009 18.1345 5.90485 19.1771 6.34118 20.137C7.60611 18.822 10.5692 17.8965 14.0257 17.8965Z" fill="#0087CF"/>
<path d="M14.0239 17.9042C17.4703 17.9042 20.4253 18.8215 21.6897 20.1274C22.1246 19.1753 22.349 18.1407 22.3477 17.094C22.3477 12.7932 18.6193 9.21875 14.0239 9.21875C9.42853 9.21875 5.70167 12.7932 5.70167 17.0946C5.70039 18.1412 5.92482 19.1758 6.35967 20.1279C7.62201 18.822 10.5776 17.9042 14.0239 17.9042Z" fill="#0089D1"/>
<path d="M14.0221 17.9147C17.4588 17.9147 20.4061 18.8237 21.6679 20.1184C22.1023 19.1754 22.3266 18.1493 22.3254 17.111C22.3254 12.8472 18.6048 9.29224 14.0221 9.29224C9.4394 9.29224 5.72291 12.8464 5.72291 17.111C5.72168 18.1489 5.94482 19.1748 6.37702 20.1184C7.63884 18.8234 10.5838 17.9147 14.0221 17.9147Z" fill="#008BD2"/>
<path d="M14.0219 17.923C17.4509 17.923 20.3885 18.8237 21.6465 20.107C22.08 19.1736 22.304 18.1566 22.3027 17.1274C22.3027 12.9014 18.5952 9.36304 14.0219 9.36304C9.44853 9.36304 5.74292 12.8999 5.74292 17.1268C5.74234 18.1551 5.96573 19.1712 6.39755 20.1044C7.65471 18.8237 10.5937 17.923 14.0219 17.923Z" fill="#008DD3"/>
<path d="M14.0221 17.9322C17.4382 17.9322 20.3709 18.8282 21.6255 20.097C22.057 19.1715 22.2796 18.1625 22.2778 17.1414C22.2778 12.9515 18.5817 9.43311 14.0221 9.43311C9.46253 9.43311 5.76392 12.952 5.76392 17.143C5.76257 18.1635 5.98505 19.1718 6.4157 20.097C7.67182 18.8253 10.6017 17.9322 14.0221 17.9322Z" fill="#008FD5"/>
<path d="M14.0209 17.9412C17.4302 17.9412 20.3528 18.8261 21.6045 20.0871C22.0358 19.1708 22.2583 18.1702 22.2558 17.1575C22.2558 13.0049 18.5681 9.50488 14.0237 9.50488C9.47943 9.50488 5.78394 13.0049 5.78394 17.1585C5.78363 18.1703 6.00598 19.1698 6.4352 20.0861C7.68509 18.8255 10.6101 17.9412 14.0209 17.9412Z" fill="#0091D6"/>
<path d="M14.0195 17.9502C17.4202 17.9502 20.3369 18.8255 21.5834 20.0783C22.0126 19.17 22.234 18.1775 22.2315 17.173C22.2315 13.057 18.5534 9.57666 14.0192 9.57666C9.485 9.57666 5.80714 13.057 5.80714 17.173C5.80573 18.1769 6.0271 19.1687 6.45529 20.0767C7.70129 18.8255 10.618 17.9502 14.0195 17.9502Z" fill="#0093D7"/>
<path d="M14.0195 17.9581C17.4086 17.9581 20.3196 18.8279 21.564 20.0648C21.9911 19.1663 22.212 18.1837 22.2106 17.1889C22.2106 13.1107 18.5421 9.64673 14.0195 9.64673C9.497 9.64673 5.82691 13.1107 5.82691 17.1912C5.82574 18.1857 6.0472 19.1679 6.47506 20.0656C7.71614 18.8279 10.6258 17.9581 14.0195 17.9581Z" fill="#0095D8"/>
<path d="M14.0172 17.9668C17.3995 17.9668 20.3014 18.8275 21.5402 20.0557C21.9676 19.1658 22.1892 18.191 22.1883 17.2038C22.1883 13.1611 18.5284 9.71558 14.018 9.71558C9.50766 9.71558 5.84742 13.1604 5.84742 17.2051C5.84578 18.192 6.06606 19.1667 6.49194 20.0569C7.73224 18.8281 10.6341 17.9668 14.0172 17.9668Z" fill="#0098DA"/>
<path d="M14.0167 17.9765C17.3889 17.9765 20.2843 18.8287 21.5207 20.0444C21.9455 19.1639 22.1654 18.1987 22.1642 17.221C22.1642 13.2152 18.5146 9.78857 14.0167 9.78857C9.51878 9.78857 5.86865 13.2165 5.86865 17.2216C5.86846 18.199 6.08793 19.164 6.51084 20.0452C7.74855 18.8292 10.6427 17.9765 14.0167 17.9765Z" fill="#009ADB"/>
<path d="M14.0147 17.9859C17.3799 17.9859 20.265 18.8311 21.4993 20.0356C21.9237 19.1633 22.1438 18.2057 22.1428 17.2356C22.1428 13.2674 18.5028 9.85913 14.0147 9.85913C9.52666 9.85913 5.88794 13.2679 5.88794 17.2377C5.88789 18.2076 6.10754 19.1648 6.53039 20.0377C7.76395 18.8311 10.6493 17.9859 14.0147 17.9859Z" fill="#009CDD"/>
<path d="M14.0147 17.9947C17.368 17.9947 20.2486 18.8308 21.4767 20.0252C21.9003 19.1618 22.1203 18.2128 22.1197 17.2511C22.1197 13.3213 18.49 9.93091 14.0152 9.93091C9.54038 9.93091 5.90918 13.3215 5.90918 17.2514C5.90931 18.2129 6.12904 19.1618 6.55163 20.0255C7.77871 18.8308 10.6565 17.9947 14.0147 17.9947Z" fill="#009FDE"/>
<path d="M14.0124 18.0034C17.3584 18.0034 20.2284 18.833 21.4552 20.0145C21.8769 19.1612 22.0962 18.2222 22.0964 17.2705C22.0964 13.3766 18.475 10.0039 14.0124 10.0039C9.54974 10.0039 5.92969 13.3743 5.92969 17.2694C5.92863 18.2214 6.14714 19.1609 6.56825 20.0147C7.79299 18.8322 10.6651 18.0034 14.0124 18.0034Z" fill="#00A1DF"/>
<path d="M14.0126 18.0123C17.349 18.0123 20.2128 18.8321 21.4347 20.0037C21.8554 19.1587 22.0744 18.2277 22.0743 17.2838C22.0743 13.426 18.4646 10.0732 14.0113 10.0732C9.558 10.0732 5.95117 13.426 5.95117 17.2838C5.95066 18.2273 6.16822 19.1582 6.58688 20.0037C7.81111 18.8321 10.6726 18.0123 14.0126 18.0123Z" fill="#00A3E1"/>
<path d="M14.0108 18.0215C17.3395 18.0215 20.1944 18.8335 21.4153 19.9945C21.8322 19.1575 22.0495 18.2353 22.0502 17.3002C22.0502 13.4795 18.4517 10.1428 14.0108 10.1428C9.56994 10.1428 5.97192 13.4795 5.97192 17.3002C5.97185 18.2348 6.18951 19.1565 6.60763 19.9924C7.82564 18.8335 10.6811 18.0215 14.0108 18.0215Z" fill="#00A5E2"/>
<path d="M14.0109 18.0319C17.3294 18.0319 20.1766 18.8372 21.3923 19.9862C21.8102 19.159 22.028 18.2451 22.028 17.3182C22.028 13.533 18.4383 10.2168 14.0109 10.2168C9.58349 10.2168 5.9917 13.533 5.9917 17.3156C5.99177 18.2418 6.20783 19.1553 6.62274 19.9834C7.83971 18.8343 10.689 18.0319 14.0109 18.0319Z" fill="#00A7E3"/>
<path d="M14.0092 18.0396C17.3187 18.0396 20.1586 18.8348 21.3722 19.975C21.7892 19.1559 22.0062 18.2497 22.0056 17.3306C22.0056 13.5848 18.426 10.2852 14.0105 10.2852C9.59505 10.2852 6.01441 13.5853 6.01441 17.3324C6.01371 18.2504 6.22927 19.1558 6.64363 19.975C7.85801 18.8348 10.6956 18.0396 14.0092 18.0396Z" fill="#00AAE4"/>
<path d="M14.0075 18.0474C17.3076 18.0474 20.1408 18.8363 21.3502 19.9643C21.7654 19.1545 21.9817 18.2574 21.9813 17.3474C21.9813 13.6379 18.412 10.3569 14.0075 10.3569C9.6029 10.3569 6.03418 13.6371 6.03418 17.3474C6.0339 18.2571 6.24927 19.1539 6.66263 19.9643C7.87208 18.8363 10.7053 18.0474 14.0075 18.0474Z" fill="#00ACE6"/>
<path d="M14.0072 18.0578C17.2998 18.0578 20.1242 18.8355 21.3293 19.9532C21.7431 19.1524 21.959 18.2641 21.9587 17.3627C21.9587 13.6887 18.3994 10.4277 14.0067 10.4277C9.61407 10.4277 6.05469 13.6887 6.05469 17.3627C6.05463 18.264 6.2701 19.1522 6.68313 19.9532C7.88818 18.8361 10.7139 18.0578 14.0072 18.0578Z" fill="#00AFE7"/>
<path d="M14.0054 18.0658C17.2892 18.0658 20.1053 18.8381 21.3083 19.9436C21.7207 19.1517 21.9362 18.2721 21.9367 17.3792C21.9367 13.7426 18.3848 10.4995 14.0054 10.4995C9.62599 10.4995 6.07568 13.7426 6.07568 17.3792C6.0764 18.2717 6.29073 19.1509 6.70076 19.9436C7.90295 18.8381 10.7214 18.0658 14.0054 18.0658Z" fill="#00B1E9"/>
<path d="M14.0046 18.0747C17.2773 18.0747 20.0874 18.8385 21.2847 19.9334C21.6957 19.1495 21.9107 18.2777 21.9113 17.3926C21.9113 13.7946 18.3688 10.5684 14.002 10.5684C9.63531 10.5684 6.09693 13.7956 6.09693 17.3936C6.09596 18.279 6.30946 19.1514 6.71915 19.9362C7.91927 18.8385 10.7304 18.0747 14.0046 18.0747Z" fill="#10B4EA"/>
<path d="M14.0046 18.0835C17.2684 18.0835 20.0713 18.84 21.2662 19.9227C21.6759 19.1484 21.8903 18.2859 21.8908 17.4099C21.8908 13.8482 18.3594 10.6406 14.0046 10.6406C9.64981 10.6406 6.11816 13.8482 6.11816 17.4099C6.11808 18.2856 6.33167 19.1482 6.74039 19.9227C7.93532 18.84 10.7377 18.0835 14.0046 18.0835Z" fill="#18B6EC"/>
<path d="M14.0026 18.0928C17.2584 18.0928 20.0545 18.8403 21.245 19.9123C21.6528 19.1471 21.8665 18.2934 21.8673 17.4263C21.8673 13.8983 18.347 10.7114 14.0021 10.7114C9.65714 10.7114 6.13794 13.9003 6.13794 17.4263C6.13909 18.2929 6.35226 19.146 6.75887 19.9113C7.95172 18.8403 10.7468 18.0928 14.0026 18.0928Z" fill="#24B9ED"/>
<path d="M13.9997 18.1019C17.2477 18.1019 20.0348 18.8418 21.2237 19.9035C21.6314 19.1473 21.8452 18.3019 21.846 17.4428C21.846 13.9534 18.3345 10.7832 14.0013 10.7832C9.66798 10.7832 6.15967 13.9534 6.15967 17.4428C6.15939 18.3012 6.37098 19.1464 6.77567 19.9035C7.96671 18.8418 10.7517 18.1019 13.9997 18.1019Z" fill="#2DBBEE"/>
<path d="M13.9995 18.1102C17.2369 18.1102 20.018 18.8415 21.2028 19.8921C21.6071 19.1446 21.8188 18.3082 21.8188 17.4584C21.8188 14.0063 18.3172 10.8542 13.9972 10.8542C9.67711 10.8542 6.17969 14.0063 6.17969 17.4584C6.18005 18.3081 6.39174 19.1445 6.79569 19.8921C7.98284 18.8415 10.7626 18.1102 13.9995 18.1102Z" fill="#36BDEF"/>
<path d="M13.9996 18.1304C17.2336 18.1304 20.0095 18.8584 21.1923 19.9009C21.5972 19.159 21.8091 18.3271 21.8083 17.4818C21.8101 14.052 18.315 10.9204 13.9996 10.9204C9.68422 10.9204 6.19043 14.052 6.19043 17.4818C6.19148 18.3268 6.4032 19.1583 6.80643 19.9009C7.99125 18.8584 10.7656 18.1304 13.9996 18.1304Z" fill="#43BFEF"/>
<path d="M13.9998 18.1508C17.2281 18.1508 20.0019 18.8742 21.1833 19.9112C21.5865 19.1744 21.7983 18.3482 21.7993 17.5084C21.7993 14.1012 18.3118 10.9849 13.9998 10.9849C9.68773 10.9849 6.20068 14.1004 6.20068 17.5076C6.20161 18.3477 6.41342 19.1742 6.81669 19.9112C7.99943 18.8723 10.7701 18.1508 13.9998 18.1508Z" fill="#50C1F0"/>
<path d="M13.9996 18.1709C17.2235 18.1709 19.9916 18.8893 21.1734 19.9188C21.577 19.1878 21.7889 18.3664 21.7894 17.5313C21.7894 14.1467 18.3049 11.0498 14.0007 11.0498C9.69642 11.0498 6.21118 14.1472 6.21118 17.5313C6.21297 18.3662 6.42481 19.1873 6.82718 19.9188C8.0076 18.8893 10.7734 18.1709 13.9996 18.1709Z" fill="#5AC3F0"/>
<path d="M13.9995 18.1926C17.219 18.1926 19.9837 18.9045 21.1631 19.9296C21.5659 19.2041 21.7779 18.3881 21.7791 17.5582C21.7791 14.1982 18.297 11.1182 14 11.1182C9.703 11.1182 6.22217 14.1982 6.22217 17.5582C6.22419 18.388 6.4361 19.2038 6.83817 19.9296C8.01521 18.9045 10.7784 18.1926 13.9995 18.1926Z" fill="#65C6F1"/>
<path d="M13.9996 18.2121C17.2144 18.2121 19.9776 18.9204 21.1552 19.9359C21.5573 19.2158 21.7693 18.4052 21.7712 17.5805C21.7712 14.241 18.2943 11.1807 14.0035 11.1807C9.71275 11.1807 6.23633 14.2399 6.23633 17.5805C6.23555 18.4047 6.44469 19.2156 6.84404 19.9367C8.02315 18.9204 10.7848 18.2121 13.9996 18.2121Z" fill="#6DC8F2"/>
<path d="M13.9997 18.2316C17.2102 18.2316 19.9671 18.9373 21.1437 19.9447C21.5457 19.2306 21.7578 18.4252 21.7597 17.6057C21.7597 14.2892 18.2877 11.2468 14.0013 11.2468C9.71495 11.2468 6.24268 14.2892 6.24268 17.6057C6.24403 18.4247 6.45445 19.2298 6.85401 19.9447C8.03183 18.9373 10.788 18.2316 13.9997 18.2316Z" fill="#74CAF2"/>
<path d="M13.9997 18.2519C17.2057 18.2519 19.9593 18.9519 21.133 19.9537C21.5332 19.245 21.7443 18.4453 21.7462 17.6315C21.7467 14.337 18.2793 11.3123 13.9997 11.3123C9.72011 11.3123 6.25146 14.337 6.25146 17.6297C6.25305 18.4438 6.46344 19.244 6.86254 19.9537C8.03958 18.9519 10.7932 18.2519 13.9997 18.2519Z" fill="#7DCCF3"/>
<path d="M13.9995 18.2731C17.2011 18.2731 19.9511 18.9671 21.1227 19.9627C21.5239 19.2597 21.7361 18.4647 21.7387 17.6553C21.7387 14.3821 18.2745 11.3755 14.0011 11.3755C9.72768 11.3755 6.26318 14.3824 6.26318 17.6553C6.26442 18.4642 6.47484 19.2591 6.874 19.9627C8.04793 18.9671 10.7958 18.2731 13.9995 18.2731Z" fill="#83CFF3"/>
<path d="M13.9995 18.2939C17.1977 18.2939 19.9433 18.9846 21.1149 19.9711C21.5142 19.2734 21.7253 18.484 21.7275 17.6802C21.7275 14.4322 18.2695 11.4417 13.9995 11.4417C9.7295 11.4417 6.27148 14.4304 6.27148 17.6797C6.27356 18.4837 6.48362 19.2735 6.88126 19.9724C8.05571 18.9846 10.8002 18.2957 13.9995 18.2939Z" fill="#8AD1F4"/>
<path d="M13.9996 18.3123C17.1916 18.3123 19.9367 18.9975 21.1034 19.9788C21.5006 19.2861 21.7107 18.502 21.7131 17.7035C21.7131 14.4749 18.2603 11.5054 13.9986 11.5054C9.73687 11.5054 6.28223 14.4734 6.28223 17.7017C6.2848 18.5005 6.49435 19.2851 6.89045 19.9788C8.06257 18.9993 10.8037 18.3123 13.9996 18.3123Z" fill="#91D3F4"/>
<path d="M13.9997 18.3346C17.1886 18.3346 19.9266 19.0143 21.0943 19.9881C21.4912 19.3012 21.7016 18.5225 21.7046 17.7292C21.7046 14.5247 18.2552 11.572 13.9997 11.572C9.74418 11.572 6.29395 14.5247 6.29395 17.7287C6.29596 18.5221 6.50507 19.3012 6.90061 19.9889C8.06988 19.0143 10.8077 18.3346 13.9997 18.3346Z" fill="#98D5F5"/>
<path d="M13.9995 18.3557C17.1832 18.3557 19.9171 19.0321 21.084 19.9991C21.4813 19.3174 21.6915 18.5428 21.6933 17.7537C21.6933 14.5705 18.2482 11.637 13.9995 11.637C9.75072 11.637 6.30566 14.5705 6.30566 17.7524C6.30736 18.5406 6.51612 19.3146 6.91104 19.9968C8.07797 19.0298 10.8137 18.3557 13.9995 18.3557Z" fill="#9FD8F6"/>
<path d="M13.9997 18.3749C17.18 18.3749 19.9092 19.0469 21.0746 20.0064C21.4705 19.3305 21.6805 18.5619 21.6834 17.7786C21.6834 14.6156 18.2422 11.7043 13.9997 11.7043C9.75713 11.7043 6.31519 14.6202 6.31519 17.778C6.317 18.5616 6.52584 19.3308 6.92056 20.0077C8.08671 19.0469 10.8183 18.3761 13.9997 18.3749Z" fill="#A5DAF6"/>
<path d="M13.9999 18.3955C17.1751 18.3955 19.903 19.0621 21.065 20.0162C21.4599 19.3453 21.6694 18.5816 21.6719 17.8031C21.6719 14.6661 18.237 11.7681 13.9999 11.7681C9.76282 11.7681 6.32788 14.6661 6.32788 17.8021C6.33038 18.5807 6.53927 19.3446 6.93325 20.0162C8.0963 19.0621 10.8242 18.3968 13.9999 18.3955Z" fill="#AADCF7"/>
<path d="M13.9997 18.4149C17.1705 18.4149 19.8927 19.0773 21.0557 20.0239C21.4493 19.3588 21.6582 18.6008 21.6611 17.828C21.6611 14.7117 18.2301 11.8359 13.9997 11.8359C9.76935 11.8359 6.33545 14.7161 6.33545 17.828C6.33956 18.6013 6.54949 19.3596 6.94367 20.0249C8.10231 19.0773 10.8274 18.4165 13.9997 18.4149Z" fill="#B1DFF7"/>
<path d="M13.9996 18.4365C17.167 18.4365 19.8848 19.0934 21.0455 20.033C21.4393 19.3736 21.6484 18.6204 21.6509 17.8524C21.6509 14.7583 18.2255 11.8984 13.9996 11.8984C9.77363 11.8984 6.34595 14.7612 6.34595 17.8508C6.34908 18.6196 6.55754 19.3736 6.94976 20.0348C8.11229 19.0963 10.8317 18.437 13.9996 18.4365Z" fill="#B6E1F8"/>
<path d="M13.9996 18.4568C17.1608 18.4568 19.8796 19.1085 21.0359 20.0421C21.4286 19.3882 21.6375 18.6404 21.6408 17.8776C21.6408 14.8061 18.2185 11.9641 13.9996 11.9641C9.78066 11.9641 6.35791 14.8077 6.35791 17.8752C6.36062 18.6384 6.56826 19.3869 6.95913 20.0424C8.11958 19.1075 10.8366 18.4594 13.9996 18.4568Z" fill="#BBE3F8"/>
<path d="M13.9998 18.4768C17.1571 18.4768 19.8687 19.125 21.0258 20.0508C21.417 19.4019 21.6254 18.6592 21.6288 17.9015C21.6293 14.8555 18.2133 12.0295 13.9998 12.0295C9.78633 12.0295 6.36694 14.8555 6.36694 17.901C6.37026 18.6595 6.57843 19.403 6.96946 20.0529C8.12888 19.1247 10.842 18.4802 13.9998 18.4768Z" fill="#C1E5F9"/>
<path d="M13.9995 18.4982C17.1524 18.4982 19.8606 19.1404 21.0159 20.0595C21.4067 19.4163 21.615 18.6789 21.6184 17.9263C21.6184 14.9023 18.2063 12.0945 14.0024 12.0945C9.79847 12.0945 6.38013 14.9023 6.38013 17.9263C6.38338 18.6788 6.59024 19.4165 6.97876 20.061C8.13687 19.1404 10.8446 18.4982 13.9995 18.4982Z" fill="#C6E7F9"/>
<path d="M13.9998 18.5178C17.1469 18.5178 19.8523 19.1569 21.0071 20.0684C21.397 19.4307 21.6052 18.6985 21.6091 17.951C21.6091 14.9478 18.2013 12.1594 13.9998 12.1594C9.7982 12.1594 6.38867 14.9524 6.38867 17.95C6.39256 18.6977 6.59947 19.4304 6.9873 20.0697C8.14335 19.1569 10.8492 18.5183 13.9998 18.5178Z" fill="#CBE9FA"/>
<path d="M13.9996 18.5391C17.1447 18.5391 19.8444 19.1719 20.9997 20.0775C21.3876 19.4455 21.5945 18.7191 21.5978 17.9775C21.5978 14.996 18.1958 12.2261 14.0002 12.2261C9.80455 12.2261 6.39917 14.9965 6.39917 17.9765C6.40411 18.7189 6.61173 19.446 6.99962 20.0791C8.15099 19.1719 10.8546 18.5396 13.9996 18.5391Z" fill="#D0EBFA"/>
<path d="M13.9996 18.558C17.14 18.558 19.8361 19.1867 20.9872 20.0861C21.3752 19.4595 21.5825 18.7378 21.5861 18.0008C21.5861 15.0411 18.1885 12.2888 13.9996 12.2888C9.81073 12.2888 6.4082 15.0416 6.4082 18.0008C6.41263 18.7387 6.61952 19.4611 7.00632 20.0894C8.15925 19.1867 10.8597 18.5595 13.9996 18.558Z" fill="#D5EDFA"/>
<path d="M13.9997 18.5794C17.1368 18.5794 19.8281 19.2032 20.978 20.0953C21.3655 19.4733 21.5727 18.756 21.5766 18.0233C21.5766 15.0871 18.1834 12.3538 13.9997 12.3538C9.81603 12.3538 6.41895 15.0915 6.41895 18.0233C6.42341 18.7556 6.62974 19.4726 7.01524 20.0953C8.16636 19.2032 10.8627 18.5794 13.9997 18.5794Z" fill="#DBEFFB"/>
<path d="M13.9996 18.5996C17.1289 18.5996 19.8203 19.2195 20.9672 20.1049C21.3536 19.4888 21.5611 18.7774 21.5664 18.0502C21.5664 15.1382 18.1773 12.4204 13.9996 12.4204C9.82188 12.4204 6.4292 15.1382 6.4292 18.0484C6.43283 18.7761 6.64002 19.4883 7.02731 20.1044C8.17558 19.2195 10.867 18.5996 13.9996 18.5996Z" fill="#DFF1FB"/>
<path d="M13.9995 18.6194C17.1243 18.6194 19.8118 19.2354 20.9565 20.1135C21.3428 19.5035 21.5502 18.7973 21.5551 18.0752C21.5551 15.1834 18.172 12.4863 13.9995 12.4863C9.82695 12.4863 6.43945 15.185 6.43945 18.0729C6.44364 18.7952 6.64964 19.502 7.0342 20.1135C8.18505 19.2349 10.8702 18.6202 13.9995 18.6194Z" fill="#E4F3FC"/>
<path d="M13.9998 18.641C17.1218 18.641 19.8021 19.251 20.948 20.1229C21.332 19.5179 21.5386 18.8172 21.5443 18.1007C21.5443 15.2317 18.1651 12.5525 13.9998 12.5525C9.83453 12.5525 6.45093 15.2325 6.45093 18.0965C6.45556 18.8135 6.66126 19.5149 7.04463 20.1208C8.19238 19.2505 10.8762 18.641 13.9998 18.641Z" fill="#E9F5FC"/>
<path d="M13.9995 18.66C17.1165 18.66 19.7944 19.2665 20.9367 20.13C21.3214 19.5313 21.5281 18.8357 21.533 18.1242C21.533 15.277 18.159 12.6169 13.9987 12.6169C9.83834 12.6169 6.46069 15.2793 6.46069 18.1223C6.46504 18.8347 6.67126 19.5312 7.05544 20.1311C8.19955 19.2644 10.8803 18.6611 13.9995 18.66Z" fill="#EDF7FD"/>
<path d="M13.9995 18.6806C17.1106 18.6806 19.7854 19.2821 20.9279 20.1395C21.3121 19.5461 21.5189 18.8555 21.5242 18.1486C21.5242 15.3245 18.1539 12.6819 14.0005 12.6819C9.84716 12.6819 6.47314 15.3261 6.47314 18.1481C6.47729 18.8552 6.68258 19.5466 7.06504 20.1413C8.20915 19.2821 10.8847 18.6817 13.9995 18.6806Z" fill="#F1F9FD"/>
<path d="M13.9997 18.7044C17.1078 18.7044 19.7784 19.3007 20.9173 20.1508C21.3011 19.5637 21.5081 18.8787 21.5136 18.1773C21.5139 15.3742 18.1479 12.7502 13.9997 12.7502C9.85158 12.7502 6.4812 15.3773 6.4812 18.1742C6.48638 18.8765 6.6919 19.5627 7.07361 20.1521C8.21617 19.2968 10.8907 18.7044 13.9997 18.7044Z" fill="#F7FBFD"/>
<path d="M13.9996 18.7214C17.1038 18.7214 19.7677 19.3135 20.9084 20.1569C21.2907 19.5754 21.4977 18.8962 21.5047 18.2003C21.5037 15.4208 18.1437 12.8152 13.9996 12.8152C9.85562 12.8152 6.49561 15.4231 6.49561 18.1985C6.50106 18.8949 6.70612 19.5751 7.08646 20.1585C8.22383 19.3148 10.8927 18.7232 13.9996 18.7214Z" fill="#FBFDFF"/>
<path d="M13.9996 18.7414C17.0985 18.7414 19.7627 19.3283 20.8982 20.165C21.2795 19.5885 21.4858 18.914 21.4922 18.2229C21.4922 15.4654 18.1361 12.8777 13.9996 12.8777C9.86307 12.8777 6.50513 15.4672 6.50513 18.2213C6.51058 18.913 6.71488 19.5885 7.09365 20.1673C8.23154 19.3283 10.8978 18.7427 13.9996 18.7414Z" fill="white"/>
</g>
<path d="M14.0001 15.9912C11.2846 15.9912 8.76745 16.4517 6.68896 17.2305C8.48823 21.2708 13.2223 23.0872 17.2621 21.2879C19.0693 20.483 20.5146 19.0377 21.3195 17.2305C19.2372 16.4517 16.7146 15.9912 14.0001 15.9912Z" fill="#007BC6"/>
</svg>
