<svg width="28" height="28" viewBox="0 0 28 28" fill="none" xmlns="http://www.w3.org/2000/svg">
<g clip-path="url(#clip0_1612_3916)">
<path d="M14 28C21.732 28 28 21.732 28 14C28 6.26801 21.732 0 14 0C6.26801 0 0 6.26801 0 14C0 21.732 6.26801 28 14 28Z" fill="#00326D"/>
<path d="M11.1802 18.2587C10.7321 18.2585 10.2937 18.1277 9.91881 17.8822C9.54387 17.6368 9.24861 17.2874 9.06914 16.8768C8.88968 16.4662 8.83379 16.0121 8.90833 15.5703C8.98286 15.1284 9.18459 14.7178 9.48881 14.3888C9.07911 13.636 8.86515 12.7924 8.86659 11.9354C8.86659 11.7985 8.87204 11.6624 8.88266 11.5278C6.30304 12.4871 4.98989 15.3571 5.94967 17.937C6.90944 20.5169 9.77685 21.8295 12.3567 20.8702C12.5831 20.7858 12.803 20.685 13.0147 20.5687V17.3503C12.7997 17.6329 12.5222 17.8619 12.2039 18.0195C11.8857 18.1771 11.5353 18.259 11.1802 18.2587Z" fill="url(#paint0_linear_1612_3916)"/>
<path d="M11.1802 13.6476C11.4339 13.6474 11.6858 13.6891 11.9259 13.771C11.738 13.4852 11.6112 13.1637 11.5532 12.8267C11.4953 12.4896 11.5076 12.1442 11.5892 11.8122C11.6709 11.4801 11.8202 11.1684 12.0278 10.8966C12.2354 10.6248 12.4968 10.3988 12.7958 10.2327C13.0947 10.0666 13.4247 9.96401 13.7651 9.93127C14.1056 9.89853 14.4491 9.93638 14.7742 10.0425C15.0993 10.1486 15.399 10.3206 15.6546 10.5478C15.9102 10.775 16.1162 11.0525 16.2596 11.363C17.2088 11.1372 18.2033 11.1944 19.1203 11.5276C18.8942 8.70012 16.4193 6.59105 13.5919 6.81686C10.7644 7.04267 8.65427 9.51782 8.88009 12.3453C8.93717 13.0614 9.14394 13.7576 9.48701 14.3888C9.7026 14.1548 9.9644 13.9681 10.2559 13.8405C10.5473 13.7129 10.8621 13.6472 11.1802 13.6476Z" fill="url(#paint1_linear_1612_3916)"/>
<path d="M17.416 11.2275C17.027 11.2276 16.6393 11.2731 16.2608 11.3631C16.4372 11.747 16.5129 12.1695 16.4809 12.5908C16.4489 13.0121 16.3101 13.4183 16.0777 13.7711C16.4794 13.6345 16.9109 13.6113 17.3248 13.7042C17.7388 13.797 18.1191 14.0023 18.4238 14.2974C18.7286 14.5925 18.9461 14.9659 19.0522 15.3766C19.1584 15.7874 19.1492 16.2194 19.0256 16.6252C18.902 17.031 18.6688 17.3949 18.3518 17.6767C18.0347 17.9585 17.646 18.1474 17.2285 18.2225C16.8109 18.2976 16.3808 18.2561 15.9854 18.1025C15.59 17.9488 15.2446 17.6891 14.9873 17.3518V20.5689C17.3937 21.9051 20.4279 21.0374 21.7641 18.6309C23.1003 16.2245 22.2326 13.1904 19.8261 11.8542C19.0887 11.4448 18.2595 11.2291 17.416 11.2275Z" fill="url(#paint2_linear_1612_3916)"/>
</g>
<defs>
<linearGradient id="paint0_linear_1612_3916" x1="10.0747" y1="21.2488" x2="8.35792" y2="11.512" gradientUnits="userSpaceOnUse">
<stop offset="0.15" stop-color="#54C2F0"/>
<stop offset="0.3" stop-color="#4FBCEC"/>
<stop offset="0.51" stop-color="#3FACE2"/>
<stop offset="0.73" stop-color="#2691D0"/>
<stop offset="0.98" stop-color="#036BB8"/>
<stop offset="1" stop-color="#0068B6"/>
</linearGradient>
<linearGradient id="paint1_linear_1612_3916" x1="8.52853" y1="11.9217" x2="18.1818" y2="8.40793" gradientUnits="userSpaceOnUse">
<stop offset="0.15" stop-color="#54C2F0"/>
<stop offset="0.3" stop-color="#4FBCEC"/>
<stop offset="0.51" stop-color="#3FACE2"/>
<stop offset="0.73" stop-color="#2691D0"/>
<stop offset="0.98" stop-color="#036BB8"/>
<stop offset="1" stop-color="#0068B6"/>
</linearGradient>
<linearGradient id="paint2_linear_1612_3916" x1="19.6288" y1="11.6737" x2="17.918" y2="21.3757" gradientUnits="userSpaceOnUse">
<stop offset="0.15" stop-color="#54C2F0"/>
<stop offset="0.3" stop-color="#4FBCEC"/>
<stop offset="0.51" stop-color="#3FACE2"/>
<stop offset="0.73" stop-color="#2691D0"/>
<stop offset="0.98" stop-color="#036BB8"/>
<stop offset="1" stop-color="#0068B6"/>
</linearGradient>
<clipPath id="clip0_1612_3916">
<rect width="28" height="28" fill="white"/>
</clipPath>
</defs>
</svg>
