<svg width="28" height="28" viewBox="0 0 28 28" fill="none" xmlns="http://www.w3.org/2000/svg">
<g clip-path="url(#clip0_1641_1874)">
<path d="M28 14C28 21.7319 21.7314 28 14 28C6.26863 28 0 21.7324 0 14C0 6.26759 6.26863 0 14 0C21.7314 0 28 6.272 28 14Z" fill="#E50012"/>
<path d="M9.13854 13.104C8.81032 12.992 8.40095 13.1929 8.13054 13.4187C8.11883 13.4303 8.10399 13.4381 8.08786 13.4413C8.07173 13.4445 8.05502 13.4428 8.0398 13.4366C8.02442 13.4292 8.01153 13.4175 8.00269 13.4029C7.99385 13.3883 7.98945 13.3715 7.99002 13.3544C7.99002 13.3544 7.97836 13.1989 7.97836 13.1942C7.97637 13.1693 7.98 13.1442 7.98897 13.1208C7.99794 13.0974 8.01203 13.0764 8.03021 13.0591C8.79788 12.3407 9.16136 11.6737 9.14502 11.0214C9.14502 10.8993 9.1191 10.7463 9.02084 10.7061C8.90495 10.6584 8.69443 10.7675 8.46525 10.9913L8.41651 11.0418L8.00169 11.4898C7.93305 11.5751 7.88888 11.6775 7.87388 11.7859C7.75131 13.0604 7.86183 14.3466 8.20002 15.5815C8.21895 15.6346 8.23036 15.6554 8.26043 15.6707C8.27792 15.679 8.29795 15.6804 8.31643 15.6745L8.81602 15.4285L8.82951 15.4231C9.21839 15.2416 9.84476 14.8037 9.65706 13.8934C9.56969 13.4584 9.39339 13.1937 9.13854 13.104Z" fill="white"/>
<path d="M13.9999 6.77588C10.0101 6.77588 6.77588 10.0101 6.77588 13.9999C6.77588 17.9896 10.0101 21.2239 13.9999 21.2239C17.9896 21.2239 21.2239 17.9896 21.2239 13.9999C21.2239 10.0101 17.9896 6.77588 13.9999 6.77588ZM10.9982 14.137C10.9826 14.3332 10.9471 14.5272 10.8924 14.7162C10.7927 15.0497 10.5981 15.347 10.3324 15.5718C10.1354 15.7398 9.93029 15.8217 9.71355 15.9088L9.40788 16.0434L9.15925 16.1554L8.90388 16.2674L8.83777 16.3003C8.59095 16.4286 8.31018 16.5725 8.01358 16.4532C7.73358 16.3413 7.62158 16.0384 7.58399 15.9122C7.27599 14.8383 7.18577 13.6291 7.32473 12.4155C7.40977 11.7028 7.86243 11.0155 7.97988 10.8735L8.40895 10.3907C9.12969 9.65703 9.57821 9.61166 9.82684 9.7024C10.0755 9.79314 10.23 10.049 10.2564 10.3936C10.2603 10.4454 10.2632 10.495 10.2632 10.5458C10.2632 11.0985 10.0055 11.6474 9.53051 12.1532C9.78767 12.1106 10.0516 12.1585 10.2774 12.2888C10.5162 12.4311 10.8297 12.7324 10.9658 13.36C11.0129 13.6162 11.0238 13.8778 10.9982 14.137ZM17.4719 12.9522C17.475 13.0588 17.4545 13.1647 17.4119 13.2625C17.3693 13.3602 17.3057 13.4473 17.2256 13.5177C16.7657 13.9148 16.1688 14.1943 15.4515 14.3494C14.2345 14.6063 13.0943 14.4305 12.2398 13.8537C11.5118 13.3611 11.0386 12.6066 10.8745 11.6759C10.7919 11.2281 10.8022 10.7681 10.9048 10.3245C11.0073 9.88088 11.2 9.46308 11.4708 9.09703C11.9911 8.39703 12.7785 7.92103 13.6885 7.75303C14.2978 7.64594 14.924 7.68901 15.5129 7.87851C15.5785 7.90081 15.8098 8.00218 15.9503 8.48336C15.9946 8.68377 15.7906 8.62492 15.7906 8.62492C15.3044 8.42444 14.7731 8.35922 14.2529 8.43618C13.5659 8.53988 12.9953 8.87251 12.6455 9.37262C12.2958 9.87273 12.1851 10.5043 12.3227 11.1685C12.6419 12.7036 13.9314 13.4858 15.606 13.1648C16.2601 13.0352 16.782 12.7588 17.1258 12.3611C17.1538 12.3255 17.1935 12.301 17.2378 12.2916C17.3067 12.2916 17.3498 12.3207 17.3767 12.4192C17.4791 12.8239 17.4719 12.9522 17.4719 12.9522Z" fill="white"/>
</g>
<defs>
<clipPath id="clip0_1641_1874">
<rect width="28" height="28" fill="white"/>
</clipPath>
</defs>
</svg>
