<svg width="28" height="28" viewBox="0 0 28 28" fill="none" xmlns="http://www.w3.org/2000/svg">
<g clip-path="url(#clip0_1612_3923)">
<path d="M13.3656 0.0147607C5.64199 0.362946 -0.337052 6.90665 0.0147631 14.6318C0.366578 22.3569 6.90873 28.3329 14.6334 27.9855C22.358 27.6381 28.336 21.0892 27.9852 13.3661C27.6344 5.64302 21.0918 -0.337054 13.3656 0.0147607Z" fill="#004B9D"/>
<path d="M9.68794 6.06472C9.46442 6.17568 9.26522 6.33002 9.10195 6.51875C8.93869 6.70747 8.81462 6.92681 8.73698 7.16398L5.69794 16.292C5.53892 16.7701 5.57632 17.2918 5.80191 17.7424C6.0275 18.1929 6.42281 18.5354 6.90091 18.6945L16.8622 22.039C17.3401 22.1964 17.8609 22.1582 18.3107 21.9328C18.7606 21.7074 19.1029 21.3131 19.2629 20.836L22.3006 11.708C22.4591 11.23 22.4216 10.7086 22.1965 10.2581C21.9714 9.80765 21.5769 9.46472 21.0995 9.30442L11.1382 5.96283C10.9018 5.88284 10.6518 5.85066 10.4029 5.86816C10.1539 5.88565 9.91087 5.95246 9.68794 6.06472Z" fill="white"/>
<path d="M12.3406 7.06345C14.0833 7.70952 15.3555 9.57101 15.2319 11.6005C15.1881 12.357 14.9555 13.0904 14.5555 13.7339C14.0068 13.1195 13.3204 12.6438 12.5524 12.3459L12.1073 12.1711V16.4048L12.5589 16.2296C13.3254 15.9287 14.0096 15.4502 14.5552 14.8335C15.0892 15.6895 15.3254 16.698 15.2269 17.7022C15.1284 18.7063 14.7009 19.6497 14.0108 20.3857L14.0152 20.3824L14.0108 20.3876L7.09916 18.0763C6.78606 17.9733 6.52644 17.7505 6.37701 17.4567C6.22759 17.163 6.20051 16.822 6.30168 16.5083L9.34849 7.37404C9.44812 7.06412 9.66676 6.80645 9.95632 6.65768C10.2459 6.50891 10.5827 6.48123 10.8926 6.58071L10.9025 6.58408L12.3406 7.06345Z" fill="#0092D8"/>
<path d="M10.5577 16.6608H9.87378V11.9182H10.5577V16.6608Z" fill="white"/>
<path d="M14.1569 14.2834C13.7719 13.8244 13.2999 13.4461 12.7681 13.1704V15.4C13.2996 15.1222 13.7714 14.7429 14.1569 14.2834Z" fill="#E43D30"/>
<path d="M20.8801 9.91208L14.5334 7.79419C15.3314 8.66445 15.8113 9.77926 15.8948 10.957C15.9783 12.1348 15.6606 13.3062 14.9934 14.2803C15.6443 15.2226 15.9674 16.3527 15.913 17.4967C15.8585 18.6406 15.4296 19.735 14.6921 20.6112L17.0747 21.4069C17.2285 21.4574 17.3908 21.4771 17.5522 21.4649C17.7136 21.4527 17.8711 21.4088 18.0155 21.3357C18.16 21.2627 18.2886 21.1618 18.3941 21.039C18.4996 20.9162 18.5798 20.7738 18.6303 20.62V20.6166L21.6771 11.4829C21.7783 11.1689 21.7513 10.8276 21.602 10.5334C21.4528 10.2392 21.1933 10.0159 20.8801 9.91208ZM19.1949 16.6469H18.3394L16.5764 14.2803L18.3684 11.9081H19.2369L17.4387 14.2803L19.1949 16.6469Z" fill="#004B9D"/>
</g>
<defs>
<clipPath id="clip0_1612_3923">
<rect width="28" height="28" fill="white"/>
</clipPath>
</defs>
</svg>
