<svg width="28" height="28" viewBox="0 0 28 28" fill="none" xmlns="http://www.w3.org/2000/svg">
<path d="M13.3656 0.0147607C5.64201 0.362947 -0.337053 6.90668 0.0147631 14.6319C0.366579 22.357 6.90875 28.333 14.6334 27.9856C22.3581 27.6382 28.3361 21.0893 27.9853 13.3661C27.6345 5.64304 21.0918 -0.337056 13.3656 0.0147607Z" fill="#0575CA"/>
<path d="M13.6194 5.59993C8.9817 5.81045 5.39276 9.74109 5.60302 14.3795C5.81328 19.0179 9.74315 22.6074 14.3811 22.3971C19.019 22.1869 22.6076 18.2562 22.3974 13.6178C22.1871 8.98094 18.2583 5.39252 13.6222 5.60278H13.6194V5.59993ZM14.4749 13.7926C15.799 15.0139 17.0076 16.1332 17.0076 16.1332C18.8199 18.0898 17.7994 19.5481 17.2928 19.9303C16.5316 20.5082 15.7373 20.6987 14.7492 20.7516C14.6611 20.7648 14.4988 20.714 14.4899 20.5564C14.4845 20.3884 14.7298 20.3464 14.7298 20.3464C16.9314 19.9124 16.2298 18.4592 15.4521 17.7227C15.1238 17.4116 12.1162 14.7752 12.1162 14.7752C9.19248 12.2585 9.42504 10.2925 9.42504 10.2925C9.61326 7.82153 11.6822 7.27371 13.2854 7.41294C13.4726 7.42901 13.5763 7.54257 13.5447 7.69968C13.5081 7.86794 13.2595 7.88116 13.2595 7.88116C12.7495 7.91201 12.2945 7.96464 11.9469 8.19824C10.6581 9.0665 11.0395 10.5422 12.7583 12.1872C12.9748 12.3946 13.2066 12.6116 13.4405 12.8336C13.4402 12.8348 13.7881 13.139 14.4752 13.7926H14.4749ZM13.476 20.0446C13.49 20.2808 12.9157 20.3837 12.2606 20.3194C11.4379 20.2385 10.4566 19.9785 9.6003 19.2394C8.81578 18.5588 8.32655 17.6229 8.09011 16.8023C7.84744 15.9615 7.74711 14.9779 8.14611 15.0554C8.27004 15.0787 8.48315 15.6203 8.71259 16.0147C8.95085 16.4207 9.14582 16.646 9.32911 16.7831C9.41026 16.8453 9.69208 16.22 10.1002 15.8651C10.3366 15.6696 10.5956 15.6017 10.6381 16.1868C10.69 16.9047 10.5603 17.7561 10.7698 17.7561C10.9661 17.7561 11.4066 17.6081 12.3754 17.5254C12.7397 17.4938 12.9481 17.5635 12.5997 18.0538C12.3467 18.4386 12.0235 18.7723 11.6469 19.0374C12.4706 19.8087 13.4581 19.7151 13.476 20.0446ZM14.1254 12.5411C14.064 12.301 14.0492 11.9967 14.0995 11.6062C14.2032 10.794 14.4215 10.4123 14.6699 9.78232C15.0069 8.93609 14.1887 8.44116 14.3253 8.12953C14.5086 7.70746 15.0925 8.24153 15.7448 8.28301C16.3053 8.31387 16.6413 8.28301 17.0779 8.34368C17.6573 8.42146 18.3506 8.61772 18.6594 8.97965C18.943 9.3115 18.5108 9.71621 17.9902 9.46239C17.6101 9.27728 17.1318 9.39161 17.4123 9.7875C17.7494 10.1639 17.9169 10.1606 18.3496 10.3097C19.2769 10.627 19.2461 11.4359 18.5798 11.8792C17.7761 12.4104 17.1131 12.2069 16.8168 11.1585C16.6683 10.6348 16.2983 10.368 15.92 10.5171C15.5418 10.6661 15.766 11.354 16.053 11.9917C16.625 13.4547 15.2021 13.4052 15.0365 13.385C14.8213 13.3426 14.6221 13.2413 14.4613 13.0923C14.3004 12.9432 14.1841 12.7524 14.1254 12.5411Z" fill="white"/>
</svg>
