<svg width="28" height="28" viewBox="0 0 28 28" fill="none" xmlns="http://www.w3.org/2000/svg">
<g clip-path="url(#clip0_1604_1718)">
<path d="M14 28C21.732 28 28 21.732 28 14C28 6.26801 21.732 0 14 0C6.26801 0 0 6.26801 0 14C0 21.732 6.26801 28 14 28Z" fill="#005BAC"/>
<path d="M16.7599 7L13.9996 8.38548L11.2393 7L13.9996 12.2477L16.7599 7Z" fill="#FABE00"/>
<path d="M17.7255 11.056L17.6843 11.0184L19.6518 10.1919V7.41992L16.2296 8.87929C16.2296 8.87929 14.3779 12.3904 14.3349 12.4729C15.064 12.5586 15.7327 12.9197 16.2043 13.4823C16.6759 14.0449 16.9147 14.7664 16.8717 15.4993C16.8288 16.2321 16.5074 16.9208 15.9734 17.4245C15.4393 17.9282 14.733 18.2088 13.9989 18.2088C13.2648 18.2088 12.5584 17.9282 12.0244 17.4245C11.4903 16.9208 11.169 16.2321 11.126 15.4993C11.0831 14.7664 11.3219 14.0449 11.7935 13.4823C12.2651 12.9197 12.9338 12.5586 13.6629 12.4729C13.6214 12.3923 11.7703 8.87929 11.7703 8.87929L8.35404 7.41992V10.1919L10.3229 11.0203L10.2803 11.0566C7.92108 13.1133 7.67504 16.6934 9.73175 19.0531C11.7885 21.4129 15.3688 21.6584 17.7283 19.6017C20.0879 17.545 20.3336 13.9649 18.2777 11.6051C18.1076 11.4099 17.9243 11.2266 17.7291 11.0566L17.7255 11.056Z" fill="#FABE00"/>
</g>
<defs>
<clipPath id="clip0_1604_1718">
<rect width="28" height="28" fill="white"/>
</clipPath>
</defs>
</svg>
