<svg width="28" height="28" viewBox="0 0 28 28" fill="none" xmlns="http://www.w3.org/2000/svg">
<path d="M13.3656 0.0147607C5.64253 0.362947 -0.337054 6.90668 0.0147619 14.6319C0.366578 22.357 6.90927 28.333 14.6334 27.9856C22.3576 27.6382 28.3361 21.0893 27.9853 13.3661C27.6345 5.64304 21.0918 -0.337056 13.3656 0.0147607Z" fill="#1328A1"/>
<path d="M20.4231 14.7983L20.384 12.5723H21.0778V15.3782H20.0809L19.39 13.0763H19.376L19.4146 15.3782H18.7229V12.5723H19.7628L20.4063 14.7983H20.4231Z" fill="white"/>
<path d="M7.81917 12.835L7.43676 15.411H6.6792L7.19772 12.575H8.44372L8.95939 15.4087H8.20754L7.8342 12.836L7.81917 12.835Z" fill="white"/>
<path d="M11.088 14.7405L11.4333 12.5723H12.574L12.6357 15.4081H11.9337L11.9158 12.8593H11.9L11.4333 15.4086H10.7224L10.2542 12.8593H10.2391L10.221 15.4083H9.521L9.58166 12.5741H10.724L11.0703 14.741L11.088 14.7405Z" fill="white"/>
<path d="M5.5004 14.6078C5.52214 14.6761 5.52402 14.7491 5.50585 14.8184C5.49311 14.8788 5.4578 14.9321 5.40712 14.9674C5.35645 15.0027 5.29421 15.0174 5.2331 15.0084C5.16682 15.0162 5.10016 14.9974 5.04769 14.9561C4.99522 14.9149 4.96121 14.8545 4.9531 14.7883V14.4772H4.19995V14.696C4.19995 15.3283 4.69255 15.5191 5.21807 15.5191C5.72544 15.5191 6.14207 15.3439 6.2087 14.871C6.23338 14.7171 6.23224 14.5602 6.20533 14.4067C6.08711 13.8119 5.0244 13.6351 4.94532 13.303C4.93423 13.2543 4.93308 13.2038 4.94195 13.1547C4.95209 13.0962 4.98428 13.0438 5.03189 13.0084C5.0795 12.9729 5.1389 12.9571 5.19784 12.9641C5.26108 12.9587 5.32388 12.9786 5.37247 13.0194C5.42107 13.0603 5.4515 13.1187 5.4571 13.1819C5.45814 13.195 5.45814 13.2082 5.4571 13.2213V13.3966H6.15996V13.1964C6.15996 12.5804 5.6124 12.4824 5.21573 12.4824C4.71795 12.4824 4.31091 12.6504 4.23521 13.1116C4.21161 13.2392 4.21293 13.3701 4.2391 13.4972C4.36017 14.073 5.35573 14.241 5.5004 14.6078Z" fill="white"/>
<path d="M14.6078 14.6022C14.6291 14.6695 14.631 14.7414 14.6132 14.8097C14.6008 14.8697 14.5659 14.9227 14.5156 14.9578C14.4653 14.9929 14.4035 15.0074 14.3428 14.9984C14.3105 15.0027 14.2776 15.0007 14.246 14.9923C14.2145 14.9839 14.1849 14.9694 14.1589 14.9496C14.1329 14.9298 14.1112 14.9051 14.0948 14.8768C14.0784 14.8486 14.0677 14.8174 14.0634 14.785C14.0632 14.7839 14.0632 14.7828 14.0634 14.7817V14.4721H13.3203V14.6888C13.3203 15.315 13.8075 15.5042 14.3283 15.5042C14.8295 15.5042 15.2422 15.3313 15.3083 14.862C15.3329 14.7096 15.3317 14.5541 15.3049 14.4021C15.1883 13.8136 14.1357 13.6388 14.0576 13.3101C14.0465 13.2617 14.0454 13.2116 14.0545 13.1628C14.0644 13.1049 14.0962 13.053 14.1433 13.0179C14.1904 12.9827 14.2492 12.9671 14.3076 12.9741C14.3386 12.9713 14.3699 12.9747 14.3997 12.984C14.4294 12.9933 14.457 13.0084 14.481 13.0284C14.5049 13.0485 14.5246 13.073 14.539 13.1006C14.5534 13.1283 14.5623 13.1585 14.565 13.1895C14.5663 13.2026 14.5663 13.2157 14.565 13.2287V13.4019H15.2578V13.2041C15.2578 12.5932 14.7151 12.4973 14.3221 12.4973C13.8295 12.4973 13.4261 12.6619 13.3527 13.1195C13.3303 13.2449 13.3326 13.3735 13.3595 13.4981C13.4792 14.0728 14.4649 14.2388 14.6078 14.6022Z" fill="white"/>
<path d="M16.959 14.9829C17.0212 14.9882 17.0832 14.9702 17.1329 14.9323C17.1826 14.8944 17.2164 14.8393 17.2278 14.7779C17.2334 14.7421 17.2357 14.7059 17.2345 14.6698V12.571H17.9436V14.6044C17.9436 14.6563 17.939 14.7628 17.9364 14.7908C17.8868 15.3202 17.4744 15.4908 16.959 15.4908C16.4435 15.4908 16.0305 15.3189 15.9813 14.7908C15.9813 14.7649 15.9735 14.6571 15.9751 14.6044V12.5716H16.6836V14.6716C16.6824 14.7075 16.6846 14.7434 16.6904 14.7789C16.7021 14.8401 16.736 14.8947 16.7855 14.9324C16.8351 14.9701 16.8969 14.9881 16.959 14.9829Z" fill="white"/>
<path d="M22.8023 14.9523C22.8671 14.9594 22.9322 14.942 22.985 14.9037C23.0377 14.8653 23.0742 14.8087 23.0875 14.7449C23.0932 14.7093 23.0955 14.6733 23.0942 14.6373V14.2269H22.8077V13.8154H23.8002V14.5753C23.8002 14.6377 23.7968 14.7001 23.7901 14.7622C23.7437 15.2787 23.3016 15.4622 22.8049 15.4622C22.3081 15.4622 21.8663 15.2787 21.8197 14.7622C21.8129 14.7001 21.8096 14.6377 21.8096 14.5753V13.3843C21.8096 13.3324 21.8158 13.2448 21.8215 13.1971C21.884 12.6674 22.3074 12.4971 22.8046 12.4971C23.3019 12.4971 23.7359 12.6651 23.788 13.1971C23.7932 13.2593 23.7952 13.322 23.7942 13.3843V13.4781H23.0877V13.3192C23.0882 13.283 23.0852 13.2468 23.0789 13.2111C23.0669 13.1477 23.0313 13.0913 22.9794 13.0532C22.9274 13.015 22.8629 12.998 22.7989 13.0055C22.7351 12.999 22.6711 13.0165 22.6194 13.0544C22.5677 13.0924 22.5319 13.1482 22.5189 13.2111C22.5105 13.2553 22.5066 13.3003 22.5075 13.3454V14.6417C22.5066 14.6776 22.5087 14.7136 22.5137 14.7493C22.528 14.8129 22.5655 14.8689 22.6188 14.9064C22.6722 14.944 22.7376 14.9603 22.8023 14.9523Z" fill="white"/>
</svg>
