<svg width="28" height="28" viewBox="0 0 28 28" fill="none" xmlns="http://www.w3.org/2000/svg">
<g clip-path="url(#clip0_1612_3909)">
<path d="M13.3656 0.0147607C5.64199 0.362946 -0.337052 6.90665 0.0147631 14.6318C0.366578 22.3569 6.90873 28.3329 14.6334 27.9855C22.358 27.6381 28.336 21.0892 27.9852 13.3661C27.6344 5.64302 21.0918 -0.337054 13.3656 0.0147607Z" fill="#009591"/>
<path d="M17.1001 15.9741C17.0628 15.7442 16.9968 15.5199 16.9036 15.3065C16.6083 14.6698 16.1973 14.1349 15.5813 13.7769C15.1172 13.5016 14.5868 13.3579 14.0472 13.3611C13.5076 13.3644 12.979 13.5145 12.5182 13.7953C12.0882 14.0543 11.7393 14.4284 11.511 14.8754C11.4348 15.0276 11.371 15.1856 11.3201 15.348C11.071 16.1421 11.0796 17.2092 11.5301 17.9341C11.6724 18.175 11.8884 18.3638 12.1461 18.4726C12.2754 18.5249 12.4151 18.5465 12.5541 18.5357C12.6931 18.525 12.8278 18.4822 12.9475 18.4106C13.2488 18.2162 13.3032 17.8449 13.2467 17.5146C13.1754 17.0918 13.1212 16.6746 13.2763 16.2635C13.3237 16.1299 13.4002 16.0084 13.5003 15.908C13.5631 15.849 13.6347 15.8 13.7126 15.7628C13.8757 15.6804 14.0603 15.6503 14.2412 15.6768C14.5541 15.7271 14.8116 15.9708 14.9508 16.2562C15.09 16.5416 15.1276 16.8649 15.1429 17.1825C15.2096 18.5652 14.8795 19.9971 14.5269 21.3265C14.4896 21.4631 14.4523 21.5994 14.4149 21.7354C14.3851 21.8406 14.3309 21.9744 14.3981 22.0763C14.4289 22.1193 14.4717 22.1523 14.5212 22.1709C14.725 22.2534 14.894 22.1274 15.0314 21.9895C15.8416 21.1741 16.3614 20.1228 16.7166 19.0393C16.852 18.6364 16.96 18.2248 17.0399 17.8073C17.1436 17.2352 17.2038 16.5792 17.1019 15.9757" fill="white"/>
<path d="M22.9039 9.58271C22.9039 9.3753 22.7201 9.2379 22.5231 9.24568C22.326 9.25345 22.136 9.35768 21.9527 9.42716C18.3866 10.7828 14.3642 11.0405 10.606 10.4984C9.96327 10.4061 9.31201 10.2744 8.66464 10.1749C8.26071 10.1121 7.86094 10.0209 7.45286 9.98949C7.10494 9.96356 6.67223 9.95008 6.3899 10.1927C6.01864 10.5124 6.04482 11.1188 6.25534 11.5204C6.50786 12.0021 6.95042 12.3604 7.41008 12.637C7.85808 12.903 8.3906 13.1875 8.92208 13.1535C10.3584 13.0614 11.7905 12.9231 13.2185 12.7387C15.6537 12.4221 18.2062 12.1227 20.4923 11.1795C21.2403 10.8705 21.9779 10.4852 22.62 9.9869C22.7372 9.89953 22.9052 9.75356 22.9052 9.58479" fill="white"/>
<path d="M12.6761 8.36073C12.6847 8.72711 12.8363 9.07557 13.0985 9.33164C13.3607 9.58771 13.7126 9.73107 14.0791 9.73107C14.4456 9.73107 14.7975 9.58771 15.0597 9.33164C15.3218 9.07557 15.4734 8.72711 15.4821 8.36073C15.4817 8.24419 15.4557 8.12914 15.4061 8.0237C15.2855 7.76884 15.1507 7.6457 15.1634 7.34003C15.1821 6.92781 14.6535 6.92236 14.3696 6.92236C14.0585 6.92236 13.73 6.9654 13.45 7.10592C13.2221 7.22034 13.0295 7.39458 12.893 7.60999C12.7564 7.8254 12.681 8.07388 12.6748 8.32884V8.36151" fill="white"/>
</g>
<defs>
<clipPath id="clip0_1612_3909">
<rect width="28" height="28" fill="white"/>
</clipPath>
</defs>
</svg>
