<svg width="28" height="28" viewBox="0 0 28 28" fill="none" xmlns="http://www.w3.org/2000/svg">
<g clip-path="url(#clip0_1612_3892)">
<path d="M13.3656 0.0147607C5.64199 0.362946 -0.337052 6.90665 0.0147631 14.6318C0.366578 22.3569 6.90873 28.3329 14.6334 27.9855C22.358 27.6381 28.336 21.0892 27.9852 13.3661C27.6344 5.64302 21.0918 -0.337054 13.3656 0.0147607Z" fill="#0F7AED"/>
<path d="M17.3391 9.07202C16.7288 9.07202 14.6926 10.5685 14.6926 10.5685C14.6926 10.5685 16.7288 12.0654 17.3391 12.0654C18.1898 12.0654 18.8989 11.4901 18.8989 10.5685C18.8989 9.6468 18.1898 9.07202 17.3391 9.07202Z" fill="#38D200"/>
<path d="M10.4159 22.3999C11.0262 22.3999 13.0624 20.9035 13.0624 20.9035C13.0624 20.9035 11.028 19.4065 10.4159 19.4065C9.56526 19.4065 8.85645 19.9818 8.85645 20.9035C8.85645 21.8251 9.56656 22.3999 10.4159 22.3999Z" fill="white"/>
<path d="M17.8706 14.1037L12.5999 10.5998L15.6457 8.46689C16.349 7.9743 16.5676 7.00182 16.0864 6.28912C15.8559 5.94569 15.4984 5.70789 15.0926 5.628C14.6868 5.54812 14.2658 5.63271 13.9224 5.86315L13.898 5.87975L10.259 8.45186C9.91555 8.69451 9.63639 9.01724 9.44573 9.3921C9.25507 9.76695 9.15865 10.1826 9.16483 10.6031C9.17101 11.0236 9.2796 11.4363 9.48119 11.8054C9.68279 12.1745 9.97131 12.4889 10.3218 12.7213L18.5595 18.1811C19.4962 16.7386 19.3147 15.0407 17.8706 14.1037Z" fill="white"/>
<path d="M9.44939 13.6299L18.5336 19.4702C18.8807 19.6938 19.1248 20.0461 19.2123 20.4496C19.2998 20.853 19.2235 21.2748 19.0002 21.6221C18.7767 21.9692 18.4244 22.2133 18.0209 22.3008C17.6174 22.3883 17.1957 22.312 16.8484 22.0887L10.3851 17.9344C9.69043 17.4876 9.20166 16.7833 9.0262 15.9762C8.85074 15.1692 9.00296 14.3255 9.44939 13.6307V13.6299Z" fill="#38D200"/>
</g>
<defs>
<clipPath id="clip0_1612_3892">
<rect width="28" height="28" fill="white"/>
</clipPath>
</defs>
</svg>
