<svg width="28" height="28" viewBox="0 0 28 28" fill="none" xmlns="http://www.w3.org/2000/svg">
<g clip-path="url(#clip0_1612_3900)">
<path d="M13.3656 0.0147607C5.64199 0.362946 -0.337052 6.90665 0.0147631 14.6318C0.366578 22.3569 6.90873 28.3329 14.6334 27.9855C22.358 27.6381 28.336 21.0892 27.9852 13.3661C27.6344 5.64302 21.0918 -0.337054 13.3656 0.0147607Z" fill="#140064"/>
<path d="M8.18658 11.5774H7.00617L5.14236 13.7474V11.5774H4.19995V16.3117H5.14236V14.136L7.06788 16.3117H8.24828L6.15321 13.9447L8.18658 11.5774Z" fill="white"/>
<path d="M23.8 16.3117L22.3842 14.6742L23.7575 13.0368H22.7415L21.5442 14.4536V11.5774H20.6018V16.3117H21.5442V14.891L22.764 16.3117H23.8Z" fill="white"/>
<path d="M10.5063 12.9214C10.1104 12.9214 9.77208 13.0894 9.49389 13.3264V11.5774H8.552V14.6955C8.552 15.634 9.17293 16.4198 10.3409 16.4198C11.3914 16.4198 12.1329 15.6939 12.1329 14.6776C12.1303 13.7147 11.4946 12.9214 10.5063 12.9214ZM10.3383 15.5658C10.105 15.5659 9.88079 15.475 9.71346 15.3124C9.54613 15.1497 9.44885 14.9282 9.4423 14.695V14.6691C9.4423 14.4918 9.49485 14.3186 9.5933 14.1713C9.69176 14.0239 9.83169 13.9091 9.99541 13.8413C10.1591 13.7734 10.3393 13.7557 10.5131 13.7903C10.6869 13.8248 10.8466 13.9102 10.9719 14.0355C11.0972 14.1608 11.1825 14.3205 11.2171 14.4943C11.2517 14.6681 11.2339 14.8482 11.1661 15.0119C11.0983 15.1757 10.9834 15.3156 10.8361 15.4141C10.6887 15.5125 10.5155 15.5651 10.3383 15.5651V15.5658Z" fill="white"/>
<path d="M18.7914 12.9215C18.3895 12.9166 18.0008 13.0649 17.7043 13.3363V13.0252H16.7625V16.3134H17.7043V14.4695C17.7104 14.2893 17.7862 14.1185 17.9158 13.9931C18.0454 13.8678 18.2187 13.7977 18.399 13.7977C18.5793 13.7977 18.7526 13.8678 18.8822 13.9931C19.0118 14.1185 19.0877 14.2893 19.0937 14.4695V16.3134H20.0423V14.1683C20.04 13.8376 19.9074 13.5212 19.6731 13.2878C19.4389 13.0543 19.1221 12.9227 18.7914 12.9215Z" fill="white"/>
<path d="M14.3853 12.9243C13.3223 12.9243 12.5764 13.6523 12.5764 14.6665C12.5764 15.6287 13.2194 16.4228 14.2183 16.4228C14.4363 16.4194 14.6508 16.3668 14.8457 16.2691C15.0406 16.1713 15.2109 16.0308 15.344 15.8581V16.3134H16.1962V14.6671H16.1884L16.1962 14.6487C16.1946 13.7101 15.568 12.9243 14.3853 12.9243ZM14.4055 15.562C14.2283 15.562 14.055 15.5095 13.9077 15.411C13.7604 15.3126 13.6455 15.1726 13.5777 15.0089C13.5099 14.8452 13.4921 14.665 13.5267 14.4912C13.5613 14.3174 13.6466 14.1578 13.7719 14.0325C13.8972 13.9071 14.0569 13.8218 14.2307 13.7872C14.4045 13.7527 14.5847 13.7704 14.7484 13.8382C14.9121 13.906 15.052 14.0209 15.1505 14.1682C15.2489 14.3156 15.3015 14.4888 15.3015 14.666C15.3015 14.9037 15.2071 15.1316 15.0391 15.2996C14.871 15.4676 14.6431 15.562 14.4055 15.562Z" fill="white"/>
</g>
<defs>
<clipPath id="clip0_1612_3900">
<rect width="28" height="28" fill="white"/>
</clipPath>
</defs>
</svg>
