<svg width="28" height="28" viewBox="0 0 28 28" fill="none" xmlns="http://www.w3.org/2000/svg">
<g clip-path="url(#clip0_1612_3882)">
<path d="M14 28C21.732 28 28 21.732 28 14C28 6.26801 21.732 0 14 0C6.26801 0 0 6.26801 0 14C0 21.732 6.26801 28 14 28Z" fill="#FF0C00"/>
<path d="M4.22755 13.9677C4.21767 13.9707 4.20939 13.9776 4.20454 13.9867C4.19968 13.9958 4.19863 14.0065 4.20163 14.0164C4.20326 14.0222 4.20618 14.0276 4.21018 14.032C4.21418 14.0365 4.21914 14.0401 4.2247 14.0423L7.2487 16.0386L8.11489 11.9639L4.22755 13.9677Z" fill="white"/>
<path d="M22.1325 11.9609H21.3675C21.3203 11.9631 21.274 11.9748 21.2314 11.9952L17.3982 13.9705C17.3624 13.9865 17.3611 14.0208 17.3943 14.043L20.3678 15.9997C20.4085 16.023 20.4542 16.0362 20.501 16.0383H21.2656C21.3052 16.0383 21.3096 16.0217 21.2772 15.9997L18.2426 14.0034L22.1408 11.9952C22.1761 11.9778 22.1712 11.9609 22.1325 11.9609Z" fill="white"/>
<path d="M20.496 11.9609H15.1667L14.3013 16.0383H19.628C19.6685 16.0383 19.6723 16.0217 19.6397 15.9997L16.6102 14.0034L20.5022 11.9952C20.5375 11.9778 20.5333 11.9609 20.496 11.9609Z" fill="white"/>
<path d="M23.767 11.9609H23.0024C22.9552 11.9633 22.909 11.9749 22.8663 11.9952L19.0337 13.9705C18.9984 13.9865 18.9979 14.0208 19.0303 14.043L22.004 15.9997C22.0442 16.0233 22.0896 16.0365 22.1362 16.0383H22.9039C22.943 16.0383 22.9493 16.0217 22.915 15.9997L19.8799 14.0034L23.7768 11.9957C23.811 11.9778 23.8077 11.9609 23.767 11.9609Z" fill="white"/>
<path d="M20.258 9.2959H7.71737C7.01737 9.2959 6.52789 9.73664 6.41148 10.2811C6.38072 10.4194 6.39081 10.5636 6.44052 10.6963C6.49023 10.8289 6.57742 10.9443 6.69148 11.0283L11.2 13.9999H11.2034L20.2663 9.32623C20.3023 9.30731 20.3 9.2959 20.258 9.2959Z" fill="white"/>
<path d="M18.2694 18.6667L11.2 14L5.43197 16.9753C5.125 17.1567 4.89841 17.4233 4.83567 17.7217C4.71849 18.2661 5.02026 18.7069 5.72156 18.7069H18.256C18.2969 18.7069 18.3037 18.6895 18.2694 18.6667Z" fill="white"/>
</g>
<defs>
<clipPath id="clip0_1612_3882">
<rect width="28" height="28" fill="white"/>
</clipPath>
</defs>
</svg>
