<svg width="28" height="28" viewBox="0 0 28 28" fill="none" xmlns="http://www.w3.org/2000/svg">
<path d="M13.3656 0.0147607C5.64201 0.362947 -0.337053 6.90668 0.0147631 14.6319C0.366579 22.357 6.90875 28.333 14.6334 27.9856C22.3581 27.6382 28.3361 21.0893 27.9853 13.3661C27.6345 5.64304 21.0918 -0.337056 13.3656 0.0147607Z" fill="#E60012"/>
<path d="M9.6204 12.0994C8.24503 12.0994 7.42188 12.9508 7.42188 14.0003C7.42188 15.0497 8.24503 15.9009 9.6204 15.9009C10.9958 15.9009 11.8223 15.0495 11.8223 14C11.8223 12.9505 10.9979 12.0994 9.6204 12.0994ZM9.6204 15.492C8.9624 15.492 8.46047 14.8229 8.46047 14.0003C8.46047 13.1776 8.96447 12.5087 9.6204 12.5087C10.2763 12.5087 10.7824 13.1758 10.7824 14.0003C10.7824 14.8247 10.2818 15.492 9.6204 15.492Z" fill="white"/>
<path d="M12.0115 12.6608H13.4589V15.7418H14.5499V12.6608H15.7736V12.2402H12.0115V12.6608Z" fill="white"/>
<path d="M16.1711 12.6608H17.3925V15.7418H18.483V12.6608H19.9343V12.2402H16.1711V12.6608Z" fill="white"/>
<path d="M5.2471 15.1128V12.2402H4.19995V15.3254C4.19995 15.3801 4.21073 15.4343 4.23167 15.4849C4.2526 15.5354 4.28329 15.5813 4.32198 15.62C4.36067 15.6587 4.4066 15.6894 4.45714 15.7103C4.50769 15.7313 4.56187 15.7421 4.61658 15.7421H7.29526V15.3223H5.45659C5.42917 15.3226 5.40198 15.3174 5.37658 15.3071C5.35117 15.2968 5.32806 15.2816 5.30858 15.2623C5.2891 15.243 5.27364 15.2201 5.26309 15.1948C5.25253 15.1695 5.2471 15.1423 5.2471 15.1149V15.1128Z" fill="white"/>
<path d="M20.5273 12.6563V15.3247C20.5275 15.4352 20.5714 15.5411 20.6495 15.6193C20.7276 15.6975 20.8335 15.7415 20.944 15.7418H23.8V15.3291H21.784C21.7564 15.3292 21.7291 15.3238 21.7035 15.3133C21.678 15.3029 21.6548 15.2875 21.6353 15.268C21.6157 15.2485 21.6002 15.2254 21.5896 15.1999C21.579 15.1745 21.5735 15.1472 21.5735 15.1196V14.0882H23.7668V13.6776H21.575V12.8612C21.5755 12.8058 21.5979 12.7528 21.6374 12.7139C21.6769 12.6751 21.7301 12.6534 21.7855 12.6538H23.8015V12.2402H20.944C20.8336 12.2404 20.7278 12.2842 20.6497 12.3622C20.5716 12.4402 20.5276 12.546 20.5273 12.6563Z" fill="white"/>
</svg>
