<svg width="28" height="28" viewBox="0 0 28 28" fill="none" xmlns="http://www.w3.org/2000/svg">
<path d="M13.3656 0.0147607C5.64201 0.362947 -0.337053 6.90668 0.0147631 14.6319C0.366579 22.357 6.90875 28.333 14.6334 27.9856C22.3581 27.6382 28.3361 21.0893 27.9853 13.3661C27.6345 5.64304 21.0918 -0.337056 13.3656 0.0147607Z" fill="#60584C"/>
<path d="M10.4259 14.3974C10.4433 15.6328 10.506 17.044 10.7233 18.165C10.7239 18.1724 10.7264 18.1796 10.7306 18.1858C10.903 18.4388 11.0826 19.4429 11.2244 19.7576C11.2325 19.7702 11.2432 19.7807 11.2558 19.7885C11.3533 19.8551 11.6909 19.9894 11.912 19.9622C11.9188 19.9626 11.9256 19.9603 11.9307 19.9558C11.9359 19.9513 11.939 19.9449 11.9395 19.9381C11.9893 19.6788 11.9574 19.4341 11.9278 18.9576C11.85 17.7849 11.7647 15.919 11.7782 14.7876C12.696 15.2989 16.1379 17.7663 17.9325 18.2778C17.9519 18.2834 17.9723 18.284 17.9919 18.2795C18.0115 18.2749 18.0297 18.2654 18.0445 18.2519C18.1397 18.1523 18.2001 18.1349 18.309 18.089C18.3588 18.066 18.4171 17.9335 18.4041 17.7821C19.541 17.7401 21.1178 17.3037 21.9451 16.2644C22.5155 15.5493 22.5051 14.5533 22.1499 14.2183C22.117 14.189 22.0499 14.1719 22.0011 14.1237C21.459 13.5839 20.723 13.4387 19.934 13.4859C19.1334 13.5333 18.491 13.8688 17.9927 14.1836C17.9927 14.1836 17.9875 14.1836 17.9865 14.1802C17.9434 13.4141 18.2496 12.4413 17.9813 11.8118C17.9772 11.8007 17.9694 11.7913 17.9592 11.7852C17.949 11.7791 17.937 11.7767 17.9253 11.7784C17.6857 11.7823 17.2198 11.9503 17.119 12.0377C17.107 12.0475 17.0974 12.06 17.0911 12.0742C17.0848 12.0884 17.0819 12.1038 17.0827 12.1193C17.0798 12.2979 17.0267 13.2287 16.9359 13.3184C16.9196 13.3353 16.9245 13.3524 16.9196 13.3905C16.8138 14.5105 16.8159 15.4625 16.9124 16.2657C16.9157 16.2916 17.0244 16.4057 17.1542 16.4526C17.2434 16.485 17.5989 16.4116 17.9045 16.297C17.9429 16.2852 17.9826 16.2784 18.0228 16.2768C18.0541 16.2768 18.0666 16.2382 18.0637 16.2011C18.0585 16.1133 18.0611 16.0253 18.0715 15.938C18.2468 15.2273 18.9719 14.3028 19.8863 14.1615C20.4686 14.0703 20.8528 14.2735 21.1183 14.5644C21.1876 14.6404 21.2705 15.2126 20.9402 15.8309C20.7017 16.2789 20.22 16.6709 19.5693 16.9174C18.8843 17.1767 18.1967 17.2322 17.4843 17.2063C16.7895 16.7876 15.6246 15.8169 14.6026 15.4306C14.4408 15.3673 14.1515 15.1148 14.0232 15.0111C13.5272 14.6118 12.466 13.9204 11.836 13.4965C11.8314 13.4924 11.8314 13.488 11.8314 13.4791C11.8243 13.4348 11.8273 13.3895 11.8399 13.3464C11.8437 13.3342 11.85 13.3229 11.8584 13.3132C11.8668 13.3036 11.8771 13.2958 11.8887 13.2904C12.1098 13.1437 13.0421 12.6334 13.1207 12.5126C13.1523 12.485 13.1872 12.4611 13.2244 12.4416C14.6244 11.5925 17.0845 10.4416 18.1597 9.33046C18.1724 9.3114 18.1778 9.28838 18.175 9.26564C18.1756 9.22019 18.1823 9.17502 18.1949 9.13134C18.2408 8.99746 18.2448 8.85274 18.2063 8.71653C18.2034 8.70621 18.198 8.69673 18.1907 8.68885C18.1834 8.68097 18.1744 8.67491 18.1643 8.67116C17.5908 8.61516 16.8281 8.96412 16.119 9.62861C15.9085 9.8259 15.7395 9.89927 15.5525 10.0056C14.7488 10.4619 12.8459 11.6436 11.9377 12.2282C11.9356 12.23 11.9331 12.2311 11.9304 12.2314C11.9277 12.2318 11.9249 12.2313 11.9225 12.2302C11.92 12.229 11.918 12.2271 11.9166 12.2248C11.9152 12.2225 11.9145 12.2198 11.9146 12.2171C11.9714 11.1481 12.1759 9.62627 12.4015 8.45182C12.4071 8.4227 12.4016 8.39252 12.3859 8.3673C12.312 8.2553 12.2682 8.12256 12.2413 8.09456C12.2379 8.09039 12.2338 8.08694 12.2291 8.08445C12.0751 8.00667 11.9519 8.03571 11.8371 8.06216C11.7222 8.0886 11.5822 8.17908 11.402 8.22238C11.3915 8.22417 11.3816 8.2286 11.3733 8.23527C11.3649 8.24194 11.3584 8.25061 11.3543 8.26049C10.9198 9.33953 10.5278 11.1865 10.4516 12.6184C10.4516 12.6233 10.4516 12.6334 10.442 12.6272C9.73064 12.1734 8.99257 11.763 8.2318 11.3981C8.22077 11.3937 8.20929 11.3907 8.19758 11.389C8.02958 11.3685 7.83591 11.2451 7.65546 11.1378C7.45609 11.0172 7.06409 10.7401 6.81935 10.5985C6.80748 10.5899 6.794 10.5837 6.77972 10.5803C6.76543 10.5769 6.75061 10.5764 6.73613 10.5788C6.54013 10.6125 6.13231 10.885 6.01927 11.0615C5.98272 11.1175 6.0579 11.2378 6.04883 11.3122C6.04795 11.3162 6.04811 11.3203 6.04929 11.3242C6.05047 11.328 6.05263 11.3315 6.05557 11.3343C6.28294 11.5676 6.88209 11.9824 7.5222 12.3254C8.26136 12.7242 9.01347 13.1032 9.32536 13.3003C9.33307 13.3054 9.3396 13.3121 9.34454 13.32C9.39211 13.3722 9.44911 13.4149 9.51255 13.446C9.65981 13.5338 9.69066 13.544 9.73318 13.5821C9.75262 13.6005 9.74329 13.6212 9.72306 13.6381C8.93906 14.1825 7.38791 15.1903 6.64642 15.6883C6.44619 15.7966 6.24059 15.8948 6.03042 15.9823C5.84168 16.0601 5.67212 16.185 5.60653 16.3271C5.59357 16.353 5.61094 16.3686 5.63064 16.3748C5.7499 16.4083 5.77894 16.4923 5.8619 16.5249C5.89232 16.5335 5.92393 16.5371 5.95549 16.5356C6.10949 16.5415 6.38198 16.437 6.86861 16.2244C7.42368 15.9774 9.1514 14.9178 9.3601 14.7964C9.364 14.7932 9.36901 14.7915 9.3741 14.7918C9.47443 14.7918 9.56725 14.7174 9.65929 14.6463C9.81329 14.5337 9.97752 14.4358 10.1498 14.3539L10.4298 14.1983L10.4259 14.3974Z" fill="#FFCC00"/>
</svg>
