<svg width="24" height="24" viewBox="0 0 24 24" fill="none" xmlns="http://www.w3.org/2000/svg">
<path d="M13.925 2.50399C14.317 2.50396 14.7023 2.60637 15.0426 2.80106C15.3829 2.99576 15.6664 3.27599 15.865 3.61399L16.679 5.00099H18.75C19.6118 5.00099 20.4383 5.34326 21.0477 5.95254C21.6572 6.56182 21.9997 7.38821 22 8.24999V17.75C22 18.1768 21.9159 18.5994 21.7526 18.9937C21.5893 19.388 21.3499 19.7463 21.0481 20.0481C20.7463 20.3499 20.388 20.5893 19.9937 20.7526C19.5994 20.9159 19.1768 21 18.75 21H5.25C4.38805 21 3.5614 20.6576 2.9519 20.0481C2.34241 19.4386 2 18.6119 2 17.75V8.24999C2 7.38804 2.34241 6.56139 2.9519 5.95189C3.5614 5.3424 4.38805 4.99999 5.25 4.99999H7.33L8.205 3.57599C8.40619 3.24821 8.68804 2.97747 9.02364 2.78963C9.35925 2.60178 9.7374 2.50309 10.122 2.50299L13.925 2.50399ZM13.925 4.00399H10.122C10.0126 4.00408 9.90448 4.02812 9.80532 4.07441C9.70616 4.12071 9.61833 4.18815 9.548 4.27199L9.483 4.36199L8.39 6.14199C8.32298 6.25131 8.22904 6.34162 8.11717 6.4043C8.0053 6.46698 7.87923 6.49992 7.751 6.49999H5.251C5.0211 6.49986 4.79343 6.54503 4.581 6.63291C4.36856 6.7208 4.17552 6.84968 4.01292 7.0122C3.85031 7.17472 3.72131 7.36768 3.63331 7.58006C3.5453 7.79245 3.5 8.02009 3.5 8.24999V17.75C3.5 18.716 4.284 19.5 5.25 19.5H18.75C19.2141 19.5 19.6592 19.3156 19.9874 18.9874C20.3156 18.6592 20.5 18.2141 20.5 17.75V8.24999C20.5 7.78586 20.3156 7.34074 19.9874 7.01255C19.6592 6.68437 19.2141 6.49999 18.75 6.49999H16.25C16.1193 6.50006 15.9908 6.46595 15.8773 6.40105C15.7638 6.33615 15.6692 6.24271 15.603 6.12999L14.571 4.37299C14.5048 4.26042 14.4104 4.16707 14.2971 4.10218C14.1838 4.03729 14.0556 4.0031 13.925 4.00299M12 7.99999C13.1935 7.99999 14.3381 8.4741 15.182 9.31801C16.0259 10.1619 16.5 11.3065 16.5 12.5C16.5 13.6935 16.0259 14.8381 15.182 15.682C14.3381 16.5259 13.1935 17 12 17C10.8065 17 9.66193 16.5259 8.81802 15.682C7.97411 14.8381 7.5 13.6935 7.5 12.5C7.5 11.3065 7.97411 10.1619 8.81802 9.31801C9.66193 8.4741 10.8065 7.99999 12 7.99999ZM12 9.49999C11.606 9.49999 11.2159 9.57759 10.8519 9.72835C10.488 9.87912 10.1573 10.1001 9.87868 10.3787C9.6001 10.6572 9.37913 10.988 9.22836 11.3519C9.0776 11.7159 9 12.106 9 12.5C9 12.894 9.0776 13.2841 9.22836 13.648C9.37913 14.012 9.6001 14.3427 9.87868 14.6213C10.1573 14.8999 10.488 15.1209 10.8519 15.2716C11.2159 15.4224 11.606 15.5 12 15.5C12.7956 15.5 13.5587 15.1839 14.1213 14.6213C14.6839 14.0587 15 13.2956 15 12.5C15 11.7043 14.6839 10.9413 14.1213 10.3787C13.5587 9.81606 12.7956 9.49999 12 9.49999Z" fill="#333333"/>
</svg>
