<svg width="24" height="24" viewBox="0 0 24 24" fill="none" xmlns="http://www.w3.org/2000/svg">
<g clip-path="url(#clip0_538_8610)">
<path d="M6.85714 6.83659V8.55087M17.1429 6.83659V8.55087M12 9.40801V11.5509C12 12.0055 11.8194 12.4416 11.4979 12.7631C11.1764 13.0845 10.7404 13.2652 10.2857 13.2652H9.42857M9.06171 17.6606C9.85485 18.4132 10.9066 18.8328 12 18.8328C13.0934 18.8328 14.1451 18.4132 14.9383 17.6606M17.1669 1.5943C17.8011 1.66401 18.4309 1.73544 19.056 1.80858C19.8577 1.90252 20.6043 2.26445 21.1746 2.83571C21.745 3.40698 22.1057 4.15411 22.1983 4.95601L22.404 6.83316M17.1669 22.3612C17.8011 22.2926 18.4309 22.2212 19.056 22.1469C19.8577 22.0529 20.6043 21.691 21.1746 21.1197C21.745 20.5485 22.1057 19.8013 22.1983 18.9994L22.404 17.1223M6.85714 1.5943C6.22285 1.66401 5.59314 1.73544 4.968 1.80858C4.1665 1.90244 3.42016 2.26412 2.84986 2.83505C2.27956 3.40597 1.91869 4.1527 1.82571 4.9543C1.75485 5.57487 1.68628 6.20059 1.62 6.83144M6.85714 22.3612C6.22285 22.2926 5.59314 22.2212 4.968 22.1469C4.16624 22.0529 3.41971 21.691 2.84937 21.1197C2.27904 20.5485 1.91833 19.8013 1.82571 18.9994C1.75485 18.38 1.68628 17.7543 1.62 17.1223" stroke="#333333" stroke-width="1.71429" stroke-linecap="round" stroke-linejoin="round"/>
</g>
<defs>
<clipPath id="clip0_538_8610">
<rect width="24" height="24" fill="white"/>
</clipPath>
</defs>
</svg>
