<svg width="24" height="24" viewBox="0 0 24 24" fill="none" xmlns="http://www.w3.org/2000/svg">
<path d="M20.895 5.04301C21.36 3.82801 20.169 2.63701 18.9555 3.10351L3.95998 8.87251C2.60098 9.39451 2.70898 11.352 4.11748 11.7225L10.1535 13.3125C10.282 13.3461 10.3994 13.4133 10.4935 13.5071C10.5876 13.6009 10.655 13.718 10.689 13.8465L12.2775 19.8825C12.648 21.2925 14.6055 21.3975 15.1275 20.04L20.895 5.04301ZM19.494 4.50302L13.7265 19.5015L12.1365 13.464C12.0352 13.0789 11.8336 12.7275 11.5521 12.4458C11.2707 12.1641 10.9195 11.9621 10.5345 11.8605L4.49698 10.272L19.494 4.50302Z" fill="#333333"/>
</svg>
