<svg width="24" height="24" viewBox="0 0 24 24" fill="none" xmlns="http://www.w3.org/2000/svg">
<path d="M5.571 7.88702C5.2845 6.00002 6.615 4.30502 8.6475 3.68402C9.00819 3.57449 9.39704 3.60623 9.73519 3.7728C10.0733 3.93937 10.3355 4.22831 10.4685 4.58102L11.121 6.32102C11.226 6.60094 11.245 6.90587 11.1755 7.19666C11.1061 7.48745 10.9512 7.75084 10.731 7.95302L8.79 9.73052C8.6942 9.81823 8.62283 9.92932 8.58286 10.0529C8.54289 10.1765 8.5357 10.3083 8.562 10.4355L8.58 10.5135L8.6265 10.7085C8.86849 11.6558 9.23626 12.5664 9.72 13.416C10.2482 14.3181 10.9028 15.14 11.664 15.8565L11.724 15.9105C11.8209 15.9965 11.9384 16.056 12.0651 16.083C12.1918 16.1101 12.3234 16.1039 12.447 16.065L14.9565 15.2745C15.2417 15.185 15.5471 15.1827 15.8337 15.2679C16.1202 15.3532 16.3747 15.5221 16.5645 15.753L17.7525 17.1945C18.2475 17.7945 18.1875 18.6765 17.619 19.206C16.0635 20.6565 13.9245 20.9535 12.4365 19.758C10.6118 18.2875 9.07403 16.493 7.9005 14.4645C6.71548 12.4387 5.92607 10.2069 5.571 7.88702ZM10.134 10.5345L11.742 9.05852C12.1828 8.65433 12.4926 8.12763 12.6319 7.54603C12.7711 6.96444 12.7334 6.35451 12.5235 5.79452L11.8725 4.05452C11.6054 3.34468 11.0782 2.76311 10.3978 2.42796C9.71747 2.0928 8.93505 2.02918 8.2095 2.25002C5.685 3.02252 3.6585 5.28602 4.0875 8.11352C4.3875 10.0875 5.079 12.5985 6.6045 15.2205C7.87067 17.4077 9.52942 19.3426 11.4975 20.928C13.7295 22.7205 16.7085 22.1085 18.6435 20.3055C19.1972 19.79 19.5332 19.0826 19.5831 18.3278C19.633 17.5729 19.393 16.8274 18.912 16.2435L17.724 14.8005C17.344 14.3392 16.8348 14.002 16.2618 13.832C15.6888 13.662 15.0781 13.6671 14.508 13.8465L12.4245 14.502C11.8865 13.9474 11.4153 13.3317 11.0205 12.6675C10.6395 11.9958 10.3423 11.28 10.1355 10.536" fill="#333333"/>
</svg>
