<svg width="24" height="24" viewBox="0 0 24 24" fill="none" xmlns="http://www.w3.org/2000/svg">
<path d="M16.875 2C17.7038 2 18.4987 2.32924 19.0847 2.91529C19.6708 3.50134 20 4.2962 20 5.125V18.125C20 18.4234 19.8815 18.7095 19.6705 18.9205C19.4595 19.1315 19.1734 19.25 18.875 19.25H5.2875C5.37395 19.6735 5.60407 20.0541 5.93891 20.3275C6.27375 20.6008 6.69276 20.7501 7.125 20.75H19.375C19.5408 20.75 19.6997 20.8158 19.8169 20.9331C19.9342 21.0503 20 21.2092 20 21.375C20 21.5408 19.9342 21.6997 19.8169 21.8169C19.6997 21.9342 19.5408 22 19.375 22H7.125C6.2962 22 5.50134 21.6708 4.91529 21.0847C4.32924 20.4987 4 19.7038 4 18.875V5.125C4 4.2962 4.32924 3.50134 4.91529 2.91529C5.50134 2.32924 6.2962 2 7.125 2H16.875ZM7.125 3.25C6.62772 3.25 6.15081 3.44754 5.79917 3.79917C5.44754 4.15081 5.25 4.62772 5.25 5.125V18H18.75V5.125C18.75 4.62772 18.5525 4.15081 18.2008 3.79917C17.8492 3.44754 17.3723 3.25 16.875 3.25H7.125ZM14.5 11C14.8978 11 15.2794 11.158 15.5607 11.4393C15.842 11.7206 16 12.1022 16 12.5V12.75C16 13.9925 14.75 15.5 12 15.5C9.25 15.5 8 13.9925 8 12.75V12.5C8 12.1022 8.15804 11.7206 8.43934 11.4393C8.72064 11.158 9.10218 11 9.5 11H14.5ZM12 5.25C12.5967 5.25 13.169 5.48705 13.591 5.90901C14.0129 6.33097 14.25 6.90326 14.25 7.5C14.25 8.09674 14.0129 8.66903 13.591 9.09099C13.169 9.51295 12.5967 9.75 12 9.75C11.4033 9.75 10.831 9.51295 10.409 9.09099C9.98705 8.66903 9.75 8.09674 9.75 7.5C9.75 6.90326 9.98705 6.33097 10.409 5.90901C10.831 5.48705 11.4033 5.25 12 5.25Z" fill="#333333"/>
</svg>
