<svg width="30" height="30" viewBox="0 0 30 30" fill="none" xmlns="http://www.w3.org/2000/svg">
<path d="M4.99996 15L4.55746 15.4425L4.11621 15L4.55746 14.5575L4.99996 15ZM23.75 14.375C23.9157 14.375 24.0747 14.4409 24.1919 14.5581C24.3091 14.6753 24.375 14.8342 24.375 15C24.375 15.1658 24.3091 15.3247 24.1919 15.4419C24.0747 15.5592 23.9157 15.625 23.75 15.625V14.375ZM12.0575 22.9425L4.55746 15.4425L5.44246 14.5575L12.9425 22.0575L12.0575 22.9425ZM4.55746 14.5575L12.0575 7.0575L12.9425 7.9425L5.44246 15.4425L4.55746 14.5575ZM4.99996 14.375H23.75V15.625H4.99996V14.375Z" fill="#222222"/>
</svg>
