<svg width="20" height="20" viewBox="0 0 20 20" fill="none" xmlns="http://www.w3.org/2000/svg">
<g clip-path="url(#clip0_1725_4613)">
<path d="M1.71981 12.271L12.4457 1.75964M14.8441 7.67517L13.0048 9.47761M11.4347 10.9974L10.6162 11.7995" stroke="white" stroke-linecap="round"/>
<path d="M1.9104 13.7961C1.56893 13.4547 1.29805 13.0495 1.11324 12.6034C0.928434 12.1573 0.833313 11.6792 0.833313 11.1964C0.833313 10.7136 0.928434 10.2355 1.11324 9.78943C1.29805 9.34338 1.56893 8.9381 1.9104 8.59675L8.59656 1.91058C8.93791 1.56911 9.34319 1.29824 9.78925 1.11343C10.2353 0.928617 10.7134 0.833496 11.1962 0.833496C11.6791 0.833496 12.1572 0.928617 12.6032 1.11343C13.0493 1.29824 13.4545 1.56911 13.7959 1.91058L18.0896 6.20425C18.431 6.5456 18.7019 6.95088 18.8867 7.39693C19.0715 7.84299 19.1666 8.32109 19.1666 8.80391C19.1666 9.28674 19.0715 9.76484 18.8867 10.2109C18.7019 10.657 18.431 11.0622 18.0896 11.4036L11.4034 18.0897C11.062 18.4312 10.6568 18.7021 10.2107 18.8869C9.76465 19.0717 9.28656 19.1668 8.80373 19.1668C8.3209 19.1668 7.84281 19.0717 7.39675 18.8869C6.95069 18.7021 6.54541 18.4312 6.20406 18.0897L1.9104 13.7961Z" stroke="white"/>
<path d="M2.5 19.167H16.6667" stroke="white" stroke-linecap="round"/>
</g>
<defs>
<clipPath id="clip0_1725_4613">
<rect width="20" height="20" fill="white"/>
</clipPath>
</defs>
</svg>
