<svg width="120" height="120" viewBox="0 0 120 120" fill="none" xmlns="http://www.w3.org/2000/svg">
<g clip-path="url(#clip0_2132_6862)">
<rect width="120" height="120" fill="white"/>
<path d="M4.75388 -1.0083H-1.00842V4.754H4.75388V-1.0083Z" fill="#2F2F2F"/>
<path d="M10.5162 -1.0083H4.75388V4.754H10.5162V-1.0083Z" fill="#2F2F2F"/>
<path d="M16.2785 -1.0083H10.5162V4.754H16.2785V-1.0083Z" fill="#2F2F2F"/>
<path d="M22.0408 -1.0083H16.2785V4.754H22.0408V-1.0083Z" fill="#2F2F2F"/>
<path d="M27.8031 -1.0083H22.0408V4.754H27.8031V-1.0083Z" fill="#2F2F2F"/>
<path d="M33.5654 -1.0083H27.8031V4.754H33.5654V-1.0083Z" fill="#2F2F2F"/>
<path d="M39.3277 -1.0083H33.5654V4.754H39.3277V-1.0083Z" fill="#2F2F2F"/>
<path d="M62.3769 -1.0083H56.6146V4.754H62.3769V-1.0083Z" fill="#2F2F2F"/>
<path d="M68.1392 -1.0083H62.3769V4.754H68.1392V-1.0083Z" fill="#2F2F2F"/>
<path d="M73.9015 -1.0083H68.1392V4.754H73.9015V-1.0083Z" fill="#2F2F2F"/>
<path d="M85.4261 -1.0083H79.6638V4.754H85.4261V-1.0083Z" fill="#2F2F2F"/>
<path d="M91.1885 -1.0083H85.4261V4.754H91.1885V-1.0083Z" fill="#2F2F2F"/>
<path d="M96.9508 -1.0083H91.1885V4.754H96.9508V-1.0083Z" fill="#2F2F2F"/>
<path d="M102.713 -1.0083H96.9508V4.754H102.713V-1.0083Z" fill="#2F2F2F"/>
<path d="M108.475 -1.0083H102.713V4.754H108.475V-1.0083Z" fill="#2F2F2F"/>
<path d="M114.238 -1.0083H108.475V4.754H114.238V-1.0083Z" fill="#2F2F2F"/>
<path d="M120 -1.0083H114.238V4.754H120V-1.0083Z" fill="#2F2F2F"/>
<path d="M4.75388 4.754H-1.00842V10.5163H4.75388V4.754Z" fill="#2F2F2F"/>
<path d="M39.3277 4.754H33.5654V10.5163H39.3277V4.754Z" fill="#2F2F2F"/>
<path d="M50.8523 4.754H45.09V10.5163H50.8523V4.754Z" fill="#2F2F2F"/>
<path d="M62.3769 4.754H56.6146V10.5163H62.3769V4.754Z" fill="#2F2F2F"/>
<path d="M68.1392 4.754H62.3769V10.5163H68.1392V4.754Z" fill="#2F2F2F"/>
<path d="M85.4261 4.754H79.6638V10.5163H85.4261V4.754Z" fill="#2F2F2F"/>
<path d="M120 4.754H114.238V10.5163H120V4.754Z" fill="#2F2F2F"/>
<path d="M4.75388 10.5163H-1.00842V16.2786H4.75388V10.5163Z" fill="#2F2F2F"/>
<path d="M16.2785 10.5163H10.5162V16.2786H16.2785V10.5163Z" fill="#2F2F2F"/>
<path d="M22.0408 10.5163H16.2785V16.2786H22.0408V10.5163Z" fill="#2F2F2F"/>
<path d="M27.8031 10.5163H22.0408V16.2786H27.8031V10.5163Z" fill="#2F2F2F"/>
<path d="M39.3277 10.5163H33.5654V16.2786H39.3277V10.5163Z" fill="#2F2F2F"/>
<path d="M50.8523 10.5163H45.09V16.2786H50.8523V10.5163Z" fill="#2F2F2F"/>
<path d="M62.3769 10.5163H56.6146V16.2786H62.3769V10.5163Z" fill="#2F2F2F"/>
<path d="M73.9015 10.5163H68.1392V16.2786H73.9015V10.5163Z" fill="#2F2F2F"/>
<path d="M85.4261 10.5163H79.6638V16.2786H85.4261V10.5163Z" fill="#2F2F2F"/>
<path d="M96.9508 10.5163H91.1885V16.2786H96.9508V10.5163Z" fill="#2F2F2F"/>
<path d="M102.713 10.5163H96.9508V16.2786H102.713V10.5163Z" fill="#2F2F2F"/>
<path d="M108.475 10.5163H102.713V16.2786H108.475V10.5163Z" fill="#2F2F2F"/>
<path d="M120 10.5163H114.238V16.2786H120V10.5163Z" fill="#2F2F2F"/>
<path d="M4.75388 16.2786H-1.00842V22.0409H4.75388V16.2786Z" fill="#2F2F2F"/>
<path d="M16.2785 16.2786H10.5162V22.0409H16.2785V16.2786Z" fill="#2F2F2F"/>
<path d="M22.0408 16.2786H16.2785V22.0409H22.0408V16.2786Z" fill="#2F2F2F"/>
<path d="M27.8031 16.2786H22.0408V22.0409H27.8031V16.2786Z" fill="#2F2F2F"/>
<path d="M39.3277 16.2786H33.5654V22.0409H39.3277V16.2786Z" fill="#2F2F2F"/>
<path d="M50.8523 16.2786H45.09V22.0409H50.8523V16.2786Z" fill="#2F2F2F"/>
<path d="M56.6146 16.2786H50.8523V22.0409H56.6146L56.6146 16.2786Z" fill="#2F2F2F"/>
<path d="M62.3769 16.2786H56.6146L56.6146 22.0409H62.3769V16.2786Z" fill="#2F2F2F"/>
<path d="M68.1392 16.2786H62.3769V22.0409H68.1392V16.2786Z" fill="#2F2F2F"/>
<path d="M85.4261 16.2786H79.6638V22.0409H85.4261V16.2786Z" fill="#2F2F2F"/>
<path d="M96.9508 16.2786H91.1885V22.0409H96.9508V16.2786Z" fill="#2F2F2F"/>
<path d="M102.713 16.2786H96.9508V22.0409H102.713V16.2786Z" fill="#2F2F2F"/>
<path d="M108.475 16.2786H102.713V22.0409H108.475V16.2786Z" fill="#2F2F2F"/>
<path d="M120 16.2786H114.238V22.0409H120V16.2786Z" fill="#2F2F2F"/>
<path d="M4.75388 22.0409H-1.00842V27.8032H4.75388V22.0409Z" fill="#2F2F2F"/>
<path d="M16.2785 22.0409H10.5162V27.8032H16.2785V22.0409Z" fill="#2F2F2F"/>
<path d="M22.0408 22.0409H16.2785V27.8032H22.0408V22.0409Z" fill="#2F2F2F"/>
<path d="M27.8031 22.0409H22.0408V27.8032H27.8031V22.0409Z" fill="#2F2F2F"/>
<path d="M39.3277 22.0409H33.5654V27.8032H39.3277V22.0409Z" fill="#2F2F2F"/>
<path d="M73.9015 22.0409H68.1392V27.8032H73.9015V22.0409Z" fill="#2F2F2F"/>
<path d="M85.4261 22.0409H79.6638V27.8032H85.4261V22.0409Z" fill="#2F2F2F"/>
<path d="M96.9508 22.0409H91.1885V27.8032H96.9508V22.0409Z" fill="#2F2F2F"/>
<path d="M102.713 22.0409H96.9508V27.8032H102.713V22.0409Z" fill="#2F2F2F"/>
<path d="M108.475 22.0409H102.713V27.8032H108.475V22.0409Z" fill="#2F2F2F"/>
<path d="M120 22.0409H114.238V27.8032H120V22.0409Z" fill="#2F2F2F"/>
<path d="M4.75388 27.8032H-1.00842V33.5655H4.75388V27.8032Z" fill="#2F2F2F"/>
<path d="M39.3277 27.8032H33.5654V33.5655H39.3277V27.8032Z" fill="#2F2F2F"/>
<path d="M50.8523 27.8032H45.09V33.5655H50.8523V27.8032Z" fill="#2F2F2F"/>
<path d="M56.6146 27.8032H50.8523V33.5655H56.6146V27.8032Z" fill="#2F2F2F"/>
<path d="M68.1392 27.8032H62.3769V33.5655H68.1392V27.8032Z" fill="#2F2F2F"/>
<path d="M73.9015 27.8032H68.1392V33.5655H73.9015V27.8032Z" fill="#2F2F2F"/>
<path d="M85.4261 27.8032H79.6638V33.5655H85.4261V27.8032Z" fill="#2F2F2F"/>
<path d="M120 27.8032H114.238V33.5655H120V27.8032Z" fill="#2F2F2F"/>
<path d="M4.75388 33.5655H-1.00842V39.3278H4.75388V33.5655Z" fill="#2F2F2F"/>
<path d="M10.5162 33.5655H4.75388V39.3278H10.5162V33.5655Z" fill="#2F2F2F"/>
<path d="M16.2785 33.5655H10.5162V39.3278H16.2785V33.5655Z" fill="#2F2F2F"/>
<path d="M22.0408 33.5655H16.2785V39.3278H22.0408V33.5655Z" fill="#2F2F2F"/>
<path d="M27.8031 33.5655H22.0408V39.3278H27.8031V33.5655Z" fill="#2F2F2F"/>
<path d="M33.5654 33.5655H27.8031V39.3278H33.5654V33.5655Z" fill="#2F2F2F"/>
<path d="M39.3277 33.5655H33.5654V39.3278H39.3277V33.5655Z" fill="#2F2F2F"/>
<path d="M50.8523 33.5655H45.09V39.3278H50.8523V33.5655Z" fill="#2F2F2F"/>
<path d="M62.3769 33.5655H56.6146L56.6146 39.3278H62.3769L62.3769 33.5655Z" fill="#2F2F2F"/>
<path d="M73.9015 33.5655H68.1392V39.3278H73.9015V33.5655Z" fill="#2F2F2F"/>
<path d="M85.4261 33.5655H79.6638V39.3278H85.4261V33.5655Z" fill="#2F2F2F"/>
<path d="M91.1885 33.5655H85.4261V39.3278H91.1885V33.5655Z" fill="#2F2F2F"/>
<path d="M96.9508 33.5655H91.1885V39.3278H96.9508V33.5655Z" fill="#2F2F2F"/>
<path d="M102.713 33.5655H96.9508V39.3278H102.713V33.5655Z" fill="#2F2F2F"/>
<path d="M108.475 33.5655H102.713V39.3278H108.475V33.5655Z" fill="#2F2F2F"/>
<path d="M114.238 33.5655H108.475V39.3278H114.238V33.5655Z" fill="#2F2F2F"/>
<path d="M120 33.5655H114.238V39.3278H120V33.5655Z" fill="#2F2F2F"/>
<path d="M56.6146 39.3278H50.8523L50.8523 45.0901H56.6146L56.6146 39.3278Z" fill="#2F2F2F"/>
<path d="M68.1392 39.3278H62.3769L62.3769 45.0901H68.1392V39.3278Z" fill="#2F2F2F"/>
<path d="M73.9015 39.3278H68.1392V45.0901H73.9015V39.3278Z" fill="#2F2F2F"/>
<path d="M10.5162 45.0901H4.75388V50.8524H10.5162V45.0901Z" fill="#2F2F2F"/>
<path d="M16.2785 45.0901H10.5162V50.8524H16.2785V45.0901Z" fill="#2F2F2F"/>
<path d="M39.3277 45.0901H33.5654V50.8524H39.3277V45.0901Z" fill="#2F2F2F"/>
<path d="M62.3769 45.0901H56.6146L56.6146 50.8524H62.3769L62.3769 45.0901Z" fill="#2F2F2F"/>
<path d="M73.9015 45.0901H68.1392V50.8524H73.9015V45.0901Z" fill="#2F2F2F"/>
<path d="M79.6638 45.0901L73.9015 45.0901V50.8524H79.6638V45.0901Z" fill="#2F2F2F"/>
<path d="M91.1885 45.0901H85.4261V50.8524H91.1885V45.0901Z" fill="#2F2F2F"/>
<path d="M102.713 45.0901H96.9508V50.8524H102.713V45.0901Z" fill="#2F2F2F"/>
<path d="M108.475 45.0901H102.713V50.8524H108.475V45.0901Z" fill="#2F2F2F"/>
<path d="M114.238 45.0901H108.475V50.8524H114.238V45.0901Z" fill="#2F2F2F"/>
<path d="M16.2785 50.8524H10.5162V56.6147H16.2785V50.8524Z" fill="#2F2F2F"/>
<path d="M27.8031 50.8524H22.0408V56.6147H27.8031V50.8524Z" fill="#2F2F2F"/>
<path d="M50.8523 50.8524H45.09V56.6147H50.8523V50.8524Z" fill="#2F2F2F"/>
<path d="M56.6146 50.8524L50.8523 50.8524V56.6147H56.6146L56.6146 50.8524Z" fill="#2F2F2F"/>
<path d="M73.9015 50.8524H68.1392V56.6147H73.9015V50.8524Z" fill="#2F2F2F"/>
<path d="M91.1885 50.8524H85.4261V56.6147H91.1885V50.8524Z" fill="#2F2F2F"/>
<path d="M102.713 50.8524H96.9508V56.6147H102.713V50.8524Z" fill="#2F2F2F"/>
<path d="M108.475 50.8524H102.713V56.6147H108.475V50.8524Z" fill="#2F2F2F"/>
<path d="M114.238 50.8524H108.475V56.6147H114.238V50.8524Z" fill="#2F2F2F"/>
<path d="M4.75388 56.6147H-1.00842V62.377H4.75388V56.6147Z" fill="#2F2F2F"/>
<path d="M22.0408 56.6147H16.2785V62.377H22.0408V56.6147Z" fill="#2F2F2F"/>
<path d="M33.5654 56.6147L27.8031 56.6147V62.377H33.5654V56.6147Z" fill="#2F2F2F"/>
<path d="M39.3277 56.6147H33.5654V62.377H39.3277V56.6147Z" fill="#2F2F2F"/>
<path d="M45.09 56.6147L39.3277 56.6147V62.377H45.09V56.6147Z" fill="#2F2F2F"/>
<path d="M50.8523 56.6147H45.09V62.377H50.8523V56.6147Z" fill="#2F2F2F"/>
<path d="M56.6146 56.6147H50.8523V62.377H56.6146V56.6147Z" fill="#2F2F2F"/>
<path d="M73.9015 56.6147H68.1392V62.377H73.9015V56.6147Z" fill="#2F2F2F"/>
<path d="M96.9508 56.6147H91.1885V62.377H96.9508V56.6147Z" fill="#2F2F2F"/>
<path d="M102.713 56.6147H96.9508V62.377H102.713V56.6147Z" fill="#2F2F2F"/>
<path d="M108.475 56.6147H102.713V62.377H108.475V56.6147Z" fill="#2F2F2F"/>
<path d="M4.75388 62.377H-1.00842V68.1394H4.75388V62.377Z" fill="#2F2F2F"/>
<path d="M16.2785 62.377L10.5162 62.3771V68.1394H16.2785V62.377Z" fill="#2F2F2F"/>
<path d="M45.09 62.377H39.3277V68.1394H45.09V62.377Z" fill="#2F2F2F"/>
<path d="M73.9015 62.377H68.1392V68.1394H73.9015V62.377Z" fill="#2F2F2F"/>
<path d="M79.6638 62.3771L73.9015 62.377V68.1394H79.6638V62.3771Z" fill="#2F2F2F"/>
<path d="M85.4261 62.3771H79.6638V68.1394H85.4261V62.3771Z" fill="#2F2F2F"/>
<path d="M108.475 62.377H102.713V68.1394H108.475V62.377Z" fill="#2F2F2F"/>
<path d="M114.238 62.3771L108.475 62.377V68.1394H114.238V62.3771Z" fill="#2F2F2F"/>
<path d="M120 62.3771H114.238V68.1394H120V62.3771Z" fill="#2F2F2F"/>
<path d="M4.75388 68.1394H-1.00842V73.9017H4.75388V68.1394Z" fill="#2F2F2F"/>
<path d="M10.5162 68.1394H4.75388V73.9017H10.5162V68.1394Z" fill="#2F2F2F"/>
<path d="M16.2785 68.1394H10.5162V73.9017H16.2785V68.1394Z" fill="#2F2F2F"/>
<path d="M33.5654 68.1394H27.8031V73.9017H33.5654V68.1394Z" fill="#2F2F2F"/>
<path d="M39.3277 68.1394H33.5654V73.9017H39.3277V68.1394Z" fill="#2F2F2F"/>
<path d="M50.8523 68.1394H45.09V73.9017H50.8523V68.1394Z" fill="#2F2F2F"/>
<path d="M62.3769 68.1394H56.6146V73.9017H62.3769V68.1394Z" fill="#2F2F2F"/>
<path d="M68.1392 68.1394H62.3769V73.9017H68.1392V68.1394Z" fill="#2F2F2F"/>
<path d="M85.4261 68.1394H79.6638V73.9017H85.4261V68.1394Z" fill="#2F2F2F"/>
<path d="M96.9508 68.1394H91.1885V73.9017H96.9508V68.1394Z" fill="#2F2F2F"/>
<path d="M114.238 68.1394H108.475V73.9017H114.238V68.1394Z" fill="#2F2F2F"/>
<path d="M120 68.1394H114.238V73.9017H120V68.1394Z" fill="#2F2F2F"/>
<path d="M62.3769 73.9017H56.6146V79.664H62.3769V73.9017Z" fill="#2F2F2F"/>
<path d="M68.1392 73.9017H62.3769V79.664H68.1392V73.9017Z" fill="#2F2F2F"/>
<path d="M73.9015 73.9017H68.1392V79.664H73.9015V73.9017Z" fill="#2F2F2F"/>
<path d="M79.6638 73.9017H73.9015V79.664H79.6638V73.9017Z" fill="#2F2F2F"/>
<path d="M85.4261 73.9017H79.6638V79.664H85.4261V73.9017Z" fill="#2F2F2F"/>
<path d="M91.1885 73.9017H85.4261V79.664H91.1885V73.9017Z" fill="#2F2F2F"/>
<path d="M102.713 73.9017H96.9508V79.664H102.713V73.9017Z" fill="#2F2F2F"/>
<path d="M108.475 73.9017H102.713V79.664H108.475V73.9017Z" fill="#2F2F2F"/>
<path d="M4.75388 79.664H-1.00842V85.4263H4.75388V79.664Z" fill="#2F2F2F"/>
<path d="M10.5162 79.664H4.75388V85.4263H10.5162V79.664Z" fill="#2F2F2F"/>
<path d="M16.2785 79.664H10.5162V85.4263H16.2785V79.664Z" fill="#2F2F2F"/>
<path d="M22.0408 79.664H16.2785V85.4263H22.0408V79.664Z" fill="#2F2F2F"/>
<path d="M27.8031 79.664H22.0408V85.4263H27.8031V79.664Z" fill="#2F2F2F"/>
<path d="M33.5654 79.664H27.8031V85.4263H33.5654V79.664Z" fill="#2F2F2F"/>
<path d="M39.3277 79.664H33.5654V85.4263H39.3277V79.664Z" fill="#2F2F2F"/>
<path d="M62.3769 79.664H56.6146V85.4263H62.3769V79.664Z" fill="#2F2F2F"/>
<path d="M85.4261 79.664H79.6638V85.4263H85.4261V79.664Z" fill="#2F2F2F"/>
<path d="M91.1885 79.664H85.4261V85.4263H91.1885V79.664Z" fill="#2F2F2F"/>
<path d="M96.9508 79.664H91.1885V85.4263H96.9508V79.664Z" fill="#2F2F2F"/>
<path d="M114.238 79.664H108.475V85.4263H114.238V79.664Z" fill="#2F2F2F"/>
<path d="M4.75388 85.4263H-1.00842V91.1886H4.75388V85.4263Z" fill="#2F2F2F"/>
<path d="M39.3277 85.4263H33.5654V91.1886H39.3277V85.4263Z" fill="#2F2F2F"/>
<path d="M56.6146 85.4263H50.8523V91.1886H56.6146L56.6146 85.4263Z" fill="#2F2F2F"/>
<path d="M62.3769 85.4263H56.6146L56.6146 91.1886H62.3769V85.4263Z" fill="#2F2F2F"/>
<path d="M79.6638 85.4263H73.9015V91.1886H79.6638V85.4263Z" fill="#2F2F2F"/>
<path d="M120 85.4263H114.238V91.1886H120V85.4263Z" fill="#2F2F2F"/>
<path d="M4.75388 91.1886H-1.00842V96.9509H4.75388V91.1886Z" fill="#2F2F2F"/>
<path d="M16.2785 91.1886H10.5162V96.9509H16.2785V91.1886Z" fill="#2F2F2F"/>
<path d="M22.0408 91.1886H16.2785V96.9509H22.0408V91.1886Z" fill="#2F2F2F"/>
<path d="M27.8031 91.1886H22.0408V96.9509H27.8031V91.1886Z" fill="#2F2F2F"/>
<path d="M39.3277 91.1886H33.5654V96.9509H39.3277V91.1886Z" fill="#2F2F2F"/>
<path d="M62.3769 91.1886H56.6146L56.6146 96.9509H62.3769V91.1886Z" fill="#2F2F2F"/>
<path d="M73.9015 91.1886H68.1392V96.9509H73.9015V91.1886Z" fill="#2F2F2F"/>
<path d="M85.4261 91.1886H79.6638V96.9509H85.4261V91.1886Z" fill="#2F2F2F"/>
<path d="M102.713 91.1886H96.9508V96.9509H102.713V91.1886Z" fill="#2F2F2F"/>
<path d="M108.475 91.1886H102.713V96.9509H108.475V91.1886Z" fill="#2F2F2F"/>
<path d="M114.238 91.1886H108.475V96.9509H114.238V91.1886Z" fill="#2F2F2F"/>
<path d="M4.75388 96.9509H-1.00842V102.713H4.75388V96.9509Z" fill="#2F2F2F"/>
<path d="M16.2785 96.9509H10.5162V102.713H16.2785V96.9509Z" fill="#2F2F2F"/>
<path d="M22.0408 96.9509H16.2785V102.713H22.0408V96.9509Z" fill="#2F2F2F"/>
<path d="M27.8031 96.9509H22.0408V102.713H27.8031V96.9509Z" fill="#2F2F2F"/>
<path d="M39.3277 96.9509H33.5654V102.713H39.3277V96.9509Z" fill="#2F2F2F"/>
<path d="M62.3769 96.9509H56.6146V102.713H62.3769V96.9509Z" fill="#2F2F2F"/>
<path d="M91.1885 96.9509H85.4261V102.713H91.1885V96.9509Z" fill="#2F2F2F"/>
<path d="M96.9508 96.9509H91.1885V102.713H96.9508V96.9509Z" fill="#2F2F2F"/>
<path d="M108.475 96.9509H102.713V102.713H108.475V96.9509Z" fill="#2F2F2F"/>
<path d="M114.238 96.9509H108.475V102.713H114.238V96.9509Z" fill="#2F2F2F"/>
<path d="M120 96.9509H114.238V102.713H120V96.9509Z" fill="#2F2F2F"/>
<path d="M4.75388 102.713H-1.00842V108.475H4.75388V102.713Z" fill="#2F2F2F"/>
<path d="M16.2785 102.713H10.5162V108.475H16.2785V102.713Z" fill="#2F2F2F"/>
<path d="M22.0408 102.713H16.2785V108.475H22.0408V102.713Z" fill="#2F2F2F"/>
<path d="M27.8031 102.713H22.0408V108.475H27.8031V102.713Z" fill="#2F2F2F"/>
<path d="M39.3277 102.713H33.5654V108.475H39.3277V102.713Z" fill="#2F2F2F"/>
<path d="M50.8523 102.713H45.09V108.475H50.8523V102.713Z" fill="#2F2F2F"/>
<path d="M62.3769 102.713H56.6146V108.475H62.3769V102.713Z" fill="#2F2F2F"/>
<path d="M73.9015 102.713H68.1392V108.475H73.9015V102.713Z" fill="#2F2F2F"/>
<path d="M79.6638 102.713H73.9015V108.475H79.6638V102.713Z" fill="#2F2F2F"/>
<path d="M85.4261 102.713H79.6638V108.475H85.4261V102.713Z" fill="#2F2F2F"/>
<path d="M108.475 102.713H102.713V108.475H108.475V102.713Z" fill="#2F2F2F"/>
<path d="M4.75388 108.475H-1.00842V114.238H4.75388V108.475Z" fill="#2F2F2F"/>
<path d="M39.3277 108.475H33.5654V114.238H39.3277V108.475Z" fill="#2F2F2F"/>
<path d="M50.8523 108.475H45.09V114.238H50.8523V108.475Z" fill="#2F2F2F"/>
<path d="M56.6146 108.475H50.8523V114.238H56.6146L56.6146 108.475Z" fill="#2F2F2F"/>
<path d="M62.3769 108.475H56.6146L56.6146 114.238H62.3769V108.475Z" fill="#2F2F2F"/>
<path d="M68.1392 108.475H62.3769V114.238H68.1392V108.475Z" fill="#2F2F2F"/>
<path d="M79.6638 108.475H73.9015V114.238H79.6638V108.475Z" fill="#2F2F2F"/>
<path d="M102.713 108.475H96.9508V114.238H102.713V108.475Z" fill="#2F2F2F"/>
<path d="M4.75388 114.238H-1.00842V120H4.75388V114.238Z" fill="#2F2F2F"/>
<path d="M10.5162 114.238H4.75388V120H10.5162V114.238Z" fill="#2F2F2F"/>
<path d="M16.2785 114.238H10.5162V120H16.2785V114.238Z" fill="#2F2F2F"/>
<path d="M22.0408 114.238H16.2785V120H22.0408V114.238Z" fill="#2F2F2F"/>
<path d="M27.8031 114.238H22.0408V120H27.8031V114.238Z" fill="#2F2F2F"/>
<path d="M33.5654 114.238H27.8031V120H33.5654V114.238Z" fill="#2F2F2F"/>
<path d="M39.3277 114.238H33.5654V120H39.3277V114.238Z" fill="#2F2F2F"/>
<path d="M56.6146 114.238H50.8523L50.8523 120H56.6146V114.238Z" fill="#2F2F2F"/>
<path d="M62.3769 114.238H56.6146V120H62.3769V114.238Z" fill="#2F2F2F"/>
<path d="M68.1392 114.238H62.3769V120H68.1392V114.238Z" fill="#2F2F2F"/>
<path d="M73.9015 114.238H68.1392V120H73.9015V114.238Z" fill="#2F2F2F"/>
<path d="M91.1885 114.238H85.4261V120H91.1885V114.238Z" fill="#2F2F2F"/>
<path d="M96.9508 114.238H91.1885V120H96.9508V114.238Z" fill="#2F2F2F"/>
<path d="M114.238 114.238H108.475V120H114.238V114.238Z" fill="#2F2F2F"/>
</g>
<defs>
<clipPath id="clip0_2132_6862">
<rect width="120" height="120" fill="white"/>
</clipPath>
</defs>
</svg>
