<svg width="119" height="119" viewBox="0 0 119 119" fill="none" xmlns="http://www.w3.org/2000/svg">
<path d="M4.85714 -1H-1V4.85714H4.85714V-1Z" fill="#2F2F2F"/>
<path d="M10.7143 -1H4.85714V4.85714H10.7143V-1Z" fill="#2F2F2F"/>
<path d="M16.5714 -1H10.7143V4.85714H16.5714V-1Z" fill="#2F2F2F"/>
<path d="M22.4286 -1H16.5714V4.85714H22.4286V-1Z" fill="#2F2F2F"/>
<path d="M28.2857 -1H22.4286V4.85714H28.2857V-1Z" fill="#2F2F2F"/>
<path d="M34.1429 -1H28.2857V4.85714H34.1429V-1Z" fill="#2F2F2F"/>
<path d="M40 -1H34.1429V4.85714H40V-1Z" fill="#2F2F2F"/>
<path d="M63.4286 -1H57.5714V4.85714H63.4286V-1Z" fill="#2F2F2F"/>
<path d="M69.2857 -1H63.4286V4.85714H69.2857V-1Z" fill="#2F2F2F"/>
<path d="M75.1429 -1H69.2857V4.85714H75.1429V-1Z" fill="#2F2F2F"/>
<path d="M86.8571 -1H81V4.85714H86.8571V-1Z" fill="#2F2F2F"/>
<path d="M92.7143 -1H86.8571V4.85714H92.7143V-1Z" fill="#2F2F2F"/>
<path d="M98.5714 -1H92.7143V4.85714H98.5714V-1Z" fill="#2F2F2F"/>
<path d="M104.429 -1H98.5714V4.85714H104.429V-1Z" fill="#2F2F2F"/>
<path d="M110.286 -1H104.429V4.85714H110.286V-1Z" fill="#2F2F2F"/>
<path d="M116.143 -1H110.286V4.85714H116.143V-1Z" fill="#2F2F2F"/>
<path d="M122 -1H116.143V4.85714H122V-1Z" fill="#2F2F2F"/>
<path d="M4.85714 4.85714H-1V10.7143H4.85714V4.85714Z" fill="#2F2F2F"/>
<path d="M40 4.85714H34.1429V10.7143H40V4.85714Z" fill="#2F2F2F"/>
<path d="M51.7143 4.85714H45.8571V10.7143H51.7143V4.85714Z" fill="#2F2F2F"/>
<path d="M63.4286 4.85714H57.5714V10.7143H63.4286V4.85714Z" fill="#2F2F2F"/>
<path d="M69.2857 4.85714H63.4286V10.7143H69.2857V4.85714Z" fill="#2F2F2F"/>
<path d="M86.8571 4.85714H81V10.7143H86.8571V4.85714Z" fill="#2F2F2F"/>
<path d="M122 4.85714H116.143V10.7143H122V4.85714Z" fill="#2F2F2F"/>
<path d="M4.85714 10.7143H-1V16.5714H4.85714V10.7143Z" fill="#2F2F2F"/>
<path d="M16.5714 10.7143H10.7143V16.5714H16.5714V10.7143Z" fill="#2F2F2F"/>
<path d="M22.4286 10.7143H16.5714V16.5714H22.4286V10.7143Z" fill="#2F2F2F"/>
<path d="M28.2857 10.7143H22.4286V16.5714H28.2857V10.7143Z" fill="#2F2F2F"/>
<path d="M40 10.7143H34.1429V16.5714H40V10.7143Z" fill="#2F2F2F"/>
<path d="M51.7143 10.7143H45.8571V16.5714H51.7143V10.7143Z" fill="#2F2F2F"/>
<path d="M63.4286 10.7143H57.5714V16.5714H63.4286V10.7143Z" fill="#2F2F2F"/>
<path d="M75.1429 10.7143H69.2857V16.5714H75.1429V10.7143Z" fill="#2F2F2F"/>
<path d="M86.8571 10.7143H81V16.5714H86.8571V10.7143Z" fill="#2F2F2F"/>
<path d="M98.5714 10.7143H92.7143V16.5714H98.5714V10.7143Z" fill="#2F2F2F"/>
<path d="M104.429 10.7143H98.5714V16.5714H104.429V10.7143Z" fill="#2F2F2F"/>
<path d="M110.286 10.7143H104.429V16.5714H110.286V10.7143Z" fill="#2F2F2F"/>
<path d="M122 10.7143H116.143V16.5714H122V10.7143Z" fill="#2F2F2F"/>
<path d="M4.85714 16.5714H-1V22.4286H4.85714V16.5714Z" fill="#2F2F2F"/>
<path d="M16.5714 16.5714H10.7143V22.4286H16.5714V16.5714Z" fill="#2F2F2F"/>
<path d="M22.4286 16.5714H16.5714V22.4286H22.4286V16.5714Z" fill="#2F2F2F"/>
<path d="M28.2857 16.5714H22.4286V22.4286H28.2857V16.5714Z" fill="#2F2F2F"/>
<path d="M40 16.5714H34.1429V22.4286H40V16.5714Z" fill="#2F2F2F"/>
<path d="M51.7143 16.5714H45.8571V22.4286H51.7143V16.5714Z" fill="#2F2F2F"/>
<path d="M57.5714 16.5714H51.7143V22.4286H57.5714L57.5714 16.5714Z" fill="#2F2F2F"/>
<path d="M63.4286 16.5714H57.5714L57.5714 22.4286H63.4286V16.5714Z" fill="#2F2F2F"/>
<path d="M69.2857 16.5714H63.4286V22.4286H69.2857V16.5714Z" fill="#2F2F2F"/>
<path d="M86.8571 16.5714H81V22.4286H86.8571V16.5714Z" fill="#2F2F2F"/>
<path d="M98.5714 16.5714H92.7143V22.4286H98.5714V16.5714Z" fill="#2F2F2F"/>
<path d="M104.429 16.5714H98.5714V22.4286H104.429V16.5714Z" fill="#2F2F2F"/>
<path d="M110.286 16.5714H104.429V22.4286H110.286V16.5714Z" fill="#2F2F2F"/>
<path d="M122 16.5714H116.143V22.4286H122V16.5714Z" fill="#2F2F2F"/>
<path d="M4.85714 22.4286H-1V28.2857H4.85714V22.4286Z" fill="#2F2F2F"/>
<path d="M16.5714 22.4286H10.7143V28.2857H16.5714V22.4286Z" fill="#2F2F2F"/>
<path d="M22.4286 22.4286H16.5714V28.2857H22.4286V22.4286Z" fill="#2F2F2F"/>
<path d="M28.2857 22.4286H22.4286V28.2857H28.2857V22.4286Z" fill="#2F2F2F"/>
<path d="M40 22.4286H34.1429V28.2857H40V22.4286Z" fill="#2F2F2F"/>
<path d="M75.1429 22.4286H69.2857V28.2857H75.1429V22.4286Z" fill="#2F2F2F"/>
<path d="M86.8571 22.4286H81V28.2857H86.8571V22.4286Z" fill="#2F2F2F"/>
<path d="M98.5714 22.4286H92.7143V28.2857H98.5714V22.4286Z" fill="#2F2F2F"/>
<path d="M104.429 22.4286H98.5714V28.2857H104.429V22.4286Z" fill="#2F2F2F"/>
<path d="M110.286 22.4286H104.429V28.2857H110.286V22.4286Z" fill="#2F2F2F"/>
<path d="M122 22.4286H116.143V28.2857H122V22.4286Z" fill="#2F2F2F"/>
<path d="M4.85714 28.2857H-1V34.1429H4.85714V28.2857Z" fill="#2F2F2F"/>
<path d="M40 28.2857H34.1429V34.1429H40V28.2857Z" fill="#2F2F2F"/>
<path d="M51.7143 28.2857H45.8571V34.1429H51.7143V28.2857Z" fill="#2F2F2F"/>
<path d="M57.5714 28.2857H51.7143V34.1429H57.5714V28.2857Z" fill="#2F2F2F"/>
<path d="M69.2857 28.2857H63.4286V34.1429H69.2857V28.2857Z" fill="#2F2F2F"/>
<path d="M75.1429 28.2857H69.2857V34.1429H75.1429V28.2857Z" fill="#2F2F2F"/>
<path d="M86.8571 28.2857H81V34.1429H86.8571V28.2857Z" fill="#2F2F2F"/>
<path d="M122 28.2857H116.143V34.1429H122V28.2857Z" fill="#2F2F2F"/>
<path d="M4.85714 34.1429H-1V40H4.85714V34.1429Z" fill="#2F2F2F"/>
<path d="M10.7143 34.1429H4.85714V40H10.7143V34.1429Z" fill="#2F2F2F"/>
<path d="M16.5714 34.1429H10.7143V40H16.5714V34.1429Z" fill="#2F2F2F"/>
<path d="M22.4286 34.1429H16.5714V40H22.4286V34.1429Z" fill="#2F2F2F"/>
<path d="M28.2857 34.1429H22.4286V40H28.2857V34.1429Z" fill="#2F2F2F"/>
<path d="M34.1429 34.1429H28.2857V40H34.1429V34.1429Z" fill="#2F2F2F"/>
<path d="M40 34.1429H34.1429V40H40V34.1429Z" fill="#2F2F2F"/>
<path d="M51.7143 34.1429H45.8571V40H51.7143V34.1429Z" fill="#2F2F2F"/>
<path d="M63.4286 34.1429H57.5714L57.5714 40H63.4286L63.4286 34.1429Z" fill="#2F2F2F"/>
<path d="M75.1429 34.1429H69.2857V40H75.1429V34.1429Z" fill="#2F2F2F"/>
<path d="M86.8571 34.1429H81V40H86.8571V34.1429Z" fill="#2F2F2F"/>
<path d="M92.7143 34.1429H86.8571V40H92.7143V34.1429Z" fill="#2F2F2F"/>
<path d="M98.5714 34.1429H92.7143V40H98.5714V34.1429Z" fill="#2F2F2F"/>
<path d="M104.429 34.1429H98.5714V40H104.429V34.1429Z" fill="#2F2F2F"/>
<path d="M110.286 34.1429H104.429V40H110.286V34.1429Z" fill="#2F2F2F"/>
<path d="M116.143 34.1429H110.286V40H116.143V34.1429Z" fill="#2F2F2F"/>
<path d="M122 34.1429H116.143V40H122V34.1429Z" fill="#2F2F2F"/>
<path d="M57.5714 40H51.7143L51.7143 45.8571H57.5714L57.5714 40Z" fill="#2F2F2F"/>
<path d="M69.2857 40H63.4286L63.4286 45.8571H69.2857V40Z" fill="#2F2F2F"/>
<path d="M75.1429 40H69.2857V45.8571H75.1429V40Z" fill="#2F2F2F"/>
<path d="M10.7143 45.8571H4.85714V51.7143H10.7143V45.8571Z" fill="#2F2F2F"/>
<path d="M16.5714 45.8571H10.7143V51.7143H16.5714V45.8571Z" fill="#2F2F2F"/>
<path d="M40 45.8571H34.1429V51.7143H40V45.8571Z" fill="#2F2F2F"/>
<path d="M63.4286 45.8571H57.5714L57.5714 51.7143H63.4286L63.4286 45.8571Z" fill="#2F2F2F"/>
<path d="M75.1429 45.8571H69.2857V51.7143H75.1429V45.8571Z" fill="#2F2F2F"/>
<path d="M81 45.8571L75.1429 45.8571V51.7143H81V45.8571Z" fill="#2F2F2F"/>
<path d="M92.7143 45.8571H86.8571V51.7143H92.7143V45.8571Z" fill="#2F2F2F"/>
<path d="M104.429 45.8571H98.5714V51.7143H104.429V45.8571Z" fill="#2F2F2F"/>
<path d="M110.286 45.8571H104.429V51.7143H110.286V45.8571Z" fill="#2F2F2F"/>
<path d="M116.143 45.8571H110.286V51.7143H116.143V45.8571Z" fill="#2F2F2F"/>
<path d="M16.5714 51.7143H10.7143V57.5714H16.5714V51.7143Z" fill="#2F2F2F"/>
<path d="M28.2857 51.7143H22.4286V57.5714H28.2857V51.7143Z" fill="#2F2F2F"/>
<path d="M51.7143 51.7143H45.8571V57.5714H51.7143V51.7143Z" fill="#2F2F2F"/>
<path d="M57.5714 51.7143L51.7143 51.7143V57.5714H57.5714L57.5714 51.7143Z" fill="#2F2F2F"/>
<path d="M75.1429 51.7143H69.2857V57.5714H75.1429V51.7143Z" fill="#2F2F2F"/>
<path d="M92.7143 51.7143H86.8571V57.5714H92.7143V51.7143Z" fill="#2F2F2F"/>
<path d="M104.429 51.7143H98.5714V57.5714H104.429V51.7143Z" fill="#2F2F2F"/>
<path d="M110.286 51.7143H104.429V57.5714H110.286V51.7143Z" fill="#2F2F2F"/>
<path d="M116.143 51.7143H110.286V57.5714H116.143V51.7143Z" fill="#2F2F2F"/>
<path d="M4.85714 57.5714H-1V63.4286H4.85714V57.5714Z" fill="#2F2F2F"/>
<path d="M22.4286 57.5714H16.5714V63.4286H22.4286V57.5714Z" fill="#2F2F2F"/>
<path d="M34.1429 57.5714L28.2857 57.5714V63.4286H34.1429V57.5714Z" fill="#2F2F2F"/>
<path d="M40 57.5714H34.1429V63.4286H40V57.5714Z" fill="#2F2F2F"/>
<path d="M45.8571 57.5714L40 57.5714V63.4286H45.8571V57.5714Z" fill="#2F2F2F"/>
<path d="M51.7143 57.5714H45.8571V63.4286H51.7143V57.5714Z" fill="#2F2F2F"/>
<path d="M57.5714 57.5714H51.7143V63.4286H57.5714V57.5714Z" fill="#2F2F2F"/>
<path d="M75.1429 57.5714H69.2857V63.4286H75.1429V57.5714Z" fill="#2F2F2F"/>
<path d="M98.5714 57.5714H92.7143V63.4286H98.5714V57.5714Z" fill="#2F2F2F"/>
<path d="M104.429 57.5714H98.5714V63.4286H104.429V57.5714Z" fill="#2F2F2F"/>
<path d="M110.286 57.5714H104.429V63.4286H110.286V57.5714Z" fill="#2F2F2F"/>
<path d="M4.85714 63.4286H-1V69.2857H4.85714V63.4286Z" fill="#2F2F2F"/>
<path d="M16.5714 63.4286L10.7143 63.4286V69.2857H16.5714V63.4286Z" fill="#2F2F2F"/>
<path d="M45.8571 63.4286H40V69.2857H45.8571V63.4286Z" fill="#2F2F2F"/>
<path d="M75.1429 63.4286H69.2857V69.2857H75.1429V63.4286Z" fill="#2F2F2F"/>
<path d="M81 63.4286L75.1429 63.4286V69.2857H81V63.4286Z" fill="#2F2F2F"/>
<path d="M86.8571 63.4286H81V69.2857H86.8571V63.4286Z" fill="#2F2F2F"/>
<path d="M110.286 63.4286H104.429V69.2857H110.286V63.4286Z" fill="#2F2F2F"/>
<path d="M116.143 63.4286L110.286 63.4286V69.2857H116.143V63.4286Z" fill="#2F2F2F"/>
<path d="M122 63.4286H116.143V69.2857H122V63.4286Z" fill="#2F2F2F"/>
<path d="M4.85714 69.2857H-1V75.1429H4.85714V69.2857Z" fill="#2F2F2F"/>
<path d="M10.7143 69.2857H4.85714V75.1429H10.7143V69.2857Z" fill="#2F2F2F"/>
<path d="M16.5714 69.2857H10.7143V75.1429H16.5714V69.2857Z" fill="#2F2F2F"/>
<path d="M34.1429 69.2857H28.2857V75.1429H34.1429V69.2857Z" fill="#2F2F2F"/>
<path d="M40 69.2857H34.1429V75.1429H40V69.2857Z" fill="#2F2F2F"/>
<path d="M51.7143 69.2857H45.8571V75.1429H51.7143V69.2857Z" fill="#2F2F2F"/>
<path d="M63.4286 69.2857H57.5714V75.1429H63.4286V69.2857Z" fill="#2F2F2F"/>
<path d="M69.2857 69.2857H63.4286V75.1429H69.2857V69.2857Z" fill="#2F2F2F"/>
<path d="M86.8571 69.2857H81V75.1429H86.8571V69.2857Z" fill="#2F2F2F"/>
<path d="M98.5714 69.2857H92.7143V75.1429H98.5714V69.2857Z" fill="#2F2F2F"/>
<path d="M116.143 69.2857H110.286V75.1429H116.143V69.2857Z" fill="#2F2F2F"/>
<path d="M122 69.2857H116.143V75.1429H122V69.2857Z" fill="#2F2F2F"/>
<path d="M63.4286 75.1429H57.5714V81H63.4286V75.1429Z" fill="#2F2F2F"/>
<path d="M69.2857 75.1429H63.4286V81H69.2857V75.1429Z" fill="#2F2F2F"/>
<path d="M75.1429 75.1429H69.2857V81H75.1429V75.1429Z" fill="#2F2F2F"/>
<path d="M81 75.1429H75.1429V81H81V75.1429Z" fill="#2F2F2F"/>
<path d="M86.8571 75.1429H81V81H86.8571V75.1429Z" fill="#2F2F2F"/>
<path d="M92.7143 75.1429H86.8571V81H92.7143V75.1429Z" fill="#2F2F2F"/>
<path d="M104.429 75.1429H98.5714V81H104.429V75.1429Z" fill="#2F2F2F"/>
<path d="M110.286 75.1429H104.429V81H110.286V75.1429Z" fill="#2F2F2F"/>
<path d="M4.85714 81H-1V86.8571H4.85714V81Z" fill="#2F2F2F"/>
<path d="M10.7143 81H4.85714V86.8571H10.7143V81Z" fill="#2F2F2F"/>
<path d="M16.5714 81H10.7143V86.8571H16.5714V81Z" fill="#2F2F2F"/>
<path d="M22.4286 81H16.5714V86.8571H22.4286V81Z" fill="#2F2F2F"/>
<path d="M28.2857 81H22.4286V86.8571H28.2857V81Z" fill="#2F2F2F"/>
<path d="M34.1429 81H28.2857V86.8571H34.1429V81Z" fill="#2F2F2F"/>
<path d="M40 81H34.1429V86.8571H40V81Z" fill="#2F2F2F"/>
<path d="M63.4286 81H57.5714V86.8571H63.4286V81Z" fill="#2F2F2F"/>
<path d="M86.8571 81H81V86.8571H86.8571V81Z" fill="#2F2F2F"/>
<path d="M92.7143 81H86.8571V86.8571H92.7143V81Z" fill="#2F2F2F"/>
<path d="M98.5714 81H92.7143V86.8571H98.5714V81Z" fill="#2F2F2F"/>
<path d="M116.143 81H110.286V86.8571H116.143V81Z" fill="#2F2F2F"/>
<path d="M4.85714 86.8571H-1V92.7143H4.85714V86.8571Z" fill="#2F2F2F"/>
<path d="M40 86.8571H34.1429V92.7143H40V86.8571Z" fill="#2F2F2F"/>
<path d="M57.5714 86.8571H51.7143V92.7143H57.5714L57.5714 86.8571Z" fill="#2F2F2F"/>
<path d="M63.4286 86.8571H57.5714L57.5714 92.7143H63.4286V86.8571Z" fill="#2F2F2F"/>
<path d="M81 86.8571H75.1429V92.7143H81V86.8571Z" fill="#2F2F2F"/>
<path d="M122 86.8571H116.143V92.7143H122V86.8571Z" fill="#2F2F2F"/>
<path d="M4.85714 92.7143H-1V98.5714H4.85714V92.7143Z" fill="#2F2F2F"/>
<path d="M16.5714 92.7143H10.7143V98.5714H16.5714V92.7143Z" fill="#2F2F2F"/>
<path d="M22.4286 92.7143H16.5714V98.5714H22.4286V92.7143Z" fill="#2F2F2F"/>
<path d="M28.2857 92.7143H22.4286V98.5714H28.2857V92.7143Z" fill="#2F2F2F"/>
<path d="M40 92.7143H34.1429V98.5714H40V92.7143Z" fill="#2F2F2F"/>
<path d="M63.4286 92.7143H57.5714L57.5714 98.5714H63.4286V92.7143Z" fill="#2F2F2F"/>
<path d="M75.1429 92.7143H69.2857V98.5714H75.1429V92.7143Z" fill="#2F2F2F"/>
<path d="M86.8571 92.7143H81V98.5714H86.8571V92.7143Z" fill="#2F2F2F"/>
<path d="M104.429 92.7143H98.5714V98.5714H104.429V92.7143Z" fill="#2F2F2F"/>
<path d="M110.286 92.7143H104.429V98.5714H110.286V92.7143Z" fill="#2F2F2F"/>
<path d="M116.143 92.7143H110.286V98.5714H116.143V92.7143Z" fill="#2F2F2F"/>
<path d="M4.85714 98.5714H-1V104.429H4.85714V98.5714Z" fill="#2F2F2F"/>
<path d="M16.5714 98.5714H10.7143V104.429H16.5714V98.5714Z" fill="#2F2F2F"/>
<path d="M22.4286 98.5714H16.5714V104.429H22.4286V98.5714Z" fill="#2F2F2F"/>
<path d="M28.2857 98.5714H22.4286V104.429H28.2857V98.5714Z" fill="#2F2F2F"/>
<path d="M40 98.5714H34.1429V104.429H40V98.5714Z" fill="#2F2F2F"/>
<path d="M63.4286 98.5714H57.5714V104.429H63.4286V98.5714Z" fill="#2F2F2F"/>
<path d="M92.7143 98.5714H86.8571V104.429H92.7143V98.5714Z" fill="#2F2F2F"/>
<path d="M98.5714 98.5714H92.7143V104.429H98.5714V98.5714Z" fill="#2F2F2F"/>
<path d="M110.286 98.5714H104.429V104.429H110.286V98.5714Z" fill="#2F2F2F"/>
<path d="M116.143 98.5714H110.286V104.429H116.143V98.5714Z" fill="#2F2F2F"/>
<path d="M122 98.5714H116.143V104.429H122V98.5714Z" fill="#2F2F2F"/>
<path d="M4.85714 104.429H-1V110.286H4.85714V104.429Z" fill="#2F2F2F"/>
<path d="M16.5714 104.429H10.7143V110.286H16.5714V104.429Z" fill="#2F2F2F"/>
<path d="M22.4286 104.429H16.5714V110.286H22.4286V104.429Z" fill="#2F2F2F"/>
<path d="M28.2857 104.429H22.4286V110.286H28.2857V104.429Z" fill="#2F2F2F"/>
<path d="M40 104.429H34.1429V110.286H40V104.429Z" fill="#2F2F2F"/>
<path d="M51.7143 104.429H45.8571V110.286H51.7143V104.429Z" fill="#2F2F2F"/>
<path d="M63.4286 104.429H57.5714V110.286H63.4286V104.429Z" fill="#2F2F2F"/>
<path d="M75.1429 104.429H69.2857V110.286H75.1429V104.429Z" fill="#2F2F2F"/>
<path d="M81 104.429H75.1429V110.286H81V104.429Z" fill="#2F2F2F"/>
<path d="M86.8571 104.429H81V110.286H86.8571V104.429Z" fill="#2F2F2F"/>
<path d="M110.286 104.429H104.429V110.286H110.286V104.429Z" fill="#2F2F2F"/>
<path d="M4.85714 110.286H-1V116.143H4.85714V110.286Z" fill="#2F2F2F"/>
<path d="M40 110.286H34.1429V116.143H40V110.286Z" fill="#2F2F2F"/>
<path d="M51.7143 110.286H45.8571V116.143H51.7143V110.286Z" fill="#2F2F2F"/>
<path d="M57.5714 110.286H51.7143V116.143H57.5714L57.5714 110.286Z" fill="#2F2F2F"/>
<path d="M63.4286 110.286H57.5714L57.5714 116.143H63.4286V110.286Z" fill="#2F2F2F"/>
<path d="M69.2857 110.286H63.4286V116.143H69.2857V110.286Z" fill="#2F2F2F"/>
<path d="M81 110.286H75.1429V116.143H81V110.286Z" fill="#2F2F2F"/>
<path d="M104.429 110.286H98.5714V116.143H104.429V110.286Z" fill="#2F2F2F"/>
<path d="M4.85714 116.143H-1V122H4.85714V116.143Z" fill="#2F2F2F"/>
<path d="M10.7143 116.143H4.85714V122H10.7143V116.143Z" fill="#2F2F2F"/>
<path d="M16.5714 116.143H10.7143V122H16.5714V116.143Z" fill="#2F2F2F"/>
<path d="M22.4286 116.143H16.5714V122H22.4286V116.143Z" fill="#2F2F2F"/>
<path d="M28.2857 116.143H22.4286V122H28.2857V116.143Z" fill="#2F2F2F"/>
<path d="M34.1429 116.143H28.2857V122H34.1429V116.143Z" fill="#2F2F2F"/>
<path d="M40 116.143H34.1429V122H40V116.143Z" fill="#2F2F2F"/>
<path d="M57.5714 116.143H51.7143L51.7143 122H57.5714V116.143Z" fill="#2F2F2F"/>
<path d="M63.4286 116.143H57.5714V122H63.4286V116.143Z" fill="#2F2F2F"/>
<path d="M69.2857 116.143H63.4286V122H69.2857V116.143Z" fill="#2F2F2F"/>
<path d="M75.1429 116.143H69.2857V122H75.1429V116.143Z" fill="#2F2F2F"/>
<path d="M92.7143 116.143H86.8571V122H92.7143V116.143Z" fill="#2F2F2F"/>
<path d="M98.5714 116.143H92.7143V122H98.5714V116.143Z" fill="#2F2F2F"/>
<path d="M116.143 116.143H110.286V122H116.143V116.143Z" fill="#2F2F2F"/>
</svg>
